%TF.GenerationSoftware,KiCad,Pcbnew,7.0.11+dfsg-1build4*%
%TF.CreationDate,2025-01-19T09:07:44-05:00*%
%TF.ProjectId,ThermocoupleBoard,54686572-6d6f-4636-9f75-706c65426f61,rev?*%
%TF.SameCoordinates,Original*%
%TF.FileFunction,Legend,Top*%
%TF.FilePolarity,Positive*%
%FSLAX46Y46*%
G04 Gerber Fmt 4.6, Leading zero omitted, Abs format (unit mm)*
G04 Created by KiCad (PCBNEW 7.0.11+dfsg-1build4) date 2025-01-19 09:07:44*
%MOMM*%
%LPD*%
G01*
G04 APERTURE LIST*
G04 Aperture macros list*
%AMRoundRect*
0 Rectangle with rounded corners*
0 $1 Rounding radius*
0 $2 $3 $4 $5 $6 $7 $8 $9 X,Y pos of 4 corners*
0 Add a 4 corners polygon primitive as box body*
4,1,4,$2,$3,$4,$5,$6,$7,$8,$9,$2,$3,0*
0 Add four circle primitives for the rounded corners*
1,1,$1+$1,$2,$3*
1,1,$1+$1,$4,$5*
1,1,$1+$1,$6,$7*
1,1,$1+$1,$8,$9*
0 Add four rect primitives between the rounded corners*
20,1,$1+$1,$2,$3,$4,$5,0*
20,1,$1+$1,$4,$5,$6,$7,0*
20,1,$1+$1,$6,$7,$8,$9,0*
20,1,$1+$1,$8,$9,$2,$3,0*%
G04 Aperture macros list end*
%ADD10C,0.125000*%
%ADD11C,0.150000*%
%ADD12C,0.100000*%
%ADD13C,0.120000*%
%ADD14C,0.127000*%
%ADD15C,0.240000*%
%ADD16R,1.700000X1.700000*%
%ADD17O,1.700000X1.700000*%
%ADD18RoundRect,0.140000X-0.140000X-0.170000X0.140000X-0.170000X0.140000X0.170000X-0.140000X0.170000X0*%
%ADD19RoundRect,0.140000X-0.170000X0.140000X-0.170000X-0.140000X0.170000X-0.140000X0.170000X0.140000X0*%
%ADD20RoundRect,0.102000X-0.600000X0.600000X-0.600000X-0.600000X0.600000X-0.600000X0.600000X0.600000X0*%
%ADD21RoundRect,0.102000X-0.800000X0.750000X-0.800000X-0.750000X0.800000X-0.750000X0.800000X0.750000X0*%
%ADD22RoundRect,0.200000X0.200000X0.275000X-0.200000X0.275000X-0.200000X-0.275000X0.200000X-0.275000X0*%
%ADD23RoundRect,0.500000X0.750000X-1.000000X0.750000X1.000000X-0.750000X1.000000X-0.750000X-1.000000X0*%
%ADD24O,2.500000X3.000000*%
%ADD25RoundRect,0.140000X0.140000X0.170000X-0.140000X0.170000X-0.140000X-0.170000X0.140000X-0.170000X0*%
%ADD26RoundRect,0.200000X-0.200000X-0.275000X0.200000X-0.275000X0.200000X0.275000X-0.200000X0.275000X0*%
%ADD27RoundRect,0.075000X-0.662500X-0.075000X0.662500X-0.075000X0.662500X0.075000X-0.662500X0.075000X0*%
%ADD28RoundRect,0.075000X-0.075000X-0.662500X0.075000X-0.662500X0.075000X0.662500X-0.075000X0.662500X0*%
%ADD29RoundRect,0.200000X0.275000X-0.200000X0.275000X0.200000X-0.275000X0.200000X-0.275000X-0.200000X0*%
%ADD30RoundRect,0.150000X-0.587500X-0.150000X0.587500X-0.150000X0.587500X0.150000X-0.587500X0.150000X0*%
%ADD31RoundRect,0.150000X-0.825000X-0.150000X0.825000X-0.150000X0.825000X0.150000X-0.825000X0.150000X0*%
%ADD32O,0.700000X0.200000*%
%ADD33O,0.200000X0.700000*%
%ADD34C,0.600000*%
%ADD35R,1.000000X1.000000*%
%ADD36RoundRect,0.200000X-0.275000X0.200000X-0.275000X-0.200000X0.275000X-0.200000X0.275000X0.200000X0*%
%ADD37RoundRect,0.150000X0.150000X-0.512500X0.150000X0.512500X-0.150000X0.512500X-0.150000X-0.512500X0*%
%ADD38RoundRect,0.250000X0.475000X-0.337500X0.475000X0.337500X-0.475000X0.337500X-0.475000X-0.337500X0*%
%ADD39RoundRect,0.150000X-0.512500X-0.150000X0.512500X-0.150000X0.512500X0.150000X-0.512500X0.150000X0*%
%ADD40RoundRect,0.100000X0.225000X0.100000X-0.225000X0.100000X-0.225000X-0.100000X0.225000X-0.100000X0*%
%ADD41RoundRect,0.135000X-0.135000X-0.185000X0.135000X-0.185000X0.135000X0.185000X-0.135000X0.185000X0*%
%ADD42RoundRect,0.102000X-0.250000X-0.150000X0.250000X-0.150000X0.250000X0.150000X-0.250000X0.150000X0*%
%ADD43RoundRect,0.250000X-0.625000X-0.840000X0.625000X-0.840000X0.625000X0.840000X-0.625000X0.840000X0*%
%ADD44RoundRect,0.250000X-0.312500X-0.625000X0.312500X-0.625000X0.312500X0.625000X-0.312500X0.625000X0*%
%ADD45RoundRect,0.225000X0.225000X0.375000X-0.225000X0.375000X-0.225000X-0.375000X0.225000X-0.375000X0*%
%ADD46R,3.000000X1.500000*%
%ADD47RoundRect,0.135000X-0.185000X0.135000X-0.185000X-0.135000X0.185000X-0.135000X0.185000X0.135000X0*%
%ADD48RoundRect,0.225000X-0.250000X0.225000X-0.250000X-0.225000X0.250000X-0.225000X0.250000X0.225000X0*%
%ADD49RoundRect,0.250000X-0.475000X0.337500X-0.475000X-0.337500X0.475000X-0.337500X0.475000X0.337500X0*%
%ADD50RoundRect,0.140000X0.170000X-0.140000X0.170000X0.140000X-0.170000X0.140000X-0.170000X-0.140000X0*%
%ADD51RoundRect,0.102000X-0.700000X-1.500000X0.700000X-1.500000X0.700000X1.500000X-0.700000X1.500000X0*%
%ADD52RoundRect,0.225000X0.225000X0.250000X-0.225000X0.250000X-0.225000X-0.250000X0.225000X-0.250000X0*%
%ADD53RoundRect,0.249999X0.512501X1.075001X-0.512501X1.075001X-0.512501X-1.075001X0.512501X-1.075001X0*%
%ADD54RoundRect,0.250000X-0.362500X-1.425000X0.362500X-1.425000X0.362500X1.425000X-0.362500X1.425000X0*%
G04 APERTURE END LIST*
D10*
X72511239Y-110855500D02*
X72625525Y-110893595D01*
X72625525Y-110893595D02*
X72816001Y-110893595D01*
X72816001Y-110893595D02*
X72892192Y-110855500D01*
X72892192Y-110855500D02*
X72930287Y-110817404D01*
X72930287Y-110817404D02*
X72968382Y-110741214D01*
X72968382Y-110741214D02*
X72968382Y-110665023D01*
X72968382Y-110665023D02*
X72930287Y-110588833D01*
X72930287Y-110588833D02*
X72892192Y-110550738D01*
X72892192Y-110550738D02*
X72816001Y-110512642D01*
X72816001Y-110512642D02*
X72663620Y-110474547D01*
X72663620Y-110474547D02*
X72587430Y-110436452D01*
X72587430Y-110436452D02*
X72549335Y-110398357D01*
X72549335Y-110398357D02*
X72511239Y-110322166D01*
X72511239Y-110322166D02*
X72511239Y-110245976D01*
X72511239Y-110245976D02*
X72549335Y-110169785D01*
X72549335Y-110169785D02*
X72587430Y-110131690D01*
X72587430Y-110131690D02*
X72663620Y-110093595D01*
X72663620Y-110093595D02*
X72854097Y-110093595D01*
X72854097Y-110093595D02*
X72968382Y-110131690D01*
X73768383Y-110817404D02*
X73730287Y-110855500D01*
X73730287Y-110855500D02*
X73616002Y-110893595D01*
X73616002Y-110893595D02*
X73539811Y-110893595D01*
X73539811Y-110893595D02*
X73425525Y-110855500D01*
X73425525Y-110855500D02*
X73349335Y-110779309D01*
X73349335Y-110779309D02*
X73311240Y-110703119D01*
X73311240Y-110703119D02*
X73273144Y-110550738D01*
X73273144Y-110550738D02*
X73273144Y-110436452D01*
X73273144Y-110436452D02*
X73311240Y-110284071D01*
X73311240Y-110284071D02*
X73349335Y-110207880D01*
X73349335Y-110207880D02*
X73425525Y-110131690D01*
X73425525Y-110131690D02*
X73539811Y-110093595D01*
X73539811Y-110093595D02*
X73616002Y-110093595D01*
X73616002Y-110093595D02*
X73730287Y-110131690D01*
X73730287Y-110131690D02*
X73768383Y-110169785D01*
X74111240Y-110893595D02*
X74111240Y-110093595D01*
X74568383Y-110893595D02*
X74225525Y-110436452D01*
X74568383Y-110093595D02*
X74111240Y-110550738D01*
X97593906Y-98028500D02*
X97708192Y-98066595D01*
X97708192Y-98066595D02*
X97898668Y-98066595D01*
X97898668Y-98066595D02*
X97974859Y-98028500D01*
X97974859Y-98028500D02*
X98012954Y-97990404D01*
X98012954Y-97990404D02*
X98051049Y-97914214D01*
X98051049Y-97914214D02*
X98051049Y-97838023D01*
X98051049Y-97838023D02*
X98012954Y-97761833D01*
X98012954Y-97761833D02*
X97974859Y-97723738D01*
X97974859Y-97723738D02*
X97898668Y-97685642D01*
X97898668Y-97685642D02*
X97746287Y-97647547D01*
X97746287Y-97647547D02*
X97670097Y-97609452D01*
X97670097Y-97609452D02*
X97632002Y-97571357D01*
X97632002Y-97571357D02*
X97593906Y-97495166D01*
X97593906Y-97495166D02*
X97593906Y-97418976D01*
X97593906Y-97418976D02*
X97632002Y-97342785D01*
X97632002Y-97342785D02*
X97670097Y-97304690D01*
X97670097Y-97304690D02*
X97746287Y-97266595D01*
X97746287Y-97266595D02*
X97936764Y-97266595D01*
X97936764Y-97266595D02*
X98051049Y-97304690D01*
X98317716Y-97266595D02*
X98508192Y-98066595D01*
X98508192Y-98066595D02*
X98660573Y-97495166D01*
X98660573Y-97495166D02*
X98812954Y-98066595D01*
X98812954Y-98066595D02*
X99003431Y-97266595D01*
X99308193Y-98066595D02*
X99308193Y-97266595D01*
X99308193Y-97266595D02*
X99498669Y-97266595D01*
X99498669Y-97266595D02*
X99612955Y-97304690D01*
X99612955Y-97304690D02*
X99689145Y-97380880D01*
X99689145Y-97380880D02*
X99727240Y-97457071D01*
X99727240Y-97457071D02*
X99765336Y-97609452D01*
X99765336Y-97609452D02*
X99765336Y-97723738D01*
X99765336Y-97723738D02*
X99727240Y-97876119D01*
X99727240Y-97876119D02*
X99689145Y-97952309D01*
X99689145Y-97952309D02*
X99612955Y-98028500D01*
X99612955Y-98028500D02*
X99498669Y-98066595D01*
X99498669Y-98066595D02*
X99308193Y-98066595D01*
X100108193Y-98066595D02*
X100108193Y-97266595D01*
X100641526Y-97266595D02*
X100793907Y-97266595D01*
X100793907Y-97266595D02*
X100870097Y-97304690D01*
X100870097Y-97304690D02*
X100946288Y-97380880D01*
X100946288Y-97380880D02*
X100984383Y-97533261D01*
X100984383Y-97533261D02*
X100984383Y-97799928D01*
X100984383Y-97799928D02*
X100946288Y-97952309D01*
X100946288Y-97952309D02*
X100870097Y-98028500D01*
X100870097Y-98028500D02*
X100793907Y-98066595D01*
X100793907Y-98066595D02*
X100641526Y-98066595D01*
X100641526Y-98066595D02*
X100565335Y-98028500D01*
X100565335Y-98028500D02*
X100489145Y-97952309D01*
X100489145Y-97952309D02*
X100451049Y-97799928D01*
X100451049Y-97799928D02*
X100451049Y-97533261D01*
X100451049Y-97533261D02*
X100489145Y-97380880D01*
X100489145Y-97380880D02*
X100565335Y-97304690D01*
X100565335Y-97304690D02*
X100641526Y-97266595D01*
X72016002Y-108226595D02*
X72016002Y-107426595D01*
X72016002Y-107426595D02*
X72282668Y-107998023D01*
X72282668Y-107998023D02*
X72549335Y-107426595D01*
X72549335Y-107426595D02*
X72549335Y-108226595D01*
X73082669Y-107426595D02*
X73235050Y-107426595D01*
X73235050Y-107426595D02*
X73311240Y-107464690D01*
X73311240Y-107464690D02*
X73387431Y-107540880D01*
X73387431Y-107540880D02*
X73425526Y-107693261D01*
X73425526Y-107693261D02*
X73425526Y-107959928D01*
X73425526Y-107959928D02*
X73387431Y-108112309D01*
X73387431Y-108112309D02*
X73311240Y-108188500D01*
X73311240Y-108188500D02*
X73235050Y-108226595D01*
X73235050Y-108226595D02*
X73082669Y-108226595D01*
X73082669Y-108226595D02*
X73006478Y-108188500D01*
X73006478Y-108188500D02*
X72930288Y-108112309D01*
X72930288Y-108112309D02*
X72892192Y-107959928D01*
X72892192Y-107959928D02*
X72892192Y-107693261D01*
X72892192Y-107693261D02*
X72930288Y-107540880D01*
X72930288Y-107540880D02*
X73006478Y-107464690D01*
X73006478Y-107464690D02*
X73082669Y-107426595D01*
X73730287Y-108188500D02*
X73844573Y-108226595D01*
X73844573Y-108226595D02*
X74035049Y-108226595D01*
X74035049Y-108226595D02*
X74111240Y-108188500D01*
X74111240Y-108188500D02*
X74149335Y-108150404D01*
X74149335Y-108150404D02*
X74187430Y-108074214D01*
X74187430Y-108074214D02*
X74187430Y-107998023D01*
X74187430Y-107998023D02*
X74149335Y-107921833D01*
X74149335Y-107921833D02*
X74111240Y-107883738D01*
X74111240Y-107883738D02*
X74035049Y-107845642D01*
X74035049Y-107845642D02*
X73882668Y-107807547D01*
X73882668Y-107807547D02*
X73806478Y-107769452D01*
X73806478Y-107769452D02*
X73768383Y-107731357D01*
X73768383Y-107731357D02*
X73730287Y-107655166D01*
X73730287Y-107655166D02*
X73730287Y-107578976D01*
X73730287Y-107578976D02*
X73768383Y-107502785D01*
X73768383Y-107502785D02*
X73806478Y-107464690D01*
X73806478Y-107464690D02*
X73882668Y-107426595D01*
X73882668Y-107426595D02*
X74073145Y-107426595D01*
X74073145Y-107426595D02*
X74187430Y-107464690D01*
X74530288Y-108226595D02*
X74530288Y-107426595D01*
X72016002Y-105686595D02*
X72016002Y-104886595D01*
X72016002Y-104886595D02*
X72282668Y-105458023D01*
X72282668Y-105458023D02*
X72549335Y-104886595D01*
X72549335Y-104886595D02*
X72549335Y-105686595D01*
X72930288Y-105686595D02*
X72930288Y-104886595D01*
X73273144Y-105648500D02*
X73387430Y-105686595D01*
X73387430Y-105686595D02*
X73577906Y-105686595D01*
X73577906Y-105686595D02*
X73654097Y-105648500D01*
X73654097Y-105648500D02*
X73692192Y-105610404D01*
X73692192Y-105610404D02*
X73730287Y-105534214D01*
X73730287Y-105534214D02*
X73730287Y-105458023D01*
X73730287Y-105458023D02*
X73692192Y-105381833D01*
X73692192Y-105381833D02*
X73654097Y-105343738D01*
X73654097Y-105343738D02*
X73577906Y-105305642D01*
X73577906Y-105305642D02*
X73425525Y-105267547D01*
X73425525Y-105267547D02*
X73349335Y-105229452D01*
X73349335Y-105229452D02*
X73311240Y-105191357D01*
X73311240Y-105191357D02*
X73273144Y-105115166D01*
X73273144Y-105115166D02*
X73273144Y-105038976D01*
X73273144Y-105038976D02*
X73311240Y-104962785D01*
X73311240Y-104962785D02*
X73349335Y-104924690D01*
X73349335Y-104924690D02*
X73425525Y-104886595D01*
X73425525Y-104886595D02*
X73616002Y-104886595D01*
X73616002Y-104886595D02*
X73730287Y-104924690D01*
X74225526Y-104886595D02*
X74377907Y-104886595D01*
X74377907Y-104886595D02*
X74454097Y-104924690D01*
X74454097Y-104924690D02*
X74530288Y-105000880D01*
X74530288Y-105000880D02*
X74568383Y-105153261D01*
X74568383Y-105153261D02*
X74568383Y-105419928D01*
X74568383Y-105419928D02*
X74530288Y-105572309D01*
X74530288Y-105572309D02*
X74454097Y-105648500D01*
X74454097Y-105648500D02*
X74377907Y-105686595D01*
X74377907Y-105686595D02*
X74225526Y-105686595D01*
X74225526Y-105686595D02*
X74149335Y-105648500D01*
X74149335Y-105648500D02*
X74073145Y-105572309D01*
X74073145Y-105572309D02*
X74035049Y-105419928D01*
X74035049Y-105419928D02*
X74035049Y-105153261D01*
X74035049Y-105153261D02*
X74073145Y-105000880D01*
X74073145Y-105000880D02*
X74149335Y-104924690D01*
X74149335Y-104924690D02*
X74225526Y-104886595D01*
X72892192Y-99971690D02*
X72816002Y-99933595D01*
X72816002Y-99933595D02*
X72701716Y-99933595D01*
X72701716Y-99933595D02*
X72587430Y-99971690D01*
X72587430Y-99971690D02*
X72511240Y-100047880D01*
X72511240Y-100047880D02*
X72473145Y-100124071D01*
X72473145Y-100124071D02*
X72435049Y-100276452D01*
X72435049Y-100276452D02*
X72435049Y-100390738D01*
X72435049Y-100390738D02*
X72473145Y-100543119D01*
X72473145Y-100543119D02*
X72511240Y-100619309D01*
X72511240Y-100619309D02*
X72587430Y-100695500D01*
X72587430Y-100695500D02*
X72701716Y-100733595D01*
X72701716Y-100733595D02*
X72777907Y-100733595D01*
X72777907Y-100733595D02*
X72892192Y-100695500D01*
X72892192Y-100695500D02*
X72930288Y-100657404D01*
X72930288Y-100657404D02*
X72930288Y-100390738D01*
X72930288Y-100390738D02*
X72777907Y-100390738D01*
X73273145Y-100733595D02*
X73273145Y-99933595D01*
X73273145Y-99933595D02*
X73730288Y-100733595D01*
X73730288Y-100733595D02*
X73730288Y-99933595D01*
X74111240Y-100733595D02*
X74111240Y-99933595D01*
X74111240Y-99933595D02*
X74301716Y-99933595D01*
X74301716Y-99933595D02*
X74416002Y-99971690D01*
X74416002Y-99971690D02*
X74492192Y-100047880D01*
X74492192Y-100047880D02*
X74530287Y-100124071D01*
X74530287Y-100124071D02*
X74568383Y-100276452D01*
X74568383Y-100276452D02*
X74568383Y-100390738D01*
X74568383Y-100390738D02*
X74530287Y-100543119D01*
X74530287Y-100543119D02*
X74492192Y-100619309D01*
X74492192Y-100619309D02*
X74416002Y-100695500D01*
X74416002Y-100695500D02*
X74301716Y-100733595D01*
X74301716Y-100733595D02*
X74111240Y-100733595D01*
X72511240Y-97520595D02*
X72777907Y-98320595D01*
X72777907Y-98320595D02*
X73044573Y-97520595D01*
X73768383Y-98244404D02*
X73730287Y-98282500D01*
X73730287Y-98282500D02*
X73616002Y-98320595D01*
X73616002Y-98320595D02*
X73539811Y-98320595D01*
X73539811Y-98320595D02*
X73425525Y-98282500D01*
X73425525Y-98282500D02*
X73349335Y-98206309D01*
X73349335Y-98206309D02*
X73311240Y-98130119D01*
X73311240Y-98130119D02*
X73273144Y-97977738D01*
X73273144Y-97977738D02*
X73273144Y-97863452D01*
X73273144Y-97863452D02*
X73311240Y-97711071D01*
X73311240Y-97711071D02*
X73349335Y-97634880D01*
X73349335Y-97634880D02*
X73425525Y-97558690D01*
X73425525Y-97558690D02*
X73539811Y-97520595D01*
X73539811Y-97520595D02*
X73616002Y-97520595D01*
X73616002Y-97520595D02*
X73730287Y-97558690D01*
X73730287Y-97558690D02*
X73768383Y-97596785D01*
X74568383Y-98244404D02*
X74530287Y-98282500D01*
X74530287Y-98282500D02*
X74416002Y-98320595D01*
X74416002Y-98320595D02*
X74339811Y-98320595D01*
X74339811Y-98320595D02*
X74225525Y-98282500D01*
X74225525Y-98282500D02*
X74149335Y-98206309D01*
X74149335Y-98206309D02*
X74111240Y-98130119D01*
X74111240Y-98130119D02*
X74073144Y-97977738D01*
X74073144Y-97977738D02*
X74073144Y-97863452D01*
X74073144Y-97863452D02*
X74111240Y-97711071D01*
X74111240Y-97711071D02*
X74149335Y-97634880D01*
X74149335Y-97634880D02*
X74225525Y-97558690D01*
X74225525Y-97558690D02*
X74339811Y-97520595D01*
X74339811Y-97520595D02*
X74416002Y-97520595D01*
X74416002Y-97520595D02*
X74530287Y-97558690D01*
X74530287Y-97558690D02*
X74568383Y-97596785D01*
X97365334Y-95234500D02*
X97479620Y-95272595D01*
X97479620Y-95272595D02*
X97670096Y-95272595D01*
X97670096Y-95272595D02*
X97746287Y-95234500D01*
X97746287Y-95234500D02*
X97784382Y-95196404D01*
X97784382Y-95196404D02*
X97822477Y-95120214D01*
X97822477Y-95120214D02*
X97822477Y-95044023D01*
X97822477Y-95044023D02*
X97784382Y-94967833D01*
X97784382Y-94967833D02*
X97746287Y-94929738D01*
X97746287Y-94929738D02*
X97670096Y-94891642D01*
X97670096Y-94891642D02*
X97517715Y-94853547D01*
X97517715Y-94853547D02*
X97441525Y-94815452D01*
X97441525Y-94815452D02*
X97403430Y-94777357D01*
X97403430Y-94777357D02*
X97365334Y-94701166D01*
X97365334Y-94701166D02*
X97365334Y-94624976D01*
X97365334Y-94624976D02*
X97403430Y-94548785D01*
X97403430Y-94548785D02*
X97441525Y-94510690D01*
X97441525Y-94510690D02*
X97517715Y-94472595D01*
X97517715Y-94472595D02*
X97708192Y-94472595D01*
X97708192Y-94472595D02*
X97822477Y-94510690D01*
X98089144Y-94472595D02*
X98279620Y-95272595D01*
X98279620Y-95272595D02*
X98432001Y-94701166D01*
X98432001Y-94701166D02*
X98584382Y-95272595D01*
X98584382Y-95272595D02*
X98774859Y-94472595D01*
X99536764Y-95196404D02*
X99498668Y-95234500D01*
X99498668Y-95234500D02*
X99384383Y-95272595D01*
X99384383Y-95272595D02*
X99308192Y-95272595D01*
X99308192Y-95272595D02*
X99193906Y-95234500D01*
X99193906Y-95234500D02*
X99117716Y-95158309D01*
X99117716Y-95158309D02*
X99079621Y-95082119D01*
X99079621Y-95082119D02*
X99041525Y-94929738D01*
X99041525Y-94929738D02*
X99041525Y-94815452D01*
X99041525Y-94815452D02*
X99079621Y-94663071D01*
X99079621Y-94663071D02*
X99117716Y-94586880D01*
X99117716Y-94586880D02*
X99193906Y-94510690D01*
X99193906Y-94510690D02*
X99308192Y-94472595D01*
X99308192Y-94472595D02*
X99384383Y-94472595D01*
X99384383Y-94472595D02*
X99498668Y-94510690D01*
X99498668Y-94510690D02*
X99536764Y-94548785D01*
X100260573Y-95272595D02*
X99879621Y-95272595D01*
X99879621Y-95272595D02*
X99879621Y-94472595D01*
X100527240Y-95272595D02*
X100527240Y-94472595D01*
X100984383Y-95272595D02*
X100641525Y-94815452D01*
X100984383Y-94472595D02*
X100527240Y-94929738D01*
X73806478Y-103197404D02*
X73768382Y-103235500D01*
X73768382Y-103235500D02*
X73654097Y-103273595D01*
X73654097Y-103273595D02*
X73577906Y-103273595D01*
X73577906Y-103273595D02*
X73463620Y-103235500D01*
X73463620Y-103235500D02*
X73387430Y-103159309D01*
X73387430Y-103159309D02*
X73349335Y-103083119D01*
X73349335Y-103083119D02*
X73311239Y-102930738D01*
X73311239Y-102930738D02*
X73311239Y-102816452D01*
X73311239Y-102816452D02*
X73349335Y-102664071D01*
X73349335Y-102664071D02*
X73387430Y-102587880D01*
X73387430Y-102587880D02*
X73463620Y-102511690D01*
X73463620Y-102511690D02*
X73577906Y-102473595D01*
X73577906Y-102473595D02*
X73654097Y-102473595D01*
X73654097Y-102473595D02*
X73768382Y-102511690D01*
X73768382Y-102511690D02*
X73806478Y-102549785D01*
X74111239Y-103235500D02*
X74225525Y-103273595D01*
X74225525Y-103273595D02*
X74416001Y-103273595D01*
X74416001Y-103273595D02*
X74492192Y-103235500D01*
X74492192Y-103235500D02*
X74530287Y-103197404D01*
X74530287Y-103197404D02*
X74568382Y-103121214D01*
X74568382Y-103121214D02*
X74568382Y-103045023D01*
X74568382Y-103045023D02*
X74530287Y-102968833D01*
X74530287Y-102968833D02*
X74492192Y-102930738D01*
X74492192Y-102930738D02*
X74416001Y-102892642D01*
X74416001Y-102892642D02*
X74263620Y-102854547D01*
X74263620Y-102854547D02*
X74187430Y-102816452D01*
X74187430Y-102816452D02*
X74149335Y-102778357D01*
X74149335Y-102778357D02*
X74111239Y-102702166D01*
X74111239Y-102702166D02*
X74111239Y-102625976D01*
X74111239Y-102625976D02*
X74149335Y-102549785D01*
X74149335Y-102549785D02*
X74187430Y-102511690D01*
X74187430Y-102511690D02*
X74263620Y-102473595D01*
X74263620Y-102473595D02*
X74454097Y-102473595D01*
X74454097Y-102473595D02*
X74568382Y-102511690D01*
X99308192Y-99844690D02*
X99232002Y-99806595D01*
X99232002Y-99806595D02*
X99117716Y-99806595D01*
X99117716Y-99806595D02*
X99003430Y-99844690D01*
X99003430Y-99844690D02*
X98927240Y-99920880D01*
X98927240Y-99920880D02*
X98889145Y-99997071D01*
X98889145Y-99997071D02*
X98851049Y-100149452D01*
X98851049Y-100149452D02*
X98851049Y-100263738D01*
X98851049Y-100263738D02*
X98889145Y-100416119D01*
X98889145Y-100416119D02*
X98927240Y-100492309D01*
X98927240Y-100492309D02*
X99003430Y-100568500D01*
X99003430Y-100568500D02*
X99117716Y-100606595D01*
X99117716Y-100606595D02*
X99193907Y-100606595D01*
X99193907Y-100606595D02*
X99308192Y-100568500D01*
X99308192Y-100568500D02*
X99346288Y-100530404D01*
X99346288Y-100530404D02*
X99346288Y-100263738D01*
X99346288Y-100263738D02*
X99193907Y-100263738D01*
X99689145Y-100606595D02*
X99689145Y-99806595D01*
X99689145Y-99806595D02*
X100146288Y-100606595D01*
X100146288Y-100606595D02*
X100146288Y-99806595D01*
X100527240Y-100606595D02*
X100527240Y-99806595D01*
X100527240Y-99806595D02*
X100717716Y-99806595D01*
X100717716Y-99806595D02*
X100832002Y-99844690D01*
X100832002Y-99844690D02*
X100908192Y-99920880D01*
X100908192Y-99920880D02*
X100946287Y-99997071D01*
X100946287Y-99997071D02*
X100984383Y-100149452D01*
X100984383Y-100149452D02*
X100984383Y-100263738D01*
X100984383Y-100263738D02*
X100946287Y-100416119D01*
X100946287Y-100416119D02*
X100908192Y-100492309D01*
X100908192Y-100492309D02*
X100832002Y-100568500D01*
X100832002Y-100568500D02*
X100717716Y-100606595D01*
X100717716Y-100606595D02*
X100527240Y-100606595D01*
X99041525Y-102346595D02*
X99536763Y-102346595D01*
X99536763Y-102346595D02*
X99270097Y-102651357D01*
X99270097Y-102651357D02*
X99384382Y-102651357D01*
X99384382Y-102651357D02*
X99460573Y-102689452D01*
X99460573Y-102689452D02*
X99498668Y-102727547D01*
X99498668Y-102727547D02*
X99536763Y-102803738D01*
X99536763Y-102803738D02*
X99536763Y-102994214D01*
X99536763Y-102994214D02*
X99498668Y-103070404D01*
X99498668Y-103070404D02*
X99460573Y-103108500D01*
X99460573Y-103108500D02*
X99384382Y-103146595D01*
X99384382Y-103146595D02*
X99155811Y-103146595D01*
X99155811Y-103146595D02*
X99079620Y-103108500D01*
X99079620Y-103108500D02*
X99041525Y-103070404D01*
X99765335Y-102346595D02*
X100032002Y-103146595D01*
X100032002Y-103146595D02*
X100298668Y-102346595D01*
X100489144Y-102346595D02*
X100984382Y-102346595D01*
X100984382Y-102346595D02*
X100717716Y-102651357D01*
X100717716Y-102651357D02*
X100832001Y-102651357D01*
X100832001Y-102651357D02*
X100908192Y-102689452D01*
X100908192Y-102689452D02*
X100946287Y-102727547D01*
X100946287Y-102727547D02*
X100984382Y-102803738D01*
X100984382Y-102803738D02*
X100984382Y-102994214D01*
X100984382Y-102994214D02*
X100946287Y-103070404D01*
X100946287Y-103070404D02*
X100908192Y-103108500D01*
X100908192Y-103108500D02*
X100832001Y-103146595D01*
X100832001Y-103146595D02*
X100603430Y-103146595D01*
X100603430Y-103146595D02*
X100527239Y-103108500D01*
X100527239Y-103108500D02*
X100489144Y-103070404D01*
D11*
X123243819Y-96426808D02*
X124053342Y-96426808D01*
X124053342Y-96426808D02*
X124148580Y-96379189D01*
X124148580Y-96379189D02*
X124196200Y-96331570D01*
X124196200Y-96331570D02*
X124243819Y-96236332D01*
X124243819Y-96236332D02*
X124243819Y-96045856D01*
X124243819Y-96045856D02*
X124196200Y-95950618D01*
X124196200Y-95950618D02*
X124148580Y-95902999D01*
X124148580Y-95902999D02*
X124053342Y-95855380D01*
X124053342Y-95855380D02*
X123243819Y-95855380D01*
X124243819Y-95379189D02*
X123243819Y-95379189D01*
X123243819Y-95379189D02*
X123243819Y-94998237D01*
X123243819Y-94998237D02*
X123291438Y-94902999D01*
X123291438Y-94902999D02*
X123339057Y-94855380D01*
X123339057Y-94855380D02*
X123434295Y-94807761D01*
X123434295Y-94807761D02*
X123577152Y-94807761D01*
X123577152Y-94807761D02*
X123672390Y-94855380D01*
X123672390Y-94855380D02*
X123720009Y-94902999D01*
X123720009Y-94902999D02*
X123767628Y-94998237D01*
X123767628Y-94998237D02*
X123767628Y-95379189D01*
X124243819Y-94379189D02*
X123243819Y-94379189D01*
X123243819Y-94379189D02*
X123243819Y-94141094D01*
X123243819Y-94141094D02*
X123291438Y-93998237D01*
X123291438Y-93998237D02*
X123386676Y-93902999D01*
X123386676Y-93902999D02*
X123481914Y-93855380D01*
X123481914Y-93855380D02*
X123672390Y-93807761D01*
X123672390Y-93807761D02*
X123815247Y-93807761D01*
X123815247Y-93807761D02*
X124005723Y-93855380D01*
X124005723Y-93855380D02*
X124100961Y-93902999D01*
X124100961Y-93902999D02*
X124196200Y-93998237D01*
X124196200Y-93998237D02*
X124243819Y-94141094D01*
X124243819Y-94141094D02*
X124243819Y-94379189D01*
X124243819Y-93379189D02*
X123243819Y-93379189D01*
X150123030Y-85994650D02*
X149646761Y-86328038D01*
X150123030Y-86566173D02*
X149122865Y-86566173D01*
X149122865Y-86566173D02*
X149122865Y-86185158D01*
X149122865Y-86185158D02*
X149170492Y-86089904D01*
X149170492Y-86089904D02*
X149218119Y-86042277D01*
X149218119Y-86042277D02*
X149313373Y-85994650D01*
X149313373Y-85994650D02*
X149456254Y-85994650D01*
X149456254Y-85994650D02*
X149551508Y-86042277D01*
X149551508Y-86042277D02*
X149599134Y-86089904D01*
X149599134Y-86089904D02*
X149646761Y-86185158D01*
X149646761Y-86185158D02*
X149646761Y-86566173D01*
X149122865Y-85708889D02*
X150123030Y-85375500D01*
X150123030Y-85375500D02*
X149122865Y-85042112D01*
X150123030Y-84184828D02*
X150123030Y-84756351D01*
X150123030Y-84470589D02*
X149122865Y-84470589D01*
X149122865Y-84470589D02*
X149265746Y-84565843D01*
X149265746Y-84565843D02*
X149361000Y-84661097D01*
X149361000Y-84661097D02*
X149408627Y-84756351D01*
X93516571Y-93782819D02*
X93183238Y-93306628D01*
X92945143Y-93782819D02*
X92945143Y-92782819D01*
X92945143Y-92782819D02*
X93326095Y-92782819D01*
X93326095Y-92782819D02*
X93421333Y-92830438D01*
X93421333Y-92830438D02*
X93468952Y-92878057D01*
X93468952Y-92878057D02*
X93516571Y-92973295D01*
X93516571Y-92973295D02*
X93516571Y-93116152D01*
X93516571Y-93116152D02*
X93468952Y-93211390D01*
X93468952Y-93211390D02*
X93421333Y-93259009D01*
X93421333Y-93259009D02*
X93326095Y-93306628D01*
X93326095Y-93306628D02*
X92945143Y-93306628D01*
X93849905Y-93116152D02*
X94373714Y-93116152D01*
X94373714Y-93116152D02*
X93849905Y-93782819D01*
X93849905Y-93782819D02*
X94373714Y-93782819D01*
X94659429Y-92782819D02*
X95278476Y-92782819D01*
X95278476Y-92782819D02*
X94945143Y-93163771D01*
X94945143Y-93163771D02*
X95088000Y-93163771D01*
X95088000Y-93163771D02*
X95183238Y-93211390D01*
X95183238Y-93211390D02*
X95230857Y-93259009D01*
X95230857Y-93259009D02*
X95278476Y-93354247D01*
X95278476Y-93354247D02*
X95278476Y-93592342D01*
X95278476Y-93592342D02*
X95230857Y-93687580D01*
X95230857Y-93687580D02*
X95183238Y-93735200D01*
X95183238Y-93735200D02*
X95088000Y-93782819D01*
X95088000Y-93782819D02*
X94802286Y-93782819D01*
X94802286Y-93782819D02*
X94707048Y-93735200D01*
X94707048Y-93735200D02*
X94659429Y-93687580D01*
X73677000Y-85820819D02*
X73677000Y-84820819D01*
X73677000Y-84820819D02*
X73915095Y-84820819D01*
X73915095Y-84820819D02*
X74057952Y-84868438D01*
X74057952Y-84868438D02*
X74153190Y-84963676D01*
X74153190Y-84963676D02*
X74200809Y-85058914D01*
X74200809Y-85058914D02*
X74248428Y-85249390D01*
X74248428Y-85249390D02*
X74248428Y-85392247D01*
X74248428Y-85392247D02*
X74200809Y-85582723D01*
X74200809Y-85582723D02*
X74153190Y-85677961D01*
X74153190Y-85677961D02*
X74057952Y-85773200D01*
X74057952Y-85773200D02*
X73915095Y-85820819D01*
X73915095Y-85820819D02*
X73677000Y-85820819D01*
X74629381Y-85535104D02*
X75105571Y-85535104D01*
X74534143Y-85820819D02*
X74867476Y-84820819D01*
X74867476Y-84820819D02*
X75200809Y-85820819D01*
X76105571Y-85725580D02*
X76057952Y-85773200D01*
X76057952Y-85773200D02*
X75915095Y-85820819D01*
X75915095Y-85820819D02*
X75819857Y-85820819D01*
X75819857Y-85820819D02*
X75677000Y-85773200D01*
X75677000Y-85773200D02*
X75581762Y-85677961D01*
X75581762Y-85677961D02*
X75534143Y-85582723D01*
X75534143Y-85582723D02*
X75486524Y-85392247D01*
X75486524Y-85392247D02*
X75486524Y-85249390D01*
X75486524Y-85249390D02*
X75534143Y-85058914D01*
X75534143Y-85058914D02*
X75581762Y-84963676D01*
X75581762Y-84963676D02*
X75677000Y-84868438D01*
X75677000Y-84868438D02*
X75819857Y-84820819D01*
X75819857Y-84820819D02*
X75915095Y-84820819D01*
X75915095Y-84820819D02*
X76057952Y-84868438D01*
X76057952Y-84868438D02*
X76105571Y-84916057D01*
X76296048Y-85916057D02*
X77057952Y-85916057D01*
X77486524Y-84820819D02*
X77677000Y-84820819D01*
X77677000Y-84820819D02*
X77772238Y-84868438D01*
X77772238Y-84868438D02*
X77867476Y-84963676D01*
X77867476Y-84963676D02*
X77915095Y-85154152D01*
X77915095Y-85154152D02*
X77915095Y-85487485D01*
X77915095Y-85487485D02*
X77867476Y-85677961D01*
X77867476Y-85677961D02*
X77772238Y-85773200D01*
X77772238Y-85773200D02*
X77677000Y-85820819D01*
X77677000Y-85820819D02*
X77486524Y-85820819D01*
X77486524Y-85820819D02*
X77391286Y-85773200D01*
X77391286Y-85773200D02*
X77296048Y-85677961D01*
X77296048Y-85677961D02*
X77248429Y-85487485D01*
X77248429Y-85487485D02*
X77248429Y-85154152D01*
X77248429Y-85154152D02*
X77296048Y-84963676D01*
X77296048Y-84963676D02*
X77391286Y-84868438D01*
X77391286Y-84868438D02*
X77486524Y-84820819D01*
X78343667Y-84820819D02*
X78343667Y-85630342D01*
X78343667Y-85630342D02*
X78391286Y-85725580D01*
X78391286Y-85725580D02*
X78438905Y-85773200D01*
X78438905Y-85773200D02*
X78534143Y-85820819D01*
X78534143Y-85820819D02*
X78724619Y-85820819D01*
X78724619Y-85820819D02*
X78819857Y-85773200D01*
X78819857Y-85773200D02*
X78867476Y-85725580D01*
X78867476Y-85725580D02*
X78915095Y-85630342D01*
X78915095Y-85630342D02*
X78915095Y-84820819D01*
X79248429Y-84820819D02*
X79819857Y-84820819D01*
X79534143Y-85820819D02*
X79534143Y-84820819D01*
X162486819Y-98158904D02*
X162486819Y-97587476D01*
X163486819Y-97873190D02*
X162486819Y-97873190D01*
X163391580Y-96682714D02*
X163439200Y-96730333D01*
X163439200Y-96730333D02*
X163486819Y-96873190D01*
X163486819Y-96873190D02*
X163486819Y-96968428D01*
X163486819Y-96968428D02*
X163439200Y-97111285D01*
X163439200Y-97111285D02*
X163343961Y-97206523D01*
X163343961Y-97206523D02*
X163248723Y-97254142D01*
X163248723Y-97254142D02*
X163058247Y-97301761D01*
X163058247Y-97301761D02*
X162915390Y-97301761D01*
X162915390Y-97301761D02*
X162724914Y-97254142D01*
X162724914Y-97254142D02*
X162629676Y-97206523D01*
X162629676Y-97206523D02*
X162534438Y-97111285D01*
X162534438Y-97111285D02*
X162486819Y-96968428D01*
X162486819Y-96968428D02*
X162486819Y-96873190D01*
X162486819Y-96873190D02*
X162534438Y-96730333D01*
X162534438Y-96730333D02*
X162582057Y-96682714D01*
X163486819Y-95730333D02*
X163486819Y-96301761D01*
X163486819Y-96016047D02*
X162486819Y-96016047D01*
X162486819Y-96016047D02*
X162629676Y-96111285D01*
X162629676Y-96111285D02*
X162724914Y-96206523D01*
X162724914Y-96206523D02*
X162772533Y-96301761D01*
X92043095Y-95807819D02*
X92043095Y-96617342D01*
X92043095Y-96617342D02*
X92090714Y-96712580D01*
X92090714Y-96712580D02*
X92138333Y-96760200D01*
X92138333Y-96760200D02*
X92233571Y-96807819D01*
X92233571Y-96807819D02*
X92424047Y-96807819D01*
X92424047Y-96807819D02*
X92519285Y-96760200D01*
X92519285Y-96760200D02*
X92566904Y-96712580D01*
X92566904Y-96712580D02*
X92614523Y-96617342D01*
X92614523Y-96617342D02*
X92614523Y-95807819D01*
X93614523Y-96807819D02*
X93043095Y-96807819D01*
X93328809Y-96807819D02*
X93328809Y-95807819D01*
X93328809Y-95807819D02*
X93233571Y-95950676D01*
X93233571Y-95950676D02*
X93138333Y-96045914D01*
X93138333Y-96045914D02*
X93043095Y-96093533D01*
X102560761Y-88604057D02*
X102465523Y-88556438D01*
X102465523Y-88556438D02*
X102370285Y-88461200D01*
X102370285Y-88461200D02*
X102227428Y-88318342D01*
X102227428Y-88318342D02*
X102132190Y-88270723D01*
X102132190Y-88270723D02*
X102036952Y-88270723D01*
X102084571Y-88508819D02*
X101989333Y-88461200D01*
X101989333Y-88461200D02*
X101894095Y-88365961D01*
X101894095Y-88365961D02*
X101846476Y-88175485D01*
X101846476Y-88175485D02*
X101846476Y-87842152D01*
X101846476Y-87842152D02*
X101894095Y-87651676D01*
X101894095Y-87651676D02*
X101989333Y-87556438D01*
X101989333Y-87556438D02*
X102084571Y-87508819D01*
X102084571Y-87508819D02*
X102275047Y-87508819D01*
X102275047Y-87508819D02*
X102370285Y-87556438D01*
X102370285Y-87556438D02*
X102465523Y-87651676D01*
X102465523Y-87651676D02*
X102513142Y-87842152D01*
X102513142Y-87842152D02*
X102513142Y-88175485D01*
X102513142Y-88175485D02*
X102465523Y-88365961D01*
X102465523Y-88365961D02*
X102370285Y-88461200D01*
X102370285Y-88461200D02*
X102275047Y-88508819D01*
X102275047Y-88508819D02*
X102084571Y-88508819D01*
X103465523Y-88508819D02*
X102894095Y-88508819D01*
X103179809Y-88508819D02*
X103179809Y-87508819D01*
X103179809Y-87508819D02*
X103084571Y-87651676D01*
X103084571Y-87651676D02*
X102989333Y-87746914D01*
X102989333Y-87746914D02*
X102894095Y-87794533D01*
X126873095Y-101362819D02*
X126873095Y-102172342D01*
X126873095Y-102172342D02*
X126920714Y-102267580D01*
X126920714Y-102267580D02*
X126968333Y-102315200D01*
X126968333Y-102315200D02*
X127063571Y-102362819D01*
X127063571Y-102362819D02*
X127254047Y-102362819D01*
X127254047Y-102362819D02*
X127349285Y-102315200D01*
X127349285Y-102315200D02*
X127396904Y-102267580D01*
X127396904Y-102267580D02*
X127444523Y-102172342D01*
X127444523Y-102172342D02*
X127444523Y-101362819D01*
X127873095Y-101458057D02*
X127920714Y-101410438D01*
X127920714Y-101410438D02*
X128015952Y-101362819D01*
X128015952Y-101362819D02*
X128254047Y-101362819D01*
X128254047Y-101362819D02*
X128349285Y-101410438D01*
X128349285Y-101410438D02*
X128396904Y-101458057D01*
X128396904Y-101458057D02*
X128444523Y-101553295D01*
X128444523Y-101553295D02*
X128444523Y-101648533D01*
X128444523Y-101648533D02*
X128396904Y-101791390D01*
X128396904Y-101791390D02*
X127825476Y-102362819D01*
X127825476Y-102362819D02*
X128444523Y-102362819D01*
D12*
X133924047Y-97626109D02*
X133924047Y-98030871D01*
X133924047Y-98030871D02*
X133947857Y-98078490D01*
X133947857Y-98078490D02*
X133971666Y-98102300D01*
X133971666Y-98102300D02*
X134019285Y-98126109D01*
X134019285Y-98126109D02*
X134114523Y-98126109D01*
X134114523Y-98126109D02*
X134162142Y-98102300D01*
X134162142Y-98102300D02*
X134185952Y-98078490D01*
X134185952Y-98078490D02*
X134209761Y-98030871D01*
X134209761Y-98030871D02*
X134209761Y-97626109D01*
X134519286Y-97840395D02*
X134471667Y-97816585D01*
X134471667Y-97816585D02*
X134447857Y-97792776D01*
X134447857Y-97792776D02*
X134424048Y-97745157D01*
X134424048Y-97745157D02*
X134424048Y-97721347D01*
X134424048Y-97721347D02*
X134447857Y-97673728D01*
X134447857Y-97673728D02*
X134471667Y-97649919D01*
X134471667Y-97649919D02*
X134519286Y-97626109D01*
X134519286Y-97626109D02*
X134614524Y-97626109D01*
X134614524Y-97626109D02*
X134662143Y-97649919D01*
X134662143Y-97649919D02*
X134685952Y-97673728D01*
X134685952Y-97673728D02*
X134709762Y-97721347D01*
X134709762Y-97721347D02*
X134709762Y-97745157D01*
X134709762Y-97745157D02*
X134685952Y-97792776D01*
X134685952Y-97792776D02*
X134662143Y-97816585D01*
X134662143Y-97816585D02*
X134614524Y-97840395D01*
X134614524Y-97840395D02*
X134519286Y-97840395D01*
X134519286Y-97840395D02*
X134471667Y-97864204D01*
X134471667Y-97864204D02*
X134447857Y-97888014D01*
X134447857Y-97888014D02*
X134424048Y-97935633D01*
X134424048Y-97935633D02*
X134424048Y-98030871D01*
X134424048Y-98030871D02*
X134447857Y-98078490D01*
X134447857Y-98078490D02*
X134471667Y-98102300D01*
X134471667Y-98102300D02*
X134519286Y-98126109D01*
X134519286Y-98126109D02*
X134614524Y-98126109D01*
X134614524Y-98126109D02*
X134662143Y-98102300D01*
X134662143Y-98102300D02*
X134685952Y-98078490D01*
X134685952Y-98078490D02*
X134709762Y-98030871D01*
X134709762Y-98030871D02*
X134709762Y-97935633D01*
X134709762Y-97935633D02*
X134685952Y-97888014D01*
X134685952Y-97888014D02*
X134662143Y-97864204D01*
X134662143Y-97864204D02*
X134614524Y-97840395D01*
D11*
X152892142Y-107985819D02*
X152558809Y-107509628D01*
X152320714Y-107985819D02*
X152320714Y-106985819D01*
X152320714Y-106985819D02*
X152701666Y-106985819D01*
X152701666Y-106985819D02*
X152796904Y-107033438D01*
X152796904Y-107033438D02*
X152844523Y-107081057D01*
X152844523Y-107081057D02*
X152892142Y-107176295D01*
X152892142Y-107176295D02*
X152892142Y-107319152D01*
X152892142Y-107319152D02*
X152844523Y-107414390D01*
X152844523Y-107414390D02*
X152796904Y-107462009D01*
X152796904Y-107462009D02*
X152701666Y-107509628D01*
X152701666Y-107509628D02*
X152320714Y-107509628D01*
X153273095Y-107081057D02*
X153320714Y-107033438D01*
X153320714Y-107033438D02*
X153415952Y-106985819D01*
X153415952Y-106985819D02*
X153654047Y-106985819D01*
X153654047Y-106985819D02*
X153749285Y-107033438D01*
X153749285Y-107033438D02*
X153796904Y-107081057D01*
X153796904Y-107081057D02*
X153844523Y-107176295D01*
X153844523Y-107176295D02*
X153844523Y-107271533D01*
X153844523Y-107271533D02*
X153796904Y-107414390D01*
X153796904Y-107414390D02*
X153225476Y-107985819D01*
X153225476Y-107985819D02*
X153844523Y-107985819D01*
X154225476Y-107081057D02*
X154273095Y-107033438D01*
X154273095Y-107033438D02*
X154368333Y-106985819D01*
X154368333Y-106985819D02*
X154606428Y-106985819D01*
X154606428Y-106985819D02*
X154701666Y-107033438D01*
X154701666Y-107033438D02*
X154749285Y-107081057D01*
X154749285Y-107081057D02*
X154796904Y-107176295D01*
X154796904Y-107176295D02*
X154796904Y-107271533D01*
X154796904Y-107271533D02*
X154749285Y-107414390D01*
X154749285Y-107414390D02*
X154177857Y-107985819D01*
X154177857Y-107985819D02*
X154796904Y-107985819D01*
X82568819Y-86695904D02*
X83378342Y-86695904D01*
X83378342Y-86695904D02*
X83473580Y-86648285D01*
X83473580Y-86648285D02*
X83521200Y-86600666D01*
X83521200Y-86600666D02*
X83568819Y-86505428D01*
X83568819Y-86505428D02*
X83568819Y-86314952D01*
X83568819Y-86314952D02*
X83521200Y-86219714D01*
X83521200Y-86219714D02*
X83473580Y-86172095D01*
X83473580Y-86172095D02*
X83378342Y-86124476D01*
X83378342Y-86124476D02*
X82568819Y-86124476D01*
X82902152Y-85219714D02*
X83568819Y-85219714D01*
X82521200Y-85457809D02*
X83235485Y-85695904D01*
X83235485Y-85695904D02*
X83235485Y-85076857D01*
X107376142Y-109389819D02*
X107042809Y-108913628D01*
X106804714Y-109389819D02*
X106804714Y-108389819D01*
X106804714Y-108389819D02*
X107185666Y-108389819D01*
X107185666Y-108389819D02*
X107280904Y-108437438D01*
X107280904Y-108437438D02*
X107328523Y-108485057D01*
X107328523Y-108485057D02*
X107376142Y-108580295D01*
X107376142Y-108580295D02*
X107376142Y-108723152D01*
X107376142Y-108723152D02*
X107328523Y-108818390D01*
X107328523Y-108818390D02*
X107280904Y-108866009D01*
X107280904Y-108866009D02*
X107185666Y-108913628D01*
X107185666Y-108913628D02*
X106804714Y-108913628D01*
X107709476Y-108389819D02*
X108376142Y-109389819D01*
X108376142Y-108389819D02*
X107709476Y-109389819D01*
X109280904Y-109389819D02*
X108709476Y-109389819D01*
X108995190Y-109389819D02*
X108995190Y-108389819D01*
X108995190Y-108389819D02*
X108899952Y-108532676D01*
X108899952Y-108532676D02*
X108804714Y-108627914D01*
X108804714Y-108627914D02*
X108709476Y-108675533D01*
X101481857Y-93120200D02*
X101624714Y-93167819D01*
X101624714Y-93167819D02*
X101862809Y-93167819D01*
X101862809Y-93167819D02*
X101958047Y-93120200D01*
X101958047Y-93120200D02*
X102005666Y-93072580D01*
X102005666Y-93072580D02*
X102053285Y-92977342D01*
X102053285Y-92977342D02*
X102053285Y-92882104D01*
X102053285Y-92882104D02*
X102005666Y-92786866D01*
X102005666Y-92786866D02*
X101958047Y-92739247D01*
X101958047Y-92739247D02*
X101862809Y-92691628D01*
X101862809Y-92691628D02*
X101672333Y-92644009D01*
X101672333Y-92644009D02*
X101577095Y-92596390D01*
X101577095Y-92596390D02*
X101529476Y-92548771D01*
X101529476Y-92548771D02*
X101481857Y-92453533D01*
X101481857Y-92453533D02*
X101481857Y-92358295D01*
X101481857Y-92358295D02*
X101529476Y-92263057D01*
X101529476Y-92263057D02*
X101577095Y-92215438D01*
X101577095Y-92215438D02*
X101672333Y-92167819D01*
X101672333Y-92167819D02*
X101910428Y-92167819D01*
X101910428Y-92167819D02*
X102053285Y-92215438D01*
X102386619Y-92167819D02*
X102624714Y-93167819D01*
X102624714Y-93167819D02*
X102815190Y-92453533D01*
X102815190Y-92453533D02*
X103005666Y-93167819D01*
X103005666Y-93167819D02*
X103243762Y-92167819D01*
X103624714Y-93167819D02*
X103624714Y-92167819D01*
X103624714Y-92167819D02*
X103862809Y-92167819D01*
X103862809Y-92167819D02*
X104005666Y-92215438D01*
X104005666Y-92215438D02*
X104100904Y-92310676D01*
X104100904Y-92310676D02*
X104148523Y-92405914D01*
X104148523Y-92405914D02*
X104196142Y-92596390D01*
X104196142Y-92596390D02*
X104196142Y-92739247D01*
X104196142Y-92739247D02*
X104148523Y-92929723D01*
X104148523Y-92929723D02*
X104100904Y-93024961D01*
X104100904Y-93024961D02*
X104005666Y-93120200D01*
X104005666Y-93120200D02*
X103862809Y-93167819D01*
X103862809Y-93167819D02*
X103624714Y-93167819D01*
X75575191Y-95494200D02*
X75718048Y-95541819D01*
X75718048Y-95541819D02*
X75956143Y-95541819D01*
X75956143Y-95541819D02*
X76051381Y-95494200D01*
X76051381Y-95494200D02*
X76099000Y-95446580D01*
X76099000Y-95446580D02*
X76146619Y-95351342D01*
X76146619Y-95351342D02*
X76146619Y-95256104D01*
X76146619Y-95256104D02*
X76099000Y-95160866D01*
X76099000Y-95160866D02*
X76051381Y-95113247D01*
X76051381Y-95113247D02*
X75956143Y-95065628D01*
X75956143Y-95065628D02*
X75765667Y-95018009D01*
X75765667Y-95018009D02*
X75670429Y-94970390D01*
X75670429Y-94970390D02*
X75622810Y-94922771D01*
X75622810Y-94922771D02*
X75575191Y-94827533D01*
X75575191Y-94827533D02*
X75575191Y-94732295D01*
X75575191Y-94732295D02*
X75622810Y-94637057D01*
X75622810Y-94637057D02*
X75670429Y-94589438D01*
X75670429Y-94589438D02*
X75765667Y-94541819D01*
X75765667Y-94541819D02*
X76003762Y-94541819D01*
X76003762Y-94541819D02*
X76146619Y-94589438D01*
X76575191Y-95541819D02*
X76575191Y-94541819D01*
X76575191Y-94541819D02*
X76956143Y-94541819D01*
X76956143Y-94541819D02*
X77051381Y-94589438D01*
X77051381Y-94589438D02*
X77099000Y-94637057D01*
X77099000Y-94637057D02*
X77146619Y-94732295D01*
X77146619Y-94732295D02*
X77146619Y-94875152D01*
X77146619Y-94875152D02*
X77099000Y-94970390D01*
X77099000Y-94970390D02*
X77051381Y-95018009D01*
X77051381Y-95018009D02*
X76956143Y-95065628D01*
X76956143Y-95065628D02*
X76575191Y-95065628D01*
X77575191Y-95541819D02*
X77575191Y-94541819D01*
X88715580Y-86139666D02*
X88763200Y-86187285D01*
X88763200Y-86187285D02*
X88810819Y-86330142D01*
X88810819Y-86330142D02*
X88810819Y-86425380D01*
X88810819Y-86425380D02*
X88763200Y-86568237D01*
X88763200Y-86568237D02*
X88667961Y-86663475D01*
X88667961Y-86663475D02*
X88572723Y-86711094D01*
X88572723Y-86711094D02*
X88382247Y-86758713D01*
X88382247Y-86758713D02*
X88239390Y-86758713D01*
X88239390Y-86758713D02*
X88048914Y-86711094D01*
X88048914Y-86711094D02*
X87953676Y-86663475D01*
X87953676Y-86663475D02*
X87858438Y-86568237D01*
X87858438Y-86568237D02*
X87810819Y-86425380D01*
X87810819Y-86425380D02*
X87810819Y-86330142D01*
X87810819Y-86330142D02*
X87858438Y-86187285D01*
X87858438Y-86187285D02*
X87906057Y-86139666D01*
X87906057Y-85758713D02*
X87858438Y-85711094D01*
X87858438Y-85711094D02*
X87810819Y-85615856D01*
X87810819Y-85615856D02*
X87810819Y-85377761D01*
X87810819Y-85377761D02*
X87858438Y-85282523D01*
X87858438Y-85282523D02*
X87906057Y-85234904D01*
X87906057Y-85234904D02*
X88001295Y-85187285D01*
X88001295Y-85187285D02*
X88096533Y-85187285D01*
X88096533Y-85187285D02*
X88239390Y-85234904D01*
X88239390Y-85234904D02*
X88810819Y-85806332D01*
X88810819Y-85806332D02*
X88810819Y-85187285D01*
X135425095Y-89518819D02*
X135425095Y-90328342D01*
X135425095Y-90328342D02*
X135472714Y-90423580D01*
X135472714Y-90423580D02*
X135520333Y-90471200D01*
X135520333Y-90471200D02*
X135615571Y-90518819D01*
X135615571Y-90518819D02*
X135806047Y-90518819D01*
X135806047Y-90518819D02*
X135901285Y-90471200D01*
X135901285Y-90471200D02*
X135948904Y-90423580D01*
X135948904Y-90423580D02*
X135996523Y-90328342D01*
X135996523Y-90328342D02*
X135996523Y-89518819D01*
X136948904Y-89518819D02*
X136472714Y-89518819D01*
X136472714Y-89518819D02*
X136425095Y-89995009D01*
X136425095Y-89995009D02*
X136472714Y-89947390D01*
X136472714Y-89947390D02*
X136567952Y-89899771D01*
X136567952Y-89899771D02*
X136806047Y-89899771D01*
X136806047Y-89899771D02*
X136901285Y-89947390D01*
X136901285Y-89947390D02*
X136948904Y-89995009D01*
X136948904Y-89995009D02*
X136996523Y-90090247D01*
X136996523Y-90090247D02*
X136996523Y-90328342D01*
X136996523Y-90328342D02*
X136948904Y-90423580D01*
X136948904Y-90423580D02*
X136901285Y-90471200D01*
X136901285Y-90471200D02*
X136806047Y-90518819D01*
X136806047Y-90518819D02*
X136567952Y-90518819D01*
X136567952Y-90518819D02*
X136472714Y-90471200D01*
X136472714Y-90471200D02*
X136425095Y-90423580D01*
X136868095Y-95787819D02*
X136868095Y-96597342D01*
X136868095Y-96597342D02*
X136915714Y-96692580D01*
X136915714Y-96692580D02*
X136963333Y-96740200D01*
X136963333Y-96740200D02*
X137058571Y-96787819D01*
X137058571Y-96787819D02*
X137249047Y-96787819D01*
X137249047Y-96787819D02*
X137344285Y-96740200D01*
X137344285Y-96740200D02*
X137391904Y-96692580D01*
X137391904Y-96692580D02*
X137439523Y-96597342D01*
X137439523Y-96597342D02*
X137439523Y-95787819D01*
X138344285Y-95787819D02*
X138153809Y-95787819D01*
X138153809Y-95787819D02*
X138058571Y-95835438D01*
X138058571Y-95835438D02*
X138010952Y-95883057D01*
X138010952Y-95883057D02*
X137915714Y-96025914D01*
X137915714Y-96025914D02*
X137868095Y-96216390D01*
X137868095Y-96216390D02*
X137868095Y-96597342D01*
X137868095Y-96597342D02*
X137915714Y-96692580D01*
X137915714Y-96692580D02*
X137963333Y-96740200D01*
X137963333Y-96740200D02*
X138058571Y-96787819D01*
X138058571Y-96787819D02*
X138249047Y-96787819D01*
X138249047Y-96787819D02*
X138344285Y-96740200D01*
X138344285Y-96740200D02*
X138391904Y-96692580D01*
X138391904Y-96692580D02*
X138439523Y-96597342D01*
X138439523Y-96597342D02*
X138439523Y-96359247D01*
X138439523Y-96359247D02*
X138391904Y-96264009D01*
X138391904Y-96264009D02*
X138344285Y-96216390D01*
X138344285Y-96216390D02*
X138249047Y-96168771D01*
X138249047Y-96168771D02*
X138058571Y-96168771D01*
X138058571Y-96168771D02*
X137963333Y-96216390D01*
X137963333Y-96216390D02*
X137915714Y-96264009D01*
X137915714Y-96264009D02*
X137868095Y-96359247D01*
X142139819Y-87601666D02*
X141663628Y-87934999D01*
X142139819Y-88173094D02*
X141139819Y-88173094D01*
X141139819Y-88173094D02*
X141139819Y-87792142D01*
X141139819Y-87792142D02*
X141187438Y-87696904D01*
X141187438Y-87696904D02*
X141235057Y-87649285D01*
X141235057Y-87649285D02*
X141330295Y-87601666D01*
X141330295Y-87601666D02*
X141473152Y-87601666D01*
X141473152Y-87601666D02*
X141568390Y-87649285D01*
X141568390Y-87649285D02*
X141616009Y-87696904D01*
X141616009Y-87696904D02*
X141663628Y-87792142D01*
X141663628Y-87792142D02*
X141663628Y-88173094D01*
X141139819Y-87268332D02*
X141139819Y-86601666D01*
X141139819Y-86601666D02*
X142139819Y-87030237D01*
X148905333Y-90977819D02*
X148572000Y-90501628D01*
X148333905Y-90977819D02*
X148333905Y-89977819D01*
X148333905Y-89977819D02*
X148714857Y-89977819D01*
X148714857Y-89977819D02*
X148810095Y-90025438D01*
X148810095Y-90025438D02*
X148857714Y-90073057D01*
X148857714Y-90073057D02*
X148905333Y-90168295D01*
X148905333Y-90168295D02*
X148905333Y-90311152D01*
X148905333Y-90311152D02*
X148857714Y-90406390D01*
X148857714Y-90406390D02*
X148810095Y-90454009D01*
X148810095Y-90454009D02*
X148714857Y-90501628D01*
X148714857Y-90501628D02*
X148333905Y-90501628D01*
X149762476Y-89977819D02*
X149572000Y-89977819D01*
X149572000Y-89977819D02*
X149476762Y-90025438D01*
X149476762Y-90025438D02*
X149429143Y-90073057D01*
X149429143Y-90073057D02*
X149333905Y-90215914D01*
X149333905Y-90215914D02*
X149286286Y-90406390D01*
X149286286Y-90406390D02*
X149286286Y-90787342D01*
X149286286Y-90787342D02*
X149333905Y-90882580D01*
X149333905Y-90882580D02*
X149381524Y-90930200D01*
X149381524Y-90930200D02*
X149476762Y-90977819D01*
X149476762Y-90977819D02*
X149667238Y-90977819D01*
X149667238Y-90977819D02*
X149762476Y-90930200D01*
X149762476Y-90930200D02*
X149810095Y-90882580D01*
X149810095Y-90882580D02*
X149857714Y-90787342D01*
X149857714Y-90787342D02*
X149857714Y-90549247D01*
X149857714Y-90549247D02*
X149810095Y-90454009D01*
X149810095Y-90454009D02*
X149762476Y-90406390D01*
X149762476Y-90406390D02*
X149667238Y-90358771D01*
X149667238Y-90358771D02*
X149476762Y-90358771D01*
X149476762Y-90358771D02*
X149381524Y-90406390D01*
X149381524Y-90406390D02*
X149333905Y-90454009D01*
X149333905Y-90454009D02*
X149286286Y-90549247D01*
X98553333Y-88806819D02*
X98220000Y-88330628D01*
X97981905Y-88806819D02*
X97981905Y-87806819D01*
X97981905Y-87806819D02*
X98362857Y-87806819D01*
X98362857Y-87806819D02*
X98458095Y-87854438D01*
X98458095Y-87854438D02*
X98505714Y-87902057D01*
X98505714Y-87902057D02*
X98553333Y-87997295D01*
X98553333Y-87997295D02*
X98553333Y-88140152D01*
X98553333Y-88140152D02*
X98505714Y-88235390D01*
X98505714Y-88235390D02*
X98458095Y-88283009D01*
X98458095Y-88283009D02*
X98362857Y-88330628D01*
X98362857Y-88330628D02*
X97981905Y-88330628D01*
X98934286Y-87902057D02*
X98981905Y-87854438D01*
X98981905Y-87854438D02*
X99077143Y-87806819D01*
X99077143Y-87806819D02*
X99315238Y-87806819D01*
X99315238Y-87806819D02*
X99410476Y-87854438D01*
X99410476Y-87854438D02*
X99458095Y-87902057D01*
X99458095Y-87902057D02*
X99505714Y-87997295D01*
X99505714Y-87997295D02*
X99505714Y-88092533D01*
X99505714Y-88092533D02*
X99458095Y-88235390D01*
X99458095Y-88235390D02*
X98886667Y-88806819D01*
X98886667Y-88806819D02*
X99505714Y-88806819D01*
X156291905Y-95349819D02*
X156291905Y-96159342D01*
X156291905Y-96159342D02*
X156339524Y-96254580D01*
X156339524Y-96254580D02*
X156387143Y-96302200D01*
X156387143Y-96302200D02*
X156482381Y-96349819D01*
X156482381Y-96349819D02*
X156672857Y-96349819D01*
X156672857Y-96349819D02*
X156768095Y-96302200D01*
X156768095Y-96302200D02*
X156815714Y-96254580D01*
X156815714Y-96254580D02*
X156863333Y-96159342D01*
X156863333Y-96159342D02*
X156863333Y-95349819D01*
X157863333Y-96349819D02*
X157291905Y-96349819D01*
X157577619Y-96349819D02*
X157577619Y-95349819D01*
X157577619Y-95349819D02*
X157482381Y-95492676D01*
X157482381Y-95492676D02*
X157387143Y-95587914D01*
X157387143Y-95587914D02*
X157291905Y-95635533D01*
X158815714Y-96349819D02*
X158244286Y-96349819D01*
X158530000Y-96349819D02*
X158530000Y-95349819D01*
X158530000Y-95349819D02*
X158434762Y-95492676D01*
X158434762Y-95492676D02*
X158339524Y-95587914D01*
X158339524Y-95587914D02*
X158244286Y-95635533D01*
X112572333Y-112004819D02*
X113143761Y-112004819D01*
X112858047Y-113004819D02*
X112858047Y-112004819D01*
X113334238Y-112004819D02*
X113667571Y-113004819D01*
X113667571Y-113004819D02*
X114000904Y-112004819D01*
X114286619Y-112957200D02*
X114429476Y-113004819D01*
X114429476Y-113004819D02*
X114667571Y-113004819D01*
X114667571Y-113004819D02*
X114762809Y-112957200D01*
X114762809Y-112957200D02*
X114810428Y-112909580D01*
X114810428Y-112909580D02*
X114858047Y-112814342D01*
X114858047Y-112814342D02*
X114858047Y-112719104D01*
X114858047Y-112719104D02*
X114810428Y-112623866D01*
X114810428Y-112623866D02*
X114762809Y-112576247D01*
X114762809Y-112576247D02*
X114667571Y-112528628D01*
X114667571Y-112528628D02*
X114477095Y-112481009D01*
X114477095Y-112481009D02*
X114381857Y-112433390D01*
X114381857Y-112433390D02*
X114334238Y-112385771D01*
X114334238Y-112385771D02*
X114286619Y-112290533D01*
X114286619Y-112290533D02*
X114286619Y-112195295D01*
X114286619Y-112195295D02*
X114334238Y-112100057D01*
X114334238Y-112100057D02*
X114381857Y-112052438D01*
X114381857Y-112052438D02*
X114477095Y-112004819D01*
X114477095Y-112004819D02*
X114715190Y-112004819D01*
X114715190Y-112004819D02*
X114858047Y-112052438D01*
X115810428Y-113004819D02*
X115239000Y-113004819D01*
X115524714Y-113004819D02*
X115524714Y-112004819D01*
X115524714Y-112004819D02*
X115429476Y-112147676D01*
X115429476Y-112147676D02*
X115334238Y-112242914D01*
X115334238Y-112242914D02*
X115239000Y-112290533D01*
X153176819Y-94623666D02*
X152700628Y-94956999D01*
X153176819Y-95195094D02*
X152176819Y-95195094D01*
X152176819Y-95195094D02*
X152176819Y-94814142D01*
X152176819Y-94814142D02*
X152224438Y-94718904D01*
X152224438Y-94718904D02*
X152272057Y-94671285D01*
X152272057Y-94671285D02*
X152367295Y-94623666D01*
X152367295Y-94623666D02*
X152510152Y-94623666D01*
X152510152Y-94623666D02*
X152605390Y-94671285D01*
X152605390Y-94671285D02*
X152653009Y-94718904D01*
X152653009Y-94718904D02*
X152700628Y-94814142D01*
X152700628Y-94814142D02*
X152700628Y-95195094D01*
X152176819Y-93718904D02*
X152176819Y-94195094D01*
X152176819Y-94195094D02*
X152653009Y-94242713D01*
X152653009Y-94242713D02*
X152605390Y-94195094D01*
X152605390Y-94195094D02*
X152557771Y-94099856D01*
X152557771Y-94099856D02*
X152557771Y-93861761D01*
X152557771Y-93861761D02*
X152605390Y-93766523D01*
X152605390Y-93766523D02*
X152653009Y-93718904D01*
X152653009Y-93718904D02*
X152748247Y-93671285D01*
X152748247Y-93671285D02*
X152986342Y-93671285D01*
X152986342Y-93671285D02*
X153081580Y-93718904D01*
X153081580Y-93718904D02*
X153129200Y-93766523D01*
X153129200Y-93766523D02*
X153176819Y-93861761D01*
X153176819Y-93861761D02*
X153176819Y-94099856D01*
X153176819Y-94099856D02*
X153129200Y-94195094D01*
X153129200Y-94195094D02*
X153081580Y-94242713D01*
X151090819Y-100463857D02*
X150614628Y-100797190D01*
X151090819Y-101035285D02*
X150090819Y-101035285D01*
X150090819Y-101035285D02*
X150090819Y-100654333D01*
X150090819Y-100654333D02*
X150138438Y-100559095D01*
X150138438Y-100559095D02*
X150186057Y-100511476D01*
X150186057Y-100511476D02*
X150281295Y-100463857D01*
X150281295Y-100463857D02*
X150424152Y-100463857D01*
X150424152Y-100463857D02*
X150519390Y-100511476D01*
X150519390Y-100511476D02*
X150567009Y-100559095D01*
X150567009Y-100559095D02*
X150614628Y-100654333D01*
X150614628Y-100654333D02*
X150614628Y-101035285D01*
X151090819Y-99511476D02*
X151090819Y-100082904D01*
X151090819Y-99797190D02*
X150090819Y-99797190D01*
X150090819Y-99797190D02*
X150233676Y-99892428D01*
X150233676Y-99892428D02*
X150328914Y-99987666D01*
X150328914Y-99987666D02*
X150376533Y-100082904D01*
X150090819Y-98892428D02*
X150090819Y-98797190D01*
X150090819Y-98797190D02*
X150138438Y-98701952D01*
X150138438Y-98701952D02*
X150186057Y-98654333D01*
X150186057Y-98654333D02*
X150281295Y-98606714D01*
X150281295Y-98606714D02*
X150471771Y-98559095D01*
X150471771Y-98559095D02*
X150709866Y-98559095D01*
X150709866Y-98559095D02*
X150900342Y-98606714D01*
X150900342Y-98606714D02*
X150995580Y-98654333D01*
X150995580Y-98654333D02*
X151043200Y-98701952D01*
X151043200Y-98701952D02*
X151090819Y-98797190D01*
X151090819Y-98797190D02*
X151090819Y-98892428D01*
X151090819Y-98892428D02*
X151043200Y-98987666D01*
X151043200Y-98987666D02*
X150995580Y-99035285D01*
X150995580Y-99035285D02*
X150900342Y-99082904D01*
X150900342Y-99082904D02*
X150709866Y-99130523D01*
X150709866Y-99130523D02*
X150471771Y-99130523D01*
X150471771Y-99130523D02*
X150281295Y-99082904D01*
X150281295Y-99082904D02*
X150186057Y-99035285D01*
X150186057Y-99035285D02*
X150138438Y-98987666D01*
X150138438Y-98987666D02*
X150090819Y-98892428D01*
X146796142Y-105917819D02*
X146462809Y-105441628D01*
X146224714Y-105917819D02*
X146224714Y-104917819D01*
X146224714Y-104917819D02*
X146605666Y-104917819D01*
X146605666Y-104917819D02*
X146700904Y-104965438D01*
X146700904Y-104965438D02*
X146748523Y-105013057D01*
X146748523Y-105013057D02*
X146796142Y-105108295D01*
X146796142Y-105108295D02*
X146796142Y-105251152D01*
X146796142Y-105251152D02*
X146748523Y-105346390D01*
X146748523Y-105346390D02*
X146700904Y-105394009D01*
X146700904Y-105394009D02*
X146605666Y-105441628D01*
X146605666Y-105441628D02*
X146224714Y-105441628D01*
X147177095Y-105013057D02*
X147224714Y-104965438D01*
X147224714Y-104965438D02*
X147319952Y-104917819D01*
X147319952Y-104917819D02*
X147558047Y-104917819D01*
X147558047Y-104917819D02*
X147653285Y-104965438D01*
X147653285Y-104965438D02*
X147700904Y-105013057D01*
X147700904Y-105013057D02*
X147748523Y-105108295D01*
X147748523Y-105108295D02*
X147748523Y-105203533D01*
X147748523Y-105203533D02*
X147700904Y-105346390D01*
X147700904Y-105346390D02*
X147129476Y-105917819D01*
X147129476Y-105917819D02*
X147748523Y-105917819D01*
X148700904Y-105917819D02*
X148129476Y-105917819D01*
X148415190Y-105917819D02*
X148415190Y-104917819D01*
X148415190Y-104917819D02*
X148319952Y-105060676D01*
X148319952Y-105060676D02*
X148224714Y-105155914D01*
X148224714Y-105155914D02*
X148129476Y-105203533D01*
X125652333Y-85497819D02*
X125319000Y-85021628D01*
X125080905Y-85497819D02*
X125080905Y-84497819D01*
X125080905Y-84497819D02*
X125461857Y-84497819D01*
X125461857Y-84497819D02*
X125557095Y-84545438D01*
X125557095Y-84545438D02*
X125604714Y-84593057D01*
X125604714Y-84593057D02*
X125652333Y-84688295D01*
X125652333Y-84688295D02*
X125652333Y-84831152D01*
X125652333Y-84831152D02*
X125604714Y-84926390D01*
X125604714Y-84926390D02*
X125557095Y-84974009D01*
X125557095Y-84974009D02*
X125461857Y-85021628D01*
X125461857Y-85021628D02*
X125080905Y-85021628D01*
X125985667Y-84497819D02*
X126604714Y-84497819D01*
X126604714Y-84497819D02*
X126271381Y-84878771D01*
X126271381Y-84878771D02*
X126414238Y-84878771D01*
X126414238Y-84878771D02*
X126509476Y-84926390D01*
X126509476Y-84926390D02*
X126557095Y-84974009D01*
X126557095Y-84974009D02*
X126604714Y-85069247D01*
X126604714Y-85069247D02*
X126604714Y-85307342D01*
X126604714Y-85307342D02*
X126557095Y-85402580D01*
X126557095Y-85402580D02*
X126509476Y-85450200D01*
X126509476Y-85450200D02*
X126414238Y-85497819D01*
X126414238Y-85497819D02*
X126128524Y-85497819D01*
X126128524Y-85497819D02*
X126033286Y-85450200D01*
X126033286Y-85450200D02*
X125985667Y-85402580D01*
X130817905Y-85079819D02*
X130817905Y-84079819D01*
X130817905Y-84079819D02*
X131056000Y-84079819D01*
X131056000Y-84079819D02*
X131198857Y-84127438D01*
X131198857Y-84127438D02*
X131294095Y-84222676D01*
X131294095Y-84222676D02*
X131341714Y-84317914D01*
X131341714Y-84317914D02*
X131389333Y-84508390D01*
X131389333Y-84508390D02*
X131389333Y-84651247D01*
X131389333Y-84651247D02*
X131341714Y-84841723D01*
X131341714Y-84841723D02*
X131294095Y-84936961D01*
X131294095Y-84936961D02*
X131198857Y-85032200D01*
X131198857Y-85032200D02*
X131056000Y-85079819D01*
X131056000Y-85079819D02*
X130817905Y-85079819D01*
X131770286Y-84175057D02*
X131817905Y-84127438D01*
X131817905Y-84127438D02*
X131913143Y-84079819D01*
X131913143Y-84079819D02*
X132151238Y-84079819D01*
X132151238Y-84079819D02*
X132246476Y-84127438D01*
X132246476Y-84127438D02*
X132294095Y-84175057D01*
X132294095Y-84175057D02*
X132341714Y-84270295D01*
X132341714Y-84270295D02*
X132341714Y-84365533D01*
X132341714Y-84365533D02*
X132294095Y-84508390D01*
X132294095Y-84508390D02*
X131722667Y-85079819D01*
X131722667Y-85079819D02*
X132341714Y-85079819D01*
X113637095Y-86561819D02*
X113637095Y-87371342D01*
X113637095Y-87371342D02*
X113684714Y-87466580D01*
X113684714Y-87466580D02*
X113732333Y-87514200D01*
X113732333Y-87514200D02*
X113827571Y-87561819D01*
X113827571Y-87561819D02*
X114018047Y-87561819D01*
X114018047Y-87561819D02*
X114113285Y-87514200D01*
X114113285Y-87514200D02*
X114160904Y-87466580D01*
X114160904Y-87466580D02*
X114208523Y-87371342D01*
X114208523Y-87371342D02*
X114208523Y-86561819D01*
X114589476Y-86561819D02*
X115208523Y-86561819D01*
X115208523Y-86561819D02*
X114875190Y-86942771D01*
X114875190Y-86942771D02*
X115018047Y-86942771D01*
X115018047Y-86942771D02*
X115113285Y-86990390D01*
X115113285Y-86990390D02*
X115160904Y-87038009D01*
X115160904Y-87038009D02*
X115208523Y-87133247D01*
X115208523Y-87133247D02*
X115208523Y-87371342D01*
X115208523Y-87371342D02*
X115160904Y-87466580D01*
X115160904Y-87466580D02*
X115113285Y-87514200D01*
X115113285Y-87514200D02*
X115018047Y-87561819D01*
X115018047Y-87561819D02*
X114732333Y-87561819D01*
X114732333Y-87561819D02*
X114637095Y-87514200D01*
X114637095Y-87514200D02*
X114589476Y-87466580D01*
X119869761Y-109377819D02*
X119536428Y-108901628D01*
X119298333Y-109377819D02*
X119298333Y-108377819D01*
X119298333Y-108377819D02*
X119679285Y-108377819D01*
X119679285Y-108377819D02*
X119774523Y-108425438D01*
X119774523Y-108425438D02*
X119822142Y-108473057D01*
X119822142Y-108473057D02*
X119869761Y-108568295D01*
X119869761Y-108568295D02*
X119869761Y-108711152D01*
X119869761Y-108711152D02*
X119822142Y-108806390D01*
X119822142Y-108806390D02*
X119774523Y-108854009D01*
X119774523Y-108854009D02*
X119679285Y-108901628D01*
X119679285Y-108901628D02*
X119298333Y-108901628D01*
X120488809Y-108901628D02*
X120488809Y-109377819D01*
X120155476Y-108377819D02*
X120488809Y-108901628D01*
X120488809Y-108901628D02*
X120822142Y-108377819D01*
X121679285Y-109377819D02*
X121107857Y-109377819D01*
X121393571Y-109377819D02*
X121393571Y-108377819D01*
X121393571Y-108377819D02*
X121298333Y-108520676D01*
X121298333Y-108520676D02*
X121203095Y-108615914D01*
X121203095Y-108615914D02*
X121107857Y-108663533D01*
X142139819Y-84015666D02*
X141663628Y-84348999D01*
X142139819Y-84587094D02*
X141139819Y-84587094D01*
X141139819Y-84587094D02*
X141139819Y-84206142D01*
X141139819Y-84206142D02*
X141187438Y-84110904D01*
X141187438Y-84110904D02*
X141235057Y-84063285D01*
X141235057Y-84063285D02*
X141330295Y-84015666D01*
X141330295Y-84015666D02*
X141473152Y-84015666D01*
X141473152Y-84015666D02*
X141568390Y-84063285D01*
X141568390Y-84063285D02*
X141616009Y-84110904D01*
X141616009Y-84110904D02*
X141663628Y-84206142D01*
X141663628Y-84206142D02*
X141663628Y-84587094D01*
X142139819Y-83539475D02*
X142139819Y-83348999D01*
X142139819Y-83348999D02*
X142092200Y-83253761D01*
X142092200Y-83253761D02*
X142044580Y-83206142D01*
X142044580Y-83206142D02*
X141901723Y-83110904D01*
X141901723Y-83110904D02*
X141711247Y-83063285D01*
X141711247Y-83063285D02*
X141330295Y-83063285D01*
X141330295Y-83063285D02*
X141235057Y-83110904D01*
X141235057Y-83110904D02*
X141187438Y-83158523D01*
X141187438Y-83158523D02*
X141139819Y-83253761D01*
X141139819Y-83253761D02*
X141139819Y-83444237D01*
X141139819Y-83444237D02*
X141187438Y-83539475D01*
X141187438Y-83539475D02*
X141235057Y-83587094D01*
X141235057Y-83587094D02*
X141330295Y-83634713D01*
X141330295Y-83634713D02*
X141568390Y-83634713D01*
X141568390Y-83634713D02*
X141663628Y-83587094D01*
X141663628Y-83587094D02*
X141711247Y-83539475D01*
X141711247Y-83539475D02*
X141758866Y-83444237D01*
X141758866Y-83444237D02*
X141758866Y-83253761D01*
X141758866Y-83253761D02*
X141711247Y-83158523D01*
X141711247Y-83158523D02*
X141663628Y-83110904D01*
X141663628Y-83110904D02*
X141568390Y-83063285D01*
X153938819Y-92070857D02*
X153462628Y-92404190D01*
X153938819Y-92642285D02*
X152938819Y-92642285D01*
X152938819Y-92642285D02*
X152938819Y-92261333D01*
X152938819Y-92261333D02*
X152986438Y-92166095D01*
X152986438Y-92166095D02*
X153034057Y-92118476D01*
X153034057Y-92118476D02*
X153129295Y-92070857D01*
X153129295Y-92070857D02*
X153272152Y-92070857D01*
X153272152Y-92070857D02*
X153367390Y-92118476D01*
X153367390Y-92118476D02*
X153415009Y-92166095D01*
X153415009Y-92166095D02*
X153462628Y-92261333D01*
X153462628Y-92261333D02*
X153462628Y-92642285D01*
X153034057Y-91689904D02*
X152986438Y-91642285D01*
X152986438Y-91642285D02*
X152938819Y-91547047D01*
X152938819Y-91547047D02*
X152938819Y-91308952D01*
X152938819Y-91308952D02*
X152986438Y-91213714D01*
X152986438Y-91213714D02*
X153034057Y-91166095D01*
X153034057Y-91166095D02*
X153129295Y-91118476D01*
X153129295Y-91118476D02*
X153224533Y-91118476D01*
X153224533Y-91118476D02*
X153367390Y-91166095D01*
X153367390Y-91166095D02*
X153938819Y-91737523D01*
X153938819Y-91737523D02*
X153938819Y-91118476D01*
X152938819Y-90499428D02*
X152938819Y-90404190D01*
X152938819Y-90404190D02*
X152986438Y-90308952D01*
X152986438Y-90308952D02*
X153034057Y-90261333D01*
X153034057Y-90261333D02*
X153129295Y-90213714D01*
X153129295Y-90213714D02*
X153319771Y-90166095D01*
X153319771Y-90166095D02*
X153557866Y-90166095D01*
X153557866Y-90166095D02*
X153748342Y-90213714D01*
X153748342Y-90213714D02*
X153843580Y-90261333D01*
X153843580Y-90261333D02*
X153891200Y-90308952D01*
X153891200Y-90308952D02*
X153938819Y-90404190D01*
X153938819Y-90404190D02*
X153938819Y-90499428D01*
X153938819Y-90499428D02*
X153891200Y-90594666D01*
X153891200Y-90594666D02*
X153843580Y-90642285D01*
X153843580Y-90642285D02*
X153748342Y-90689904D01*
X153748342Y-90689904D02*
X153557866Y-90737523D01*
X153557866Y-90737523D02*
X153319771Y-90737523D01*
X153319771Y-90737523D02*
X153129295Y-90689904D01*
X153129295Y-90689904D02*
X153034057Y-90642285D01*
X153034057Y-90642285D02*
X152986438Y-90594666D01*
X152986438Y-90594666D02*
X152938819Y-90499428D01*
X80369819Y-112021619D02*
X79893628Y-112354952D01*
X80369819Y-112593047D02*
X79369819Y-112593047D01*
X79369819Y-112593047D02*
X79369819Y-112212095D01*
X79369819Y-112212095D02*
X79417438Y-112116857D01*
X79417438Y-112116857D02*
X79465057Y-112069238D01*
X79465057Y-112069238D02*
X79560295Y-112021619D01*
X79560295Y-112021619D02*
X79703152Y-112021619D01*
X79703152Y-112021619D02*
X79798390Y-112069238D01*
X79798390Y-112069238D02*
X79846009Y-112116857D01*
X79846009Y-112116857D02*
X79893628Y-112212095D01*
X79893628Y-112212095D02*
X79893628Y-112593047D01*
X80322200Y-111640666D02*
X80369819Y-111497809D01*
X80369819Y-111497809D02*
X80369819Y-111259714D01*
X80369819Y-111259714D02*
X80322200Y-111164476D01*
X80322200Y-111164476D02*
X80274580Y-111116857D01*
X80274580Y-111116857D02*
X80179342Y-111069238D01*
X80179342Y-111069238D02*
X80084104Y-111069238D01*
X80084104Y-111069238D02*
X79988866Y-111116857D01*
X79988866Y-111116857D02*
X79941247Y-111164476D01*
X79941247Y-111164476D02*
X79893628Y-111259714D01*
X79893628Y-111259714D02*
X79846009Y-111450190D01*
X79846009Y-111450190D02*
X79798390Y-111545428D01*
X79798390Y-111545428D02*
X79750771Y-111593047D01*
X79750771Y-111593047D02*
X79655533Y-111640666D01*
X79655533Y-111640666D02*
X79560295Y-111640666D01*
X79560295Y-111640666D02*
X79465057Y-111593047D01*
X79465057Y-111593047D02*
X79417438Y-111545428D01*
X79417438Y-111545428D02*
X79369819Y-111450190D01*
X79369819Y-111450190D02*
X79369819Y-111212095D01*
X79369819Y-111212095D02*
X79417438Y-111069238D01*
X79369819Y-110783523D02*
X79369819Y-110212095D01*
X80369819Y-110497809D02*
X79369819Y-110497809D01*
X94996580Y-86177666D02*
X95044200Y-86225285D01*
X95044200Y-86225285D02*
X95091819Y-86368142D01*
X95091819Y-86368142D02*
X95091819Y-86463380D01*
X95091819Y-86463380D02*
X95044200Y-86606237D01*
X95044200Y-86606237D02*
X94948961Y-86701475D01*
X94948961Y-86701475D02*
X94853723Y-86749094D01*
X94853723Y-86749094D02*
X94663247Y-86796713D01*
X94663247Y-86796713D02*
X94520390Y-86796713D01*
X94520390Y-86796713D02*
X94329914Y-86749094D01*
X94329914Y-86749094D02*
X94234676Y-86701475D01*
X94234676Y-86701475D02*
X94139438Y-86606237D01*
X94139438Y-86606237D02*
X94091819Y-86463380D01*
X94091819Y-86463380D02*
X94091819Y-86368142D01*
X94091819Y-86368142D02*
X94139438Y-86225285D01*
X94139438Y-86225285D02*
X94187057Y-86177666D01*
X95091819Y-85225285D02*
X95091819Y-85796713D01*
X95091819Y-85510999D02*
X94091819Y-85510999D01*
X94091819Y-85510999D02*
X94234676Y-85606237D01*
X94234676Y-85606237D02*
X94329914Y-85701475D01*
X94329914Y-85701475D02*
X94377533Y-85796713D01*
X113515095Y-104279819D02*
X113515095Y-105089342D01*
X113515095Y-105089342D02*
X113562714Y-105184580D01*
X113562714Y-105184580D02*
X113610333Y-105232200D01*
X113610333Y-105232200D02*
X113705571Y-105279819D01*
X113705571Y-105279819D02*
X113896047Y-105279819D01*
X113896047Y-105279819D02*
X113991285Y-105232200D01*
X113991285Y-105232200D02*
X114038904Y-105184580D01*
X114038904Y-105184580D02*
X114086523Y-105089342D01*
X114086523Y-105089342D02*
X114086523Y-104279819D01*
X114610333Y-105279819D02*
X114800809Y-105279819D01*
X114800809Y-105279819D02*
X114896047Y-105232200D01*
X114896047Y-105232200D02*
X114943666Y-105184580D01*
X114943666Y-105184580D02*
X115038904Y-105041723D01*
X115038904Y-105041723D02*
X115086523Y-104851247D01*
X115086523Y-104851247D02*
X115086523Y-104470295D01*
X115086523Y-104470295D02*
X115038904Y-104375057D01*
X115038904Y-104375057D02*
X114991285Y-104327438D01*
X114991285Y-104327438D02*
X114896047Y-104279819D01*
X114896047Y-104279819D02*
X114705571Y-104279819D01*
X114705571Y-104279819D02*
X114610333Y-104327438D01*
X114610333Y-104327438D02*
X114562714Y-104375057D01*
X114562714Y-104375057D02*
X114515095Y-104470295D01*
X114515095Y-104470295D02*
X114515095Y-104708390D01*
X114515095Y-104708390D02*
X114562714Y-104803628D01*
X114562714Y-104803628D02*
X114610333Y-104851247D01*
X114610333Y-104851247D02*
X114705571Y-104898866D01*
X114705571Y-104898866D02*
X114896047Y-104898866D01*
X114896047Y-104898866D02*
X114991285Y-104851247D01*
X114991285Y-104851247D02*
X115038904Y-104803628D01*
X115038904Y-104803628D02*
X115086523Y-104708390D01*
X141521095Y-102906819D02*
X141521095Y-103716342D01*
X141521095Y-103716342D02*
X141568714Y-103811580D01*
X141568714Y-103811580D02*
X141616333Y-103859200D01*
X141616333Y-103859200D02*
X141711571Y-103906819D01*
X141711571Y-103906819D02*
X141902047Y-103906819D01*
X141902047Y-103906819D02*
X141997285Y-103859200D01*
X141997285Y-103859200D02*
X142044904Y-103811580D01*
X142044904Y-103811580D02*
X142092523Y-103716342D01*
X142092523Y-103716342D02*
X142092523Y-102906819D01*
X142473476Y-102906819D02*
X143140142Y-102906819D01*
X143140142Y-102906819D02*
X142711571Y-103906819D01*
X161419580Y-98132857D02*
X161467200Y-98180476D01*
X161467200Y-98180476D02*
X161514819Y-98323333D01*
X161514819Y-98323333D02*
X161514819Y-98418571D01*
X161514819Y-98418571D02*
X161467200Y-98561428D01*
X161467200Y-98561428D02*
X161371961Y-98656666D01*
X161371961Y-98656666D02*
X161276723Y-98704285D01*
X161276723Y-98704285D02*
X161086247Y-98751904D01*
X161086247Y-98751904D02*
X160943390Y-98751904D01*
X160943390Y-98751904D02*
X160752914Y-98704285D01*
X160752914Y-98704285D02*
X160657676Y-98656666D01*
X160657676Y-98656666D02*
X160562438Y-98561428D01*
X160562438Y-98561428D02*
X160514819Y-98418571D01*
X160514819Y-98418571D02*
X160514819Y-98323333D01*
X160514819Y-98323333D02*
X160562438Y-98180476D01*
X160562438Y-98180476D02*
X160610057Y-98132857D01*
X160514819Y-97799523D02*
X160514819Y-97180476D01*
X160514819Y-97180476D02*
X160895771Y-97513809D01*
X160895771Y-97513809D02*
X160895771Y-97370952D01*
X160895771Y-97370952D02*
X160943390Y-97275714D01*
X160943390Y-97275714D02*
X160991009Y-97228095D01*
X160991009Y-97228095D02*
X161086247Y-97180476D01*
X161086247Y-97180476D02*
X161324342Y-97180476D01*
X161324342Y-97180476D02*
X161419580Y-97228095D01*
X161419580Y-97228095D02*
X161467200Y-97275714D01*
X161467200Y-97275714D02*
X161514819Y-97370952D01*
X161514819Y-97370952D02*
X161514819Y-97656666D01*
X161514819Y-97656666D02*
X161467200Y-97751904D01*
X161467200Y-97751904D02*
X161419580Y-97799523D01*
X160514819Y-96323333D02*
X160514819Y-96513809D01*
X160514819Y-96513809D02*
X160562438Y-96609047D01*
X160562438Y-96609047D02*
X160610057Y-96656666D01*
X160610057Y-96656666D02*
X160752914Y-96751904D01*
X160752914Y-96751904D02*
X160943390Y-96799523D01*
X160943390Y-96799523D02*
X161324342Y-96799523D01*
X161324342Y-96799523D02*
X161419580Y-96751904D01*
X161419580Y-96751904D02*
X161467200Y-96704285D01*
X161467200Y-96704285D02*
X161514819Y-96609047D01*
X161514819Y-96609047D02*
X161514819Y-96418571D01*
X161514819Y-96418571D02*
X161467200Y-96323333D01*
X161467200Y-96323333D02*
X161419580Y-96275714D01*
X161419580Y-96275714D02*
X161324342Y-96228095D01*
X161324342Y-96228095D02*
X161086247Y-96228095D01*
X161086247Y-96228095D02*
X160991009Y-96275714D01*
X160991009Y-96275714D02*
X160943390Y-96323333D01*
X160943390Y-96323333D02*
X160895771Y-96418571D01*
X160895771Y-96418571D02*
X160895771Y-96609047D01*
X160895771Y-96609047D02*
X160943390Y-96704285D01*
X160943390Y-96704285D02*
X160991009Y-96751904D01*
X160991009Y-96751904D02*
X161086247Y-96799523D01*
X89312580Y-95854857D02*
X89360200Y-95902476D01*
X89360200Y-95902476D02*
X89407819Y-96045333D01*
X89407819Y-96045333D02*
X89407819Y-96140571D01*
X89407819Y-96140571D02*
X89360200Y-96283428D01*
X89360200Y-96283428D02*
X89264961Y-96378666D01*
X89264961Y-96378666D02*
X89169723Y-96426285D01*
X89169723Y-96426285D02*
X88979247Y-96473904D01*
X88979247Y-96473904D02*
X88836390Y-96473904D01*
X88836390Y-96473904D02*
X88645914Y-96426285D01*
X88645914Y-96426285D02*
X88550676Y-96378666D01*
X88550676Y-96378666D02*
X88455438Y-96283428D01*
X88455438Y-96283428D02*
X88407819Y-96140571D01*
X88407819Y-96140571D02*
X88407819Y-96045333D01*
X88407819Y-96045333D02*
X88455438Y-95902476D01*
X88455438Y-95902476D02*
X88503057Y-95854857D01*
X88407819Y-95521523D02*
X88407819Y-94902476D01*
X88407819Y-94902476D02*
X88788771Y-95235809D01*
X88788771Y-95235809D02*
X88788771Y-95092952D01*
X88788771Y-95092952D02*
X88836390Y-94997714D01*
X88836390Y-94997714D02*
X88884009Y-94950095D01*
X88884009Y-94950095D02*
X88979247Y-94902476D01*
X88979247Y-94902476D02*
X89217342Y-94902476D01*
X89217342Y-94902476D02*
X89312580Y-94950095D01*
X89312580Y-94950095D02*
X89360200Y-94997714D01*
X89360200Y-94997714D02*
X89407819Y-95092952D01*
X89407819Y-95092952D02*
X89407819Y-95378666D01*
X89407819Y-95378666D02*
X89360200Y-95473904D01*
X89360200Y-95473904D02*
X89312580Y-95521523D01*
X88407819Y-94569142D02*
X88407819Y-93950095D01*
X88407819Y-93950095D02*
X88788771Y-94283428D01*
X88788771Y-94283428D02*
X88788771Y-94140571D01*
X88788771Y-94140571D02*
X88836390Y-94045333D01*
X88836390Y-94045333D02*
X88884009Y-93997714D01*
X88884009Y-93997714D02*
X88979247Y-93950095D01*
X88979247Y-93950095D02*
X89217342Y-93950095D01*
X89217342Y-93950095D02*
X89312580Y-93997714D01*
X89312580Y-93997714D02*
X89360200Y-94045333D01*
X89360200Y-94045333D02*
X89407819Y-94140571D01*
X89407819Y-94140571D02*
X89407819Y-94426285D01*
X89407819Y-94426285D02*
X89360200Y-94521523D01*
X89360200Y-94521523D02*
X89312580Y-94569142D01*
X113196533Y-96893076D02*
X112891771Y-96893076D01*
X112891771Y-96893076D02*
X112891771Y-96253076D01*
X113745105Y-96893076D02*
X113379390Y-96893076D01*
X113562247Y-96893076D02*
X113562247Y-96253076D01*
X113562247Y-96253076D02*
X113501295Y-96344504D01*
X113501295Y-96344504D02*
X113440343Y-96405457D01*
X113440343Y-96405457D02*
X113379390Y-96435933D01*
X138491333Y-83098580D02*
X138443714Y-83146200D01*
X138443714Y-83146200D02*
X138300857Y-83193819D01*
X138300857Y-83193819D02*
X138205619Y-83193819D01*
X138205619Y-83193819D02*
X138062762Y-83146200D01*
X138062762Y-83146200D02*
X137967524Y-83050961D01*
X137967524Y-83050961D02*
X137919905Y-82955723D01*
X137919905Y-82955723D02*
X137872286Y-82765247D01*
X137872286Y-82765247D02*
X137872286Y-82622390D01*
X137872286Y-82622390D02*
X137919905Y-82431914D01*
X137919905Y-82431914D02*
X137967524Y-82336676D01*
X137967524Y-82336676D02*
X138062762Y-82241438D01*
X138062762Y-82241438D02*
X138205619Y-82193819D01*
X138205619Y-82193819D02*
X138300857Y-82193819D01*
X138300857Y-82193819D02*
X138443714Y-82241438D01*
X138443714Y-82241438D02*
X138491333Y-82289057D01*
X139348476Y-82527152D02*
X139348476Y-83193819D01*
X139110381Y-82146200D02*
X138872286Y-82860485D01*
X138872286Y-82860485D02*
X139491333Y-82860485D01*
X154874333Y-87481819D02*
X154541000Y-87005628D01*
X154302905Y-87481819D02*
X154302905Y-86481819D01*
X154302905Y-86481819D02*
X154683857Y-86481819D01*
X154683857Y-86481819D02*
X154779095Y-86529438D01*
X154779095Y-86529438D02*
X154826714Y-86577057D01*
X154826714Y-86577057D02*
X154874333Y-86672295D01*
X154874333Y-86672295D02*
X154874333Y-86815152D01*
X154874333Y-86815152D02*
X154826714Y-86910390D01*
X154826714Y-86910390D02*
X154779095Y-86958009D01*
X154779095Y-86958009D02*
X154683857Y-87005628D01*
X154683857Y-87005628D02*
X154302905Y-87005628D01*
X155731476Y-86815152D02*
X155731476Y-87481819D01*
X155493381Y-86434200D02*
X155255286Y-87148485D01*
X155255286Y-87148485D02*
X155874333Y-87148485D01*
X126089905Y-91120819D02*
X126089905Y-90120819D01*
X126089905Y-90120819D02*
X126328000Y-90120819D01*
X126328000Y-90120819D02*
X126470857Y-90168438D01*
X126470857Y-90168438D02*
X126566095Y-90263676D01*
X126566095Y-90263676D02*
X126613714Y-90358914D01*
X126613714Y-90358914D02*
X126661333Y-90549390D01*
X126661333Y-90549390D02*
X126661333Y-90692247D01*
X126661333Y-90692247D02*
X126613714Y-90882723D01*
X126613714Y-90882723D02*
X126566095Y-90977961D01*
X126566095Y-90977961D02*
X126470857Y-91073200D01*
X126470857Y-91073200D02*
X126328000Y-91120819D01*
X126328000Y-91120819D02*
X126089905Y-91120819D01*
X127613714Y-91120819D02*
X127042286Y-91120819D01*
X127328000Y-91120819D02*
X127328000Y-90120819D01*
X127328000Y-90120819D02*
X127232762Y-90263676D01*
X127232762Y-90263676D02*
X127137524Y-90358914D01*
X127137524Y-90358914D02*
X127042286Y-90406533D01*
X81832571Y-105780819D02*
X81499238Y-105304628D01*
X81261143Y-105780819D02*
X81261143Y-104780819D01*
X81261143Y-104780819D02*
X81642095Y-104780819D01*
X81642095Y-104780819D02*
X81737333Y-104828438D01*
X81737333Y-104828438D02*
X81784952Y-104876057D01*
X81784952Y-104876057D02*
X81832571Y-104971295D01*
X81832571Y-104971295D02*
X81832571Y-105114152D01*
X81832571Y-105114152D02*
X81784952Y-105209390D01*
X81784952Y-105209390D02*
X81737333Y-105257009D01*
X81737333Y-105257009D02*
X81642095Y-105304628D01*
X81642095Y-105304628D02*
X81261143Y-105304628D01*
X82165905Y-105114152D02*
X82689714Y-105114152D01*
X82689714Y-105114152D02*
X82165905Y-105780819D01*
X82165905Y-105780819D02*
X82689714Y-105780819D01*
X83594476Y-105780819D02*
X83023048Y-105780819D01*
X83308762Y-105780819D02*
X83308762Y-104780819D01*
X83308762Y-104780819D02*
X83213524Y-104923676D01*
X83213524Y-104923676D02*
X83118286Y-105018914D01*
X83118286Y-105018914D02*
X83023048Y-105066533D01*
X86821333Y-91993819D02*
X86488000Y-91517628D01*
X86249905Y-91993819D02*
X86249905Y-90993819D01*
X86249905Y-90993819D02*
X86630857Y-90993819D01*
X86630857Y-90993819D02*
X86726095Y-91041438D01*
X86726095Y-91041438D02*
X86773714Y-91089057D01*
X86773714Y-91089057D02*
X86821333Y-91184295D01*
X86821333Y-91184295D02*
X86821333Y-91327152D01*
X86821333Y-91327152D02*
X86773714Y-91422390D01*
X86773714Y-91422390D02*
X86726095Y-91470009D01*
X86726095Y-91470009D02*
X86630857Y-91517628D01*
X86630857Y-91517628D02*
X86249905Y-91517628D01*
X87773714Y-91993819D02*
X87202286Y-91993819D01*
X87488000Y-91993819D02*
X87488000Y-90993819D01*
X87488000Y-90993819D02*
X87392762Y-91136676D01*
X87392762Y-91136676D02*
X87297524Y-91231914D01*
X87297524Y-91231914D02*
X87202286Y-91279533D01*
X97326571Y-107081819D02*
X96993238Y-106605628D01*
X96755143Y-107081819D02*
X96755143Y-106081819D01*
X96755143Y-106081819D02*
X97136095Y-106081819D01*
X97136095Y-106081819D02*
X97231333Y-106129438D01*
X97231333Y-106129438D02*
X97278952Y-106177057D01*
X97278952Y-106177057D02*
X97326571Y-106272295D01*
X97326571Y-106272295D02*
X97326571Y-106415152D01*
X97326571Y-106415152D02*
X97278952Y-106510390D01*
X97278952Y-106510390D02*
X97231333Y-106558009D01*
X97231333Y-106558009D02*
X97136095Y-106605628D01*
X97136095Y-106605628D02*
X96755143Y-106605628D01*
X97659905Y-106415152D02*
X98183714Y-106415152D01*
X98183714Y-106415152D02*
X97659905Y-107081819D01*
X97659905Y-107081819D02*
X98183714Y-107081819D01*
X98517048Y-106177057D02*
X98564667Y-106129438D01*
X98564667Y-106129438D02*
X98659905Y-106081819D01*
X98659905Y-106081819D02*
X98898000Y-106081819D01*
X98898000Y-106081819D02*
X98993238Y-106129438D01*
X98993238Y-106129438D02*
X99040857Y-106177057D01*
X99040857Y-106177057D02*
X99088476Y-106272295D01*
X99088476Y-106272295D02*
X99088476Y-106367533D01*
X99088476Y-106367533D02*
X99040857Y-106510390D01*
X99040857Y-106510390D02*
X98469429Y-107081819D01*
X98469429Y-107081819D02*
X99088476Y-107081819D01*
X88629819Y-112790475D02*
X87629819Y-112790475D01*
X87629819Y-112790475D02*
X87629819Y-112552380D01*
X87629819Y-112552380D02*
X87677438Y-112409523D01*
X87677438Y-112409523D02*
X87772676Y-112314285D01*
X87772676Y-112314285D02*
X87867914Y-112266666D01*
X87867914Y-112266666D02*
X88058390Y-112219047D01*
X88058390Y-112219047D02*
X88201247Y-112219047D01*
X88201247Y-112219047D02*
X88391723Y-112266666D01*
X88391723Y-112266666D02*
X88486961Y-112314285D01*
X88486961Y-112314285D02*
X88582200Y-112409523D01*
X88582200Y-112409523D02*
X88629819Y-112552380D01*
X88629819Y-112552380D02*
X88629819Y-112790475D01*
X88344104Y-111838094D02*
X88344104Y-111361904D01*
X88629819Y-111933332D02*
X87629819Y-111599999D01*
X87629819Y-111599999D02*
X88629819Y-111266666D01*
X88534580Y-110361904D02*
X88582200Y-110409523D01*
X88582200Y-110409523D02*
X88629819Y-110552380D01*
X88629819Y-110552380D02*
X88629819Y-110647618D01*
X88629819Y-110647618D02*
X88582200Y-110790475D01*
X88582200Y-110790475D02*
X88486961Y-110885713D01*
X88486961Y-110885713D02*
X88391723Y-110933332D01*
X88391723Y-110933332D02*
X88201247Y-110980951D01*
X88201247Y-110980951D02*
X88058390Y-110980951D01*
X88058390Y-110980951D02*
X87867914Y-110933332D01*
X87867914Y-110933332D02*
X87772676Y-110885713D01*
X87772676Y-110885713D02*
X87677438Y-110790475D01*
X87677438Y-110790475D02*
X87629819Y-110647618D01*
X87629819Y-110647618D02*
X87629819Y-110552380D01*
X87629819Y-110552380D02*
X87677438Y-110409523D01*
X87677438Y-110409523D02*
X87725057Y-110361904D01*
D13*
%TO.C,J6*%
X124828000Y-96233000D02*
X124828000Y-94903000D01*
X126158000Y-96233000D02*
X124828000Y-96233000D01*
X127428000Y-96233000D02*
X132568000Y-96233000D01*
X127428000Y-96233000D02*
X127428000Y-93573000D01*
X132568000Y-96233000D02*
X132568000Y-93573000D01*
X127428000Y-93573000D02*
X132568000Y-93573000D01*
%TO.C,C21*%
X138336164Y-103274000D02*
X138551836Y-103274000D01*
X138336164Y-103994000D02*
X138551836Y-103994000D01*
%TO.C,C5*%
X133572000Y-90253164D02*
X133572000Y-90468836D01*
X132852000Y-90253164D02*
X132852000Y-90468836D01*
D14*
%TO.C,RV1*%
X148459670Y-84255000D02*
X148459670Y-86905000D01*
X144859670Y-84255000D02*
X144859670Y-86905000D01*
X148459670Y-86905000D02*
X147859670Y-86905000D01*
X144859670Y-86905000D02*
X145459670Y-86905000D01*
D15*
X148337670Y-82159330D02*
G75*
G03*
X148097670Y-82159330I-120000J0D01*
G01*
X148097670Y-82159330D02*
G75*
G03*
X148337670Y-82159330I120000J0D01*
G01*
D13*
%TO.C,Rz3*%
X94325258Y-95341500D02*
X93850742Y-95341500D01*
X94325258Y-94296500D02*
X93850742Y-94296500D01*
%TO.C,J1*%
X75347000Y-86532000D02*
X76677000Y-86532000D01*
X75347000Y-87862000D02*
X75347000Y-86532000D01*
X75347000Y-89132000D02*
X75347000Y-89192000D01*
X75347000Y-89132000D02*
X78007000Y-89132000D01*
X75347000Y-89192000D02*
X78007000Y-89192000D01*
X78007000Y-89132000D02*
X78007000Y-89192000D01*
%TO.C,C12*%
X80729164Y-85302000D02*
X80944836Y-85302000D01*
X80729164Y-86022000D02*
X80944836Y-86022000D01*
%TO.C,TC1*%
X165794000Y-105270000D02*
X155674000Y-105270000D01*
X155674000Y-105270000D02*
X155674000Y-88270000D01*
X155674000Y-88270000D02*
X165794000Y-88270000D01*
X165794000Y-88270000D02*
X165794000Y-105270000D01*
%TO.C,C29*%
X107639836Y-100376000D02*
X107424164Y-100376000D01*
X107639836Y-99656000D02*
X107424164Y-99656000D01*
%TO.C,C8*%
X139073164Y-87021000D02*
X139288836Y-87021000D01*
X139073164Y-87741000D02*
X139288836Y-87741000D01*
%TO.C,R12*%
X147510742Y-94539500D02*
X147985258Y-94539500D01*
X147510742Y-95584500D02*
X147985258Y-95584500D01*
%TO.C,U1*%
X89195000Y-98593000D02*
X89195000Y-99043000D01*
X89195000Y-105813000D02*
X89195000Y-105363000D01*
X89645000Y-98593000D02*
X89195000Y-98593000D01*
X89645000Y-105813000D02*
X89195000Y-105813000D01*
X95965000Y-98593000D02*
X96415000Y-98593000D01*
X95965000Y-105813000D02*
X96415000Y-105813000D01*
X96415000Y-98593000D02*
X96415000Y-99043000D01*
X96415000Y-105813000D02*
X96415000Y-105363000D01*
X88605000Y-99043000D02*
X88265000Y-98573000D01*
X88945000Y-98573000D01*
X88605000Y-99043000D01*
G36*
X88605000Y-99043000D02*
G01*
X88265000Y-98573000D01*
X88945000Y-98573000D01*
X88605000Y-99043000D01*
G37*
%TO.C,C19*%
X146388164Y-99027000D02*
X146603836Y-99027000D01*
X146388164Y-99747000D02*
X146603836Y-99747000D01*
%TO.C,C10*%
X80995836Y-89141000D02*
X80780164Y-89141000D01*
X80995836Y-88421000D02*
X80780164Y-88421000D01*
%TO.C,C27*%
X120974836Y-100627000D02*
X120759164Y-100627000D01*
X120974836Y-99907000D02*
X120759164Y-99907000D01*
%TO.C,C14*%
X148000836Y-93899000D02*
X147785164Y-93899000D01*
X148000836Y-93179000D02*
X147785164Y-93179000D01*
%TO.C,R16*%
X133503500Y-95263258D02*
X133503500Y-94788742D01*
X134548500Y-95263258D02*
X134548500Y-94788742D01*
%TO.C,C9*%
X80995836Y-87552000D02*
X80780164Y-87552000D01*
X80995836Y-86832000D02*
X80780164Y-86832000D01*
%TO.C,C35*%
X84377000Y-100695164D02*
X84377000Y-100910836D01*
X83657000Y-100695164D02*
X83657000Y-100910836D01*
%TO.C,Q1*%
X102656000Y-88894000D02*
X102006000Y-88894000D01*
X102656000Y-88894000D02*
X103306000Y-88894000D01*
X102656000Y-92014000D02*
X102006000Y-92014000D01*
X102656000Y-92014000D02*
X103306000Y-92014000D01*
X101493500Y-88944000D02*
X101253500Y-88614000D01*
X101733500Y-88614000D01*
X101493500Y-88944000D01*
G36*
X101493500Y-88944000D02*
G01*
X101253500Y-88614000D01*
X101733500Y-88614000D01*
X101493500Y-88944000D01*
G37*
%TO.C,U2*%
X127635000Y-97419000D02*
X125685000Y-97419000D01*
X127635000Y-97419000D02*
X129585000Y-97419000D01*
X127635000Y-106289000D02*
X125685000Y-106289000D01*
X127635000Y-106289000D02*
X129585000Y-106289000D01*
X124935000Y-97484000D02*
X124695000Y-97154000D01*
X125175000Y-97154000D01*
X124935000Y-97484000D01*
G36*
X124935000Y-97484000D02*
G01*
X124695000Y-97154000D01*
X125175000Y-97154000D01*
X124935000Y-97484000D01*
G37*
%TO.C,U8*%
X136852000Y-98687000D02*
X136852000Y-99037000D01*
X136502000Y-100987000D02*
X137052000Y-100987000D01*
X136502000Y-98687000D02*
X136852000Y-98687000D01*
X134902000Y-100987000D02*
X134552000Y-100987000D01*
X134902000Y-98687000D02*
X134552000Y-98687000D01*
X134552000Y-100987000D02*
X134552000Y-100637000D01*
X134552000Y-98687000D02*
X134552000Y-99037000D01*
%TO.C,R8*%
X80132500Y-99243742D02*
X80132500Y-99718258D01*
X79087500Y-99243742D02*
X79087500Y-99718258D01*
%TO.C,R22*%
X153772258Y-106623500D02*
X153297742Y-106623500D01*
X153772258Y-105578500D02*
X153297742Y-105578500D01*
%TO.C,U4*%
X83954000Y-85934000D02*
X83954000Y-86734000D01*
X83954000Y-85934000D02*
X83954000Y-85134000D01*
X87074000Y-85934000D02*
X87074000Y-86734000D01*
X87074000Y-85934000D02*
X87074000Y-85134000D01*
X84004000Y-87234000D02*
X83674000Y-87474000D01*
X83674000Y-86994000D01*
X84004000Y-87234000D01*
G36*
X84004000Y-87234000D02*
G01*
X83674000Y-87474000D01*
X83674000Y-86994000D01*
X84004000Y-87234000D01*
G37*
%TO.C,RX1*%
X107781742Y-109842500D02*
X108256258Y-109842500D01*
X107781742Y-110887500D02*
X108256258Y-110887500D01*
%TO.C,C15*%
X83107000Y-100627164D02*
X83107000Y-100842836D01*
X82387000Y-100627164D02*
X82387000Y-100842836D01*
%TO.C,R13*%
X147583742Y-91484500D02*
X148058258Y-91484500D01*
X147583742Y-92529500D02*
X148058258Y-92529500D01*
%TO.C,J5*%
X104169000Y-103993000D02*
X102839000Y-103993000D01*
X104169000Y-102663000D02*
X104169000Y-103993000D01*
X104169000Y-101393000D02*
X104169000Y-93713000D01*
X104169000Y-101393000D02*
X101509000Y-101393000D01*
X104169000Y-93713000D02*
X101509000Y-93713000D01*
X101509000Y-101393000D02*
X101509000Y-93713000D01*
%TO.C,J2*%
X75269000Y-96253000D02*
X76599000Y-96253000D01*
X75269000Y-97583000D02*
X75269000Y-96253000D01*
X75269000Y-98853000D02*
X75269000Y-111613000D01*
X75269000Y-98853000D02*
X77929000Y-98853000D01*
X75269000Y-111613000D02*
X77929000Y-111613000D01*
X77929000Y-98853000D02*
X77929000Y-111613000D01*
%TO.C,C2*%
X89301000Y-86234252D02*
X89301000Y-85711748D01*
X90771000Y-86234252D02*
X90771000Y-85711748D01*
%TO.C,U5*%
X139235000Y-88364000D02*
X138435000Y-88364000D01*
X139235000Y-88364000D02*
X140035000Y-88364000D01*
X139235000Y-91484000D02*
X138435000Y-91484000D01*
X139235000Y-91484000D02*
X140035000Y-91484000D01*
X137935000Y-88414000D02*
X137695000Y-88084000D01*
X138175000Y-88084000D01*
X137935000Y-88414000D01*
G36*
X137935000Y-88414000D02*
G01*
X137695000Y-88084000D01*
X138175000Y-88084000D01*
X137935000Y-88414000D01*
G37*
%TO.C,U6*%
X140118000Y-95370000D02*
X138708000Y-95370000D01*
X140108000Y-93050000D02*
X138708000Y-93050000D01*
X140728000Y-95650000D02*
X140248000Y-95650000D01*
X140488000Y-95320000D01*
X140728000Y-95650000D01*
G36*
X140728000Y-95650000D02*
G01*
X140248000Y-95650000D01*
X140488000Y-95320000D01*
X140728000Y-95650000D01*
G37*
%TO.C,R7*%
X143698500Y-87197742D02*
X143698500Y-87672258D01*
X142653500Y-87197742D02*
X142653500Y-87672258D01*
%TO.C,R6*%
X149309258Y-89615500D02*
X148834742Y-89615500D01*
X149309258Y-88570500D02*
X148834742Y-88570500D01*
%TO.C,R2*%
X98566359Y-89142000D02*
X98873641Y-89142000D01*
X98566359Y-89902000D02*
X98873641Y-89902000D01*
D12*
%TO.C,U11*%
X156630000Y-96855000D02*
X158030000Y-96855000D01*
X156630000Y-98355000D02*
X158030000Y-98355000D01*
X156380000Y-96805000D02*
G75*
G03*
X156280000Y-96805000I-50000J0D01*
G01*
X156280000Y-96805000D02*
G75*
G03*
X156380000Y-96805000I50000J0D01*
G01*
D13*
%TO.C,R5*%
X150708500Y-94694258D02*
X150708500Y-94219742D01*
X151753500Y-94694258D02*
X151753500Y-94219742D01*
%TO.C,R10*%
X148749500Y-100185258D02*
X148749500Y-99710742D01*
X149794500Y-100185258D02*
X149794500Y-99710742D01*
%TO.C,C16*%
X144189000Y-97052164D02*
X144189000Y-97267836D01*
X143469000Y-97052164D02*
X143469000Y-97267836D01*
%TO.C,R21*%
X147201742Y-103322500D02*
X147676258Y-103322500D01*
X147201742Y-104367500D02*
X147676258Y-104367500D01*
%TO.C,C23*%
X135221836Y-104876000D02*
X135006164Y-104876000D01*
X135221836Y-104156000D02*
X135006164Y-104156000D01*
%TO.C,R3*%
X125091936Y-85953000D02*
X126546064Y-85953000D01*
X125091936Y-87773000D02*
X126546064Y-87773000D01*
%TO.C,D2*%
X133916000Y-87816000D02*
X133916000Y-85816000D01*
X133916000Y-87816000D02*
X129906000Y-87816000D01*
X133916000Y-85816000D02*
X129906000Y-85816000D01*
%TO.C,U3*%
X111649000Y-90679000D02*
X111649000Y-83099000D01*
X116349000Y-90679000D02*
X111649000Y-90679000D01*
X117149000Y-89879000D02*
X116349000Y-90679000D01*
X111649000Y-83099000D02*
X117149000Y-83099000D01*
X117149000Y-83099000D02*
X117149000Y-89879000D01*
%TO.C,C7*%
X139073164Y-85559000D02*
X139288836Y-85559000D01*
X139073164Y-86279000D02*
X139288836Y-86279000D01*
%TO.C,RY1*%
X120227742Y-109830500D02*
X120702258Y-109830500D01*
X120227742Y-110875500D02*
X120702258Y-110875500D01*
%TO.C,C26*%
X121152836Y-97969000D02*
X120937164Y-97969000D01*
X121152836Y-97249000D02*
X120937164Y-97249000D01*
%TO.C,R9*%
X143698500Y-83611742D02*
X143698500Y-84086258D01*
X142653500Y-83611742D02*
X142653500Y-84086258D01*
%TO.C,R20*%
X154980000Y-91401359D02*
X154980000Y-91708641D01*
X154220000Y-91401359D02*
X154220000Y-91708641D01*
%TO.C,C28*%
X120974836Y-101835000D02*
X120759164Y-101835000D01*
X120974836Y-101115000D02*
X120759164Y-101115000D01*
%TO.C,C22*%
X138336164Y-102069000D02*
X138551836Y-102069000D01*
X138336164Y-102789000D02*
X138551836Y-102789000D01*
%TO.C,C6*%
X134969000Y-90318164D02*
X134969000Y-90533836D01*
X134249000Y-90318164D02*
X134249000Y-90533836D01*
%TO.C,J3*%
X86115000Y-110144000D02*
X86115000Y-111474000D01*
X84785000Y-110144000D02*
X86115000Y-110144000D01*
X83515000Y-110144000D02*
X80915000Y-110144000D01*
X83515000Y-110144000D02*
X83515000Y-112804000D01*
X80915000Y-110144000D02*
X80915000Y-112804000D01*
X83515000Y-112804000D02*
X80915000Y-112804000D01*
%TO.C,C3*%
X132183000Y-90596420D02*
X132183000Y-90877580D01*
X131163000Y-90596420D02*
X131163000Y-90877580D01*
%TO.C,C1*%
X93692000Y-85749748D02*
X93692000Y-86272252D01*
X92222000Y-85749748D02*
X92222000Y-86272252D01*
%TO.C,U9*%
X114277000Y-102363000D02*
X112327000Y-102363000D01*
X114277000Y-102363000D02*
X116227000Y-102363000D01*
X114277000Y-107483000D02*
X112327000Y-107483000D01*
X114277000Y-107483000D02*
X116227000Y-107483000D01*
X111577000Y-102458000D02*
X111337000Y-102128000D01*
X111817000Y-102128000D01*
X111577000Y-102458000D01*
G36*
X111577000Y-102458000D02*
G01*
X111337000Y-102128000D01*
X111817000Y-102128000D01*
X111577000Y-102458000D01*
G37*
%TO.C,C30*%
X107639836Y-101584000D02*
X107424164Y-101584000D01*
X107639836Y-100864000D02*
X107424164Y-100864000D01*
%TO.C,R14*%
X139041258Y-97960500D02*
X138566742Y-97960500D01*
X139041258Y-96915500D02*
X138566742Y-96915500D01*
%TO.C,C13*%
X153333000Y-88794164D02*
X153333000Y-89009836D01*
X152613000Y-88794164D02*
X152613000Y-89009836D01*
%TO.C,U7*%
X142410000Y-99339000D02*
X141610000Y-99339000D01*
X142410000Y-99339000D02*
X143210000Y-99339000D01*
X142410000Y-102459000D02*
X141610000Y-102459000D01*
X142410000Y-102459000D02*
X143210000Y-102459000D01*
X141110000Y-99389000D02*
X140870000Y-99059000D01*
X141350000Y-99059000D01*
X141110000Y-99389000D01*
G36*
X141110000Y-99389000D02*
G01*
X140870000Y-99059000D01*
X141350000Y-99059000D01*
X141110000Y-99389000D01*
G37*
%TO.C,R11*%
X147985258Y-97519500D02*
X147510742Y-97519500D01*
X147985258Y-96474500D02*
X147510742Y-96474500D01*
%TO.C,C20*%
X139225164Y-98510000D02*
X139440836Y-98510000D01*
X139225164Y-99230000D02*
X139440836Y-99230000D01*
%TO.C,C24*%
X135221836Y-103668000D02*
X135006164Y-103668000D01*
X135221836Y-102948000D02*
X135006164Y-102948000D01*
%TO.C,C11*%
X80780164Y-83660000D02*
X80995836Y-83660000D01*
X80780164Y-84380000D02*
X80995836Y-84380000D01*
%TO.C,R17*%
X121675742Y-102854500D02*
X122150258Y-102854500D01*
X121675742Y-103899500D02*
X122150258Y-103899500D01*
%TO.C,C36*%
X159335000Y-97722836D02*
X159335000Y-97507164D01*
X160055000Y-97722836D02*
X160055000Y-97507164D01*
%TO.C,C33*%
X89753000Y-95319836D02*
X89753000Y-95104164D01*
X90473000Y-95319836D02*
X90473000Y-95104164D01*
%TO.C,C4*%
X138798580Y-84613000D02*
X138517420Y-84613000D01*
X138798580Y-83593000D02*
X138517420Y-83593000D01*
%TO.C,R4*%
X155278258Y-86119500D02*
X154803742Y-86119500D01*
X155278258Y-85074500D02*
X154803742Y-85074500D01*
%TO.C,C34*%
X79972164Y-101394000D02*
X80187836Y-101394000D01*
X79972164Y-102114000D02*
X80187836Y-102114000D01*
%TO.C,C17*%
X142792000Y-96990164D02*
X142792000Y-97205836D01*
X142072000Y-96990164D02*
X142072000Y-97205836D01*
%TO.C,C25*%
X121152836Y-99301000D02*
X120937164Y-99301000D01*
X121152836Y-98581000D02*
X120937164Y-98581000D01*
%TO.C,D1*%
X130188000Y-92257000D02*
X130188000Y-89087000D01*
X130188000Y-89087000D02*
X124328000Y-89087000D01*
X124328000Y-92257000D02*
X130188000Y-92257000D01*
%TO.C,Rz1*%
X82641258Y-104418500D02*
X82166742Y-104418500D01*
X82641258Y-103373500D02*
X82166742Y-103373500D01*
%TO.C,R15*%
X136072500Y-94830742D02*
X136072500Y-95305258D01*
X135027500Y-94830742D02*
X135027500Y-95305258D01*
%TO.C,C18*%
X146388164Y-100232000D02*
X146603836Y-100232000D01*
X146388164Y-100952000D02*
X146603836Y-100952000D01*
%TO.C,R1*%
X84810936Y-89909000D02*
X89165064Y-89909000D01*
X84810936Y-93329000D02*
X89165064Y-93329000D01*
%TO.C,Rz2*%
X97660742Y-107534500D02*
X98135258Y-107534500D01*
X97660742Y-108579500D02*
X98135258Y-108579500D01*
%TO.C,J4*%
X89341000Y-112803000D02*
X89341000Y-111473000D01*
X90671000Y-112803000D02*
X89341000Y-112803000D01*
X91941000Y-112803000D02*
X97081000Y-112803000D01*
X91941000Y-112803000D02*
X91941000Y-110143000D01*
X97081000Y-112803000D02*
X97081000Y-110143000D01*
X91941000Y-110143000D02*
X97081000Y-110143000D01*
%TD*%
%LPC*%
D16*
%TO.C,J6*%
X126158000Y-94903000D03*
D17*
X128698000Y-94903000D03*
X131238000Y-94903000D03*
%TD*%
D18*
%TO.C,C21*%
X137964000Y-103634000D03*
X138924000Y-103634000D03*
%TD*%
D19*
%TO.C,C5*%
X133212000Y-89881000D03*
X133212000Y-90841000D03*
%TD*%
D20*
%TO.C,RV1*%
X147659670Y-83305000D03*
D21*
X146659670Y-86555000D03*
D20*
X145659670Y-83305000D03*
%TD*%
D22*
%TO.C,Rz3*%
X94913000Y-94819000D03*
X93263000Y-94819000D03*
%TD*%
D16*
%TO.C,J1*%
X76677000Y-87862000D03*
%TD*%
D18*
%TO.C,C12*%
X80357000Y-85662000D03*
X81317000Y-85662000D03*
%TD*%
D23*
%TO.C,TC1*%
X158174000Y-90220000D03*
D24*
X158174000Y-103320000D03*
%TD*%
D25*
%TO.C,C29*%
X108012000Y-100016000D03*
X107052000Y-100016000D03*
%TD*%
D18*
%TO.C,C8*%
X138701000Y-87381000D03*
X139661000Y-87381000D03*
%TD*%
D26*
%TO.C,R12*%
X146923000Y-95062000D03*
X148573000Y-95062000D03*
%TD*%
D27*
%TO.C,U1*%
X88642500Y-99453000D03*
X88642500Y-99953000D03*
X88642500Y-100453000D03*
X88642500Y-100953000D03*
X88642500Y-101453000D03*
X88642500Y-101953000D03*
X88642500Y-102453000D03*
X88642500Y-102953000D03*
X88642500Y-103453000D03*
X88642500Y-103953000D03*
X88642500Y-104453000D03*
X88642500Y-104953000D03*
D28*
X90055000Y-106365500D03*
X90555000Y-106365500D03*
X91055000Y-106365500D03*
X91555000Y-106365500D03*
X92055000Y-106365500D03*
X92555000Y-106365500D03*
X93055000Y-106365500D03*
X93555000Y-106365500D03*
X94055000Y-106365500D03*
X94555000Y-106365500D03*
X95055000Y-106365500D03*
X95555000Y-106365500D03*
D27*
X96967500Y-104953000D03*
X96967500Y-104453000D03*
X96967500Y-103953000D03*
X96967500Y-103453000D03*
X96967500Y-102953000D03*
X96967500Y-102453000D03*
X96967500Y-101953000D03*
X96967500Y-101453000D03*
X96967500Y-100953000D03*
X96967500Y-100453000D03*
X96967500Y-99953000D03*
X96967500Y-99453000D03*
D28*
X95555000Y-98040500D03*
X95055000Y-98040500D03*
X94555000Y-98040500D03*
X94055000Y-98040500D03*
X93555000Y-98040500D03*
X93055000Y-98040500D03*
X92555000Y-98040500D03*
X92055000Y-98040500D03*
X91555000Y-98040500D03*
X91055000Y-98040500D03*
X90555000Y-98040500D03*
X90055000Y-98040500D03*
%TD*%
D18*
%TO.C,C19*%
X146016000Y-99387000D03*
X146976000Y-99387000D03*
%TD*%
D25*
%TO.C,C10*%
X81368000Y-88781000D03*
X80408000Y-88781000D03*
%TD*%
%TO.C,C27*%
X121347000Y-100267000D03*
X120387000Y-100267000D03*
%TD*%
%TO.C,C14*%
X148373000Y-93539000D03*
X147413000Y-93539000D03*
%TD*%
D29*
%TO.C,R16*%
X134026000Y-95851000D03*
X134026000Y-94201000D03*
%TD*%
D25*
%TO.C,C9*%
X81368000Y-87192000D03*
X80408000Y-87192000D03*
%TD*%
D19*
%TO.C,C35*%
X84017000Y-100323000D03*
X84017000Y-101283000D03*
%TD*%
D30*
%TO.C,Q1*%
X101718500Y-89504000D03*
X101718500Y-91404000D03*
X103593500Y-90454000D03*
%TD*%
D31*
%TO.C,U2*%
X125160000Y-98044000D03*
X125160000Y-99314000D03*
X125160000Y-100584000D03*
X125160000Y-101854000D03*
X125160000Y-103124000D03*
X125160000Y-104394000D03*
X125160000Y-105664000D03*
X130110000Y-105664000D03*
X130110000Y-104394000D03*
X130110000Y-103124000D03*
X130110000Y-101854000D03*
X130110000Y-100584000D03*
X130110000Y-99314000D03*
X130110000Y-98044000D03*
%TD*%
D32*
%TO.C,U8*%
X136802000Y-100237000D03*
X136802000Y-99837000D03*
X136802000Y-99437000D03*
D33*
X136102000Y-98737000D03*
X135702000Y-98737000D03*
X135302000Y-98737000D03*
D32*
X134602000Y-99437000D03*
X134602000Y-99837000D03*
X134602000Y-100237000D03*
D33*
X135302000Y-100937000D03*
X135702000Y-100937000D03*
X136102000Y-100937000D03*
D34*
X135702000Y-99837000D03*
D35*
X135702000Y-99837000D03*
%TD*%
D36*
%TO.C,R8*%
X79610000Y-98656000D03*
X79610000Y-100306000D03*
%TD*%
D22*
%TO.C,R22*%
X154360000Y-106101000D03*
X152710000Y-106101000D03*
%TD*%
D37*
%TO.C,U4*%
X84564000Y-87071500D03*
X85514000Y-87071500D03*
X86464000Y-87071500D03*
X86464000Y-84796500D03*
X84564000Y-84796500D03*
%TD*%
D26*
%TO.C,RX1*%
X107194000Y-110365000D03*
X108844000Y-110365000D03*
%TD*%
D19*
%TO.C,C15*%
X82747000Y-100255000D03*
X82747000Y-101215000D03*
%TD*%
D26*
%TO.C,R13*%
X146996000Y-92007000D03*
X148646000Y-92007000D03*
%TD*%
D16*
%TO.C,J5*%
X102839000Y-102663000D03*
D17*
X102839000Y-100123000D03*
X102839000Y-97583000D03*
X102839000Y-95043000D03*
%TD*%
D16*
%TO.C,J2*%
X76599000Y-97583000D03*
D17*
X76599000Y-100123000D03*
X76599000Y-102663000D03*
X76599000Y-105203000D03*
X76599000Y-107743000D03*
X76599000Y-110283000D03*
%TD*%
D38*
%TO.C,C2*%
X90036000Y-87010500D03*
X90036000Y-84935500D03*
%TD*%
D39*
%TO.C,U5*%
X138097500Y-88974000D03*
X138097500Y-89924000D03*
X138097500Y-90874000D03*
X140372500Y-90874000D03*
X140372500Y-88974000D03*
%TD*%
D40*
%TO.C,U6*%
X140358000Y-94860000D03*
X140358000Y-94210000D03*
X140358000Y-93560000D03*
X138458000Y-93560000D03*
X138458000Y-94860000D03*
%TD*%
D36*
%TO.C,R7*%
X143176000Y-86610000D03*
X143176000Y-88260000D03*
%TD*%
D22*
%TO.C,R6*%
X149897000Y-89093000D03*
X148247000Y-89093000D03*
%TD*%
D41*
%TO.C,R2*%
X98210000Y-89522000D03*
X99230000Y-89522000D03*
%TD*%
D42*
%TO.C,U11*%
X156630000Y-97205000D03*
X156630000Y-98005000D03*
X158030000Y-98005000D03*
X158030000Y-97205000D03*
%TD*%
D43*
%TO.C,TVS1*%
X112339000Y-110386000D03*
X116139000Y-110386000D03*
%TD*%
D29*
%TO.C,R5*%
X151231000Y-95282000D03*
X151231000Y-93632000D03*
%TD*%
%TO.C,R10*%
X149272000Y-100773000D03*
X149272000Y-99123000D03*
%TD*%
D19*
%TO.C,C16*%
X143829000Y-96680000D03*
X143829000Y-97640000D03*
%TD*%
D26*
%TO.C,R21*%
X146614000Y-103845000D03*
X148264000Y-103845000D03*
%TD*%
D25*
%TO.C,C23*%
X135594000Y-104516000D03*
X134634000Y-104516000D03*
%TD*%
D44*
%TO.C,R3*%
X124356500Y-86863000D03*
X127281500Y-86863000D03*
%TD*%
D45*
%TO.C,D2*%
X133206000Y-86816000D03*
X129906000Y-86816000D03*
%TD*%
D46*
%TO.C,U3*%
X119149000Y-89429000D03*
X119149000Y-86889000D03*
X119149000Y-84349000D03*
X109649000Y-84349000D03*
X109649000Y-86889000D03*
X109649000Y-89429000D03*
%TD*%
D18*
%TO.C,C7*%
X138701000Y-85919000D03*
X139661000Y-85919000D03*
%TD*%
D26*
%TO.C,RY1*%
X119640000Y-110353000D03*
X121290000Y-110353000D03*
%TD*%
D25*
%TO.C,C26*%
X121525000Y-97609000D03*
X120565000Y-97609000D03*
%TD*%
D36*
%TO.C,R9*%
X143176000Y-83024000D03*
X143176000Y-84674000D03*
%TD*%
D47*
%TO.C,R20*%
X154600000Y-91045000D03*
X154600000Y-92065000D03*
%TD*%
D25*
%TO.C,C28*%
X121347000Y-101475000D03*
X120387000Y-101475000D03*
%TD*%
D18*
%TO.C,C22*%
X137964000Y-102429000D03*
X138924000Y-102429000D03*
%TD*%
D19*
%TO.C,C6*%
X134609000Y-89946000D03*
X134609000Y-90906000D03*
%TD*%
D16*
%TO.C,J3*%
X84785000Y-111474000D03*
D17*
X82245000Y-111474000D03*
%TD*%
D48*
%TO.C,C3*%
X131673000Y-89962000D03*
X131673000Y-91512000D03*
%TD*%
D49*
%TO.C,C1*%
X92957000Y-84973500D03*
X92957000Y-87048500D03*
%TD*%
D31*
%TO.C,U9*%
X111802000Y-103018000D03*
X111802000Y-104288000D03*
X111802000Y-105558000D03*
X111802000Y-106828000D03*
X116752000Y-106828000D03*
X116752000Y-105558000D03*
X116752000Y-104288000D03*
X116752000Y-103018000D03*
%TD*%
D25*
%TO.C,C30*%
X108012000Y-101224000D03*
X107052000Y-101224000D03*
%TD*%
D22*
%TO.C,R14*%
X139629000Y-97438000D03*
X137979000Y-97438000D03*
%TD*%
D19*
%TO.C,C13*%
X152973000Y-88422000D03*
X152973000Y-89382000D03*
%TD*%
D39*
%TO.C,U7*%
X141272500Y-99949000D03*
X141272500Y-100899000D03*
X141272500Y-101849000D03*
X143547500Y-101849000D03*
X143547500Y-100899000D03*
X143547500Y-99949000D03*
%TD*%
D22*
%TO.C,R11*%
X148573000Y-96997000D03*
X146923000Y-96997000D03*
%TD*%
D18*
%TO.C,C20*%
X138853000Y-98870000D03*
X139813000Y-98870000D03*
%TD*%
D25*
%TO.C,C24*%
X135594000Y-103308000D03*
X134634000Y-103308000D03*
%TD*%
D18*
%TO.C,C11*%
X80408000Y-84020000D03*
X81368000Y-84020000D03*
%TD*%
D26*
%TO.C,R17*%
X121088000Y-103377000D03*
X122738000Y-103377000D03*
%TD*%
D50*
%TO.C,C36*%
X159695000Y-98095000D03*
X159695000Y-97135000D03*
%TD*%
%TO.C,C33*%
X90113000Y-95692000D03*
X90113000Y-94732000D03*
%TD*%
D51*
%TO.C,L1*%
X113219200Y-93753200D03*
X115419200Y-93753200D03*
X115419200Y-99153200D03*
X113219200Y-99153200D03*
%TD*%
D52*
%TO.C,C4*%
X139433000Y-84103000D03*
X137883000Y-84103000D03*
%TD*%
D22*
%TO.C,R4*%
X155866000Y-85597000D03*
X154216000Y-85597000D03*
%TD*%
D18*
%TO.C,C34*%
X79600000Y-101754000D03*
X80560000Y-101754000D03*
%TD*%
D19*
%TO.C,C17*%
X142432000Y-96618000D03*
X142432000Y-97578000D03*
%TD*%
D25*
%TO.C,C25*%
X121525000Y-98941000D03*
X120565000Y-98941000D03*
%TD*%
D53*
%TO.C,D1*%
X129165500Y-90672000D03*
X124490500Y-90672000D03*
%TD*%
D22*
%TO.C,Rz1*%
X83229000Y-103896000D03*
X81579000Y-103896000D03*
%TD*%
D36*
%TO.C,R15*%
X135550000Y-94243000D03*
X135550000Y-95893000D03*
%TD*%
D18*
%TO.C,C18*%
X146016000Y-100592000D03*
X146976000Y-100592000D03*
%TD*%
D54*
%TO.C,R1*%
X84025500Y-91619000D03*
X89950500Y-91619000D03*
%TD*%
D26*
%TO.C,Rz2*%
X97073000Y-108057000D03*
X98723000Y-108057000D03*
%TD*%
D16*
%TO.C,J4*%
X90671000Y-111473000D03*
D17*
X93211000Y-111473000D03*
X95751000Y-111473000D03*
%TD*%
%LPD*%
M02*
