M48
; DRILL file {KiCad 7.0.11+dfsg-1build4} date Sun 19 Jan 2025 09:07:39 AM EST
; FORMAT={-:-/ absolute / metric / decimal}
; #@! TF.CreationDate,2025-01-19T09:07:39-05:00
; #@! TF.GenerationSoftware,Kicad,Pcbnew,7.0.11+dfsg-1build4
; #@! TF.FileFunction,Plated,1,2,PTH
FMAT,2
METRIC
; #@! TA.AperFunction,Plated,PTH,ViaDrill
T1C0.250
; #@! TA.AperFunction,Plated,PTH,ViaDrill
T2C0.300
; #@! TA.AperFunction,Plated,PTH,ComponentDrill
T3C0.300
; #@! TA.AperFunction,Plated,PTH,ViaDrill
T4C0.400
; #@! TA.AperFunction,Plated,PTH,ViaDrill
T5C0.500
; #@! TA.AperFunction,Plated,PTH,ComponentDrill
T6C1.000
; #@! TA.AperFunction,Plated,PTH,ComponentDrill
T7C1.250
%
G90
G05
T1
X85.852Y-107.188
X86.233Y-100.965
T2
X79.629Y-84.836
X79.629Y-88.011
X79.883Y-103.886
X81.534Y-100.965
X83.058Y-86.487
X83.312Y-97.028
X83.312Y-98.679
X88.519Y-97.409
X89.535Y-108.077
X91.694Y-94.615
X91.948Y-108.077
X95.123Y-101.854
X97.028Y-92.075
X97.79Y-97.663
X98.806Y-101.473
X98.933Y-94.361
X99.06Y-104.394
X100.203Y-86.741
X100.33Y-107.95
X102.616Y-84.328
X107.188Y-86.868
X109.474Y-104.394
X109.982Y-106.934
X118.618Y-105.537
X118.618Y-106.934
X119.888Y-103.632
X122.555Y-85.598
X123.19Y-97.282
X123.19Y-98.806
X123.317Y-104.775
X131.953Y-98.044
X132.548Y-102.529
X133.223Y-99.949
X133.223Y-101.219
X133.223Y-103.632
X133.223Y-104.775
X135.89Y-93.218
X136.398Y-85.979
X137.414Y-95.758
X138.237Y-100.391
X139.192Y-99.949
X140.208Y-102.997
X141.478Y-98.171
X141.859Y-89.027
X141.986Y-90.424
X141.986Y-94.234
X142.748Y-91.44
X143.002Y-92.71
X143.764Y-89.662
X144.145Y-93.218
X145.923Y-92.964
X145.923Y-102.743
X146.685Y-89.027
X148.082Y-99.949
X149.05Y-102.9
X151.511Y-100.584
X152.273Y-86.868
X153.797Y-93.218
X154.94Y-96.774
X154.94Y-101.854
X158.8Y-96.18
T3
X135.702Y-99.837
T4
X106.299Y-89.408
X106.299Y-93.218
T5
X79.756Y-90.17
X88.011Y-84.836
X92.964Y-88.9
X99.568Y-91.44
X104.394Y-93.218
X104.902Y-110.236
X114.319Y-96.503
X118.618Y-101.6
X123.698Y-110.236
T6
X76.599Y-97.583
X76.599Y-100.123
X76.599Y-102.663
X76.599Y-105.203
X76.599Y-107.743
X76.599Y-110.283
X76.677Y-87.862
X82.245Y-111.474
X84.785Y-111.474
X90.671Y-111.473
X93.211Y-111.473
X95.751Y-111.473
X102.839Y-95.043
X102.839Y-97.583
X102.839Y-100.123
X102.839Y-102.663
X126.158Y-94.903
X128.698Y-94.903
X131.238Y-94.903
T7
X158.174Y-90.22
X158.174Y-103.32
M30
