%TF.GenerationSoftware,KiCad,Pcbnew,7.0.11+dfsg-1build4*%
%TF.CreationDate,2025-01-19T09:07:44-05:00*%
%TF.ProjectId,ThermocoupleBoard,54686572-6d6f-4636-9f75-706c65426f61,rev?*%
%TF.SameCoordinates,Original*%
%TF.FileFunction,Copper,L1,Top*%
%TF.FilePolarity,Positive*%
%FSLAX46Y46*%
G04 Gerber Fmt 4.6, Leading zero omitted, Abs format (unit mm)*
G04 Created by KiCad (PCBNEW 7.0.11+dfsg-1build4) date 2025-01-19 09:07:44*
%MOMM*%
%LPD*%
G01*
G04 APERTURE LIST*
G04 Aperture macros list*
%AMRoundRect*
0 Rectangle with rounded corners*
0 $1 Rounding radius*
0 $2 $3 $4 $5 $6 $7 $8 $9 X,Y pos of 4 corners*
0 Add a 4 corners polygon primitive as box body*
4,1,4,$2,$3,$4,$5,$6,$7,$8,$9,$2,$3,0*
0 Add four circle primitives for the rounded corners*
1,1,$1+$1,$2,$3*
1,1,$1+$1,$4,$5*
1,1,$1+$1,$6,$7*
1,1,$1+$1,$8,$9*
0 Add four rect primitives between the rounded corners*
20,1,$1+$1,$2,$3,$4,$5,0*
20,1,$1+$1,$4,$5,$6,$7,0*
20,1,$1+$1,$6,$7,$8,$9,0*
20,1,$1+$1,$8,$9,$2,$3,0*%
G04 Aperture macros list end*
%TA.AperFunction,ComponentPad*%
%ADD10R,1.700000X1.700000*%
%TD*%
%TA.AperFunction,ComponentPad*%
%ADD11O,1.700000X1.700000*%
%TD*%
%TA.AperFunction,SMDPad,CuDef*%
%ADD12RoundRect,0.140000X-0.140000X-0.170000X0.140000X-0.170000X0.140000X0.170000X-0.140000X0.170000X0*%
%TD*%
%TA.AperFunction,SMDPad,CuDef*%
%ADD13RoundRect,0.140000X-0.170000X0.140000X-0.170000X-0.140000X0.170000X-0.140000X0.170000X0.140000X0*%
%TD*%
%TA.AperFunction,SMDPad,CuDef*%
%ADD14R,1.200000X1.200000*%
%TD*%
%TA.AperFunction,SMDPad,CuDef*%
%ADD15R,1.600000X1.500000*%
%TD*%
%TA.AperFunction,SMDPad,CuDef*%
%ADD16RoundRect,0.200000X0.200000X0.275000X-0.200000X0.275000X-0.200000X-0.275000X0.200000X-0.275000X0*%
%TD*%
%TA.AperFunction,ComponentPad*%
%ADD17RoundRect,0.500000X0.750000X-1.000000X0.750000X1.000000X-0.750000X1.000000X-0.750000X-1.000000X0*%
%TD*%
%TA.AperFunction,ComponentPad*%
%ADD18O,2.500000X3.000000*%
%TD*%
%TA.AperFunction,SMDPad,CuDef*%
%ADD19RoundRect,0.140000X0.140000X0.170000X-0.140000X0.170000X-0.140000X-0.170000X0.140000X-0.170000X0*%
%TD*%
%TA.AperFunction,SMDPad,CuDef*%
%ADD20RoundRect,0.200000X-0.200000X-0.275000X0.200000X-0.275000X0.200000X0.275000X-0.200000X0.275000X0*%
%TD*%
%TA.AperFunction,SMDPad,CuDef*%
%ADD21RoundRect,0.075000X-0.662500X-0.075000X0.662500X-0.075000X0.662500X0.075000X-0.662500X0.075000X0*%
%TD*%
%TA.AperFunction,SMDPad,CuDef*%
%ADD22RoundRect,0.075000X-0.075000X-0.662500X0.075000X-0.662500X0.075000X0.662500X-0.075000X0.662500X0*%
%TD*%
%TA.AperFunction,SMDPad,CuDef*%
%ADD23RoundRect,0.200000X0.275000X-0.200000X0.275000X0.200000X-0.275000X0.200000X-0.275000X-0.200000X0*%
%TD*%
%TA.AperFunction,SMDPad,CuDef*%
%ADD24RoundRect,0.150000X-0.587500X-0.150000X0.587500X-0.150000X0.587500X0.150000X-0.587500X0.150000X0*%
%TD*%
%TA.AperFunction,SMDPad,CuDef*%
%ADD25RoundRect,0.150000X-0.825000X-0.150000X0.825000X-0.150000X0.825000X0.150000X-0.825000X0.150000X0*%
%TD*%
%TA.AperFunction,SMDPad,CuDef*%
%ADD26O,0.700000X0.200000*%
%TD*%
%TA.AperFunction,SMDPad,CuDef*%
%ADD27O,0.200000X0.700000*%
%TD*%
%TA.AperFunction,ComponentPad*%
%ADD28C,0.600000*%
%TD*%
%TA.AperFunction,SMDPad,CuDef*%
%ADD29R,1.000000X1.000000*%
%TD*%
%TA.AperFunction,SMDPad,CuDef*%
%ADD30RoundRect,0.200000X-0.275000X0.200000X-0.275000X-0.200000X0.275000X-0.200000X0.275000X0.200000X0*%
%TD*%
%TA.AperFunction,SMDPad,CuDef*%
%ADD31RoundRect,0.150000X0.150000X-0.512500X0.150000X0.512500X-0.150000X0.512500X-0.150000X-0.512500X0*%
%TD*%
%TA.AperFunction,SMDPad,CuDef*%
%ADD32RoundRect,0.250000X0.475000X-0.337500X0.475000X0.337500X-0.475000X0.337500X-0.475000X-0.337500X0*%
%TD*%
%TA.AperFunction,SMDPad,CuDef*%
%ADD33RoundRect,0.150000X-0.512500X-0.150000X0.512500X-0.150000X0.512500X0.150000X-0.512500X0.150000X0*%
%TD*%
%TA.AperFunction,SMDPad,CuDef*%
%ADD34RoundRect,0.100000X0.225000X0.100000X-0.225000X0.100000X-0.225000X-0.100000X0.225000X-0.100000X0*%
%TD*%
%TA.AperFunction,SMDPad,CuDef*%
%ADD35RoundRect,0.135000X-0.135000X-0.185000X0.135000X-0.185000X0.135000X0.185000X-0.135000X0.185000X0*%
%TD*%
%TA.AperFunction,SMDPad,CuDef*%
%ADD36R,0.500000X0.300000*%
%TD*%
%TA.AperFunction,SMDPad,CuDef*%
%ADD37RoundRect,0.250000X-0.625000X-0.840000X0.625000X-0.840000X0.625000X0.840000X-0.625000X0.840000X0*%
%TD*%
%TA.AperFunction,SMDPad,CuDef*%
%ADD38RoundRect,0.250000X-0.312500X-0.625000X0.312500X-0.625000X0.312500X0.625000X-0.312500X0.625000X0*%
%TD*%
%TA.AperFunction,SMDPad,CuDef*%
%ADD39RoundRect,0.225000X0.225000X0.375000X-0.225000X0.375000X-0.225000X-0.375000X0.225000X-0.375000X0*%
%TD*%
%TA.AperFunction,SMDPad,CuDef*%
%ADD40R,3.000000X1.500000*%
%TD*%
%TA.AperFunction,SMDPad,CuDef*%
%ADD41RoundRect,0.135000X-0.185000X0.135000X-0.185000X-0.135000X0.185000X-0.135000X0.185000X0.135000X0*%
%TD*%
%TA.AperFunction,SMDPad,CuDef*%
%ADD42RoundRect,0.225000X-0.250000X0.225000X-0.250000X-0.225000X0.250000X-0.225000X0.250000X0.225000X0*%
%TD*%
%TA.AperFunction,SMDPad,CuDef*%
%ADD43RoundRect,0.250000X-0.475000X0.337500X-0.475000X-0.337500X0.475000X-0.337500X0.475000X0.337500X0*%
%TD*%
%TA.AperFunction,SMDPad,CuDef*%
%ADD44RoundRect,0.140000X0.170000X-0.140000X0.170000X0.140000X-0.170000X0.140000X-0.170000X-0.140000X0*%
%TD*%
%TA.AperFunction,SMDPad,CuDef*%
%ADD45R,1.400000X3.000000*%
%TD*%
%TA.AperFunction,SMDPad,CuDef*%
%ADD46RoundRect,0.225000X0.225000X0.250000X-0.225000X0.250000X-0.225000X-0.250000X0.225000X-0.250000X0*%
%TD*%
%TA.AperFunction,SMDPad,CuDef*%
%ADD47RoundRect,0.249999X0.512501X1.075001X-0.512501X1.075001X-0.512501X-1.075001X0.512501X-1.075001X0*%
%TD*%
%TA.AperFunction,SMDPad,CuDef*%
%ADD48RoundRect,0.250000X-0.362500X-1.425000X0.362500X-1.425000X0.362500X1.425000X-0.362500X1.425000X0*%
%TD*%
%TA.AperFunction,ViaPad*%
%ADD49C,0.600000*%
%TD*%
%TA.AperFunction,ViaPad*%
%ADD50C,0.800000*%
%TD*%
%TA.AperFunction,ViaPad*%
%ADD51C,1.000000*%
%TD*%
%TA.AperFunction,ViaPad*%
%ADD52C,0.500000*%
%TD*%
%TA.AperFunction,Conductor*%
%ADD53C,0.500000*%
%TD*%
%TA.AperFunction,Conductor*%
%ADD54C,0.350000*%
%TD*%
%TA.AperFunction,Conductor*%
%ADD55C,0.200000*%
%TD*%
%TA.AperFunction,Conductor*%
%ADD56C,0.250000*%
%TD*%
%TA.AperFunction,Conductor*%
%ADD57C,0.750000*%
%TD*%
%TA.AperFunction,Conductor*%
%ADD58C,0.300000*%
%TD*%
G04 APERTURE END LIST*
D10*
%TO.P,J6,1,Pin_1*%
%TO.N,3V3-ISO*%
X126158000Y-94903000D03*
D11*
%TO.P,J6,2,Pin_2*%
%TO.N,GND2*%
X128698000Y-94903000D03*
%TO.P,J6,3,Pin_3*%
%TO.N,/UPDI*%
X131238000Y-94903000D03*
%TD*%
D12*
%TO.P,C21,1*%
%TO.N,3V3-ISO*%
X137964000Y-103634000D03*
%TO.P,C21,2*%
%TO.N,GNDA*%
X138924000Y-103634000D03*
%TD*%
D13*
%TO.P,C5,1*%
%TO.N,Net-(D1-K)*%
X133212000Y-89881000D03*
%TO.P,C5,2*%
%TO.N,GND2*%
X133212000Y-90841000D03*
%TD*%
D14*
%TO.P,RV1,1,1*%
%TO.N,unconnected-(RV1-Pad1)*%
X147659670Y-83305000D03*
D15*
%TO.P,RV1,2,2*%
%TO.N,Net-(U6--)*%
X146659670Y-86555000D03*
D14*
%TO.P,RV1,3,3*%
%TO.N,Net-(R9-Pad1)*%
X145659670Y-83305000D03*
%TD*%
D16*
%TO.P,Rz3,1*%
%TO.N,Net-(U1-PA12)*%
X94913000Y-94819000D03*
%TO.P,Rz3,2*%
%TO.N,GND1*%
X93263000Y-94819000D03*
%TD*%
D10*
%TO.P,J1,1,Pin_1*%
%TO.N,Net-(J1-Pin_1)*%
X76677000Y-87862000D03*
%TD*%
D12*
%TO.P,C12,1*%
%TO.N,GND1*%
X80357000Y-85662000D03*
%TO.P,C12,2*%
%TO.N,3V3-1*%
X81317000Y-85662000D03*
%TD*%
D17*
%TO.P,TC1,1,+*%
%TO.N,Net-(TC1-+)*%
X158174000Y-90220000D03*
D18*
%TO.P,TC1,2,-*%
%TO.N,Net-(TC1--)*%
X158174000Y-103320000D03*
%TD*%
D19*
%TO.P,C29,1*%
%TO.N,3V3-1*%
X108012000Y-100016000D03*
%TO.P,C29,2*%
%TO.N,GND1*%
X107052000Y-100016000D03*
%TD*%
D12*
%TO.P,C8,1*%
%TO.N,GND2*%
X138701000Y-87381000D03*
%TO.P,C8,2*%
%TO.N,3V3-ISO*%
X139661000Y-87381000D03*
%TD*%
D20*
%TO.P,R12,1*%
%TO.N,Net-(R11-Pad2)*%
X146923000Y-95062000D03*
%TO.P,R12,2*%
%TO.N,Net-(C13-Pad2)*%
X148573000Y-95062000D03*
%TD*%
D21*
%TO.P,U1,1,PA0*%
%TO.N,Net-(U1-PA0)*%
X88642500Y-99453000D03*
%TO.P,U1,2,PA1*%
X88642500Y-99953000D03*
%TO.P,U1,3,PA28*%
X88642500Y-100453000D03*
%TO.P,U1,4,RST_N*%
%TO.N,Net-(J3-Pin_1)*%
X88642500Y-100953000D03*
%TO.P,U1,5,PA31*%
%TO.N,Net-(U1-PA0)*%
X88642500Y-101453000D03*
%TO.P,U1,6,VDD*%
%TO.N,3V3-1*%
X88642500Y-101953000D03*
%TO.P,U1,7,VSS*%
%TO.N,GND1*%
X88642500Y-102453000D03*
%TO.P,U1,8,PA2_ROSC*%
%TO.N,/Output MCU/CS*%
X88642500Y-102953000D03*
%TO.P,U1,9,PA3_LFXIN*%
%TO.N,Net-(U1-PA0)*%
X88642500Y-103453000D03*
%TO.P,U1,10,PA4_LFXOUT*%
%TO.N,/Output MCU/MISO*%
X88642500Y-103953000D03*
%TO.P,U1,11,PA5_HFXIN*%
%TO.N,/Output MCU/MOSI*%
X88642500Y-104453000D03*
%TO.P,U1,12,PA6_HFXOUT*%
%TO.N,/Output MCU/SCK*%
X88642500Y-104953000D03*
D22*
%TO.P,U1,13,PA7*%
%TO.N,Net-(U1-PA10)*%
X90055000Y-106365500D03*
%TO.P,U1,14,PB2*%
%TO.N,/Output MCU/DAC-High*%
X90555000Y-106365500D03*
%TO.P,U1,15,PB3*%
%TO.N,/Output MCU/DAC-Low*%
X91055000Y-106365500D03*
%TO.P,U1,16,PA8*%
%TO.N,Net-(U1-PA10)*%
X91555000Y-106365500D03*
%TO.P,U1,17,PA9*%
X92055000Y-106365500D03*
%TO.P,U1,18,PA10*%
X92555000Y-106365500D03*
%TO.P,U1,19,PA11*%
X93055000Y-106365500D03*
%TO.P,U1,20,PB6*%
X93555000Y-106365500D03*
%TO.P,U1,21,PB7*%
X94055000Y-106365500D03*
%TO.P,U1,22,PB8*%
X94555000Y-106365500D03*
%TO.P,U1,23,PB9*%
X95055000Y-106365500D03*
%TO.P,U1,24,PB14*%
X95555000Y-106365500D03*
D21*
%TO.P,U1,25,PB15*%
%TO.N,ISO-MISO*%
X96967500Y-104953000D03*
%TO.P,U1,26,PB16*%
%TO.N,ISO-MOSI*%
X96967500Y-104453000D03*
%TO.P,U1,27,PA12*%
%TO.N,Net-(U1-PA12)*%
X96967500Y-103953000D03*
%TO.P,U1,28,PA13*%
X96967500Y-103453000D03*
%TO.P,U1,29,PA14*%
X96967500Y-102953000D03*
%TO.P,U1,30,PA15_A1_0*%
%TO.N,Net-(J1-Pin_1)*%
X96967500Y-102453000D03*
%TO.P,U1,31,PA16_A1_1*%
%TO.N,Net-(U1-PA12)*%
X96967500Y-101953000D03*
%TO.P,U1,32,PA17_A1_2*%
X96967500Y-101453000D03*
%TO.P,U1,33,PA18_A1_3*%
X96967500Y-100953000D03*
%TO.P,U1,34,PA19_SWDIO*%
%TO.N,/Output MCU/SWDIO*%
X96967500Y-100453000D03*
%TO.P,U1,35,PA20_SWCLK*%
%TO.N,/Output MCU/SWCLK*%
X96967500Y-99953000D03*
%TO.P,U1,36,PB17_A1_4*%
%TO.N,150KHz from U1*%
X96967500Y-99453000D03*
D22*
%TO.P,U1,37,PB18_A1_5*%
%TO.N,Net-(U1-PA12)*%
X95555000Y-98040500D03*
%TO.P,U1,38,PB19_A1_6*%
X95055000Y-98040500D03*
%TO.P,U1,39,PA21_A1_7_VREF-*%
X94555000Y-98040500D03*
%TO.P,U1,40,PA22_A0_7*%
X94055000Y-98040500D03*
%TO.P,U1,41,PB20_A0_6*%
X93555000Y-98040500D03*
%TO.P,U1,42,PB24_A0_5*%
X93055000Y-98040500D03*
%TO.P,U1,43,PA23_VREF+*%
X92555000Y-98040500D03*
%TO.P,U1,44,PA24_A0_3*%
X92055000Y-98040500D03*
%TO.P,U1,45,PA25_A0_2*%
X91555000Y-98040500D03*
%TO.P,U1,46,PA26_A0_1*%
X91055000Y-98040500D03*
%TO.P,U1,47,PA27_A0_0*%
X90555000Y-98040500D03*
%TO.P,U1,48,VCORE*%
%TO.N,Net-(U1-VCORE)*%
X90055000Y-98040500D03*
%TD*%
D12*
%TO.P,C19,1*%
%TO.N,3V3-ISO*%
X146016000Y-99387000D03*
%TO.P,C19,2*%
%TO.N,GNDA*%
X146976000Y-99387000D03*
%TD*%
D19*
%TO.P,C10,1*%
%TO.N,VCC*%
X81368000Y-88781000D03*
%TO.P,C10,2*%
%TO.N,GND1*%
X80408000Y-88781000D03*
%TD*%
%TO.P,C27,1*%
%TO.N,3V3-ISO*%
X121347000Y-100267000D03*
%TO.P,C27,2*%
%TO.N,GND2*%
X120387000Y-100267000D03*
%TD*%
%TO.P,C14,1*%
%TO.N,Net-(C13-Pad2)*%
X148373000Y-93539000D03*
%TO.P,C14,2*%
%TO.N,GNDA*%
X147413000Y-93539000D03*
%TD*%
D23*
%TO.P,R16,1*%
%TO.N,/UPDI*%
X134026000Y-95851000D03*
%TO.P,R16,2*%
%TO.N,GND2*%
X134026000Y-94201000D03*
%TD*%
D19*
%TO.P,C9,1*%
%TO.N,VCC*%
X81368000Y-87192000D03*
%TO.P,C9,2*%
%TO.N,GND1*%
X80408000Y-87192000D03*
%TD*%
D13*
%TO.P,C35,1*%
%TO.N,3V3-1*%
X84017000Y-100323000D03*
%TO.P,C35,2*%
%TO.N,GND1*%
X84017000Y-101283000D03*
%TD*%
D24*
%TO.P,Q1,1,G*%
%TO.N,Net-(Q1-G)*%
X101718500Y-89504000D03*
%TO.P,Q1,2,S*%
%TO.N,GND1*%
X101718500Y-91404000D03*
%TO.P,Q1,3,D*%
%TO.N,Net-(Q1-D)*%
X103593500Y-90454000D03*
%TD*%
D25*
%TO.P,U2,1,VCC*%
%TO.N,3V3-ISO*%
X125160000Y-98044000D03*
%TO.P,U2,2,PA4*%
%TO.N,Net-(U2-PA4)*%
X125160000Y-99314000D03*
%TO.P,U2,3,PA5*%
%TO.N,Net-(U2-PA5)*%
X125160000Y-100584000D03*
%TO.P,U2,4,PA6*%
X125160000Y-101854000D03*
%TO.P,U2,5,PA7*%
X125160000Y-103124000D03*
%TO.P,U2,6,PB3*%
%TO.N,Net-(U2-PB3)*%
X125160000Y-104394000D03*
%TO.P,U2,7,PB2*%
%TO.N,Net-(U2-PB2)*%
X125160000Y-105664000D03*
%TO.P,U2,8,PB1*%
%TO.N,SDA*%
X130110000Y-105664000D03*
%TO.P,U2,9,PB0*%
%TO.N,SCL*%
X130110000Y-104394000D03*
%TO.P,U2,10,~{RESET}/PA0*%
%TO.N,/UPDI*%
X130110000Y-103124000D03*
%TO.P,U2,11,PA1*%
%TO.N,Net-(U2-PA1)*%
X130110000Y-101854000D03*
%TO.P,U2,12,PA2*%
%TO.N,Net-(U2-PA2)*%
X130110000Y-100584000D03*
%TO.P,U2,13,PA3*%
%TO.N,Net-(U2-PA3)*%
X130110000Y-99314000D03*
%TO.P,U2,14,GND*%
%TO.N,GND2*%
X130110000Y-98044000D03*
%TD*%
D26*
%TO.P,U8,1,Agnd*%
%TO.N,GNDA*%
X136802000Y-100237000D03*
%TO.P,U8,2,Aref-*%
X136802000Y-99837000D03*
%TO.P,U8,3,Aref+*%
%TO.N,Net-(U7-OUT)*%
X136802000Y-99437000D03*
D27*
%TO.P,U8,4,CH1*%
%TO.N,Net-(U8-CH1)*%
X136102000Y-98737000D03*
%TO.P,U8,5,CH0*%
%TO.N,Net-(U6-OUT)*%
X135702000Y-98737000D03*
%TO.P,U8,6,CS*%
%TO.N,Net-(U2-PA4)*%
X135302000Y-98737000D03*
D26*
%TO.P,U8,7,SCK*%
%TO.N,Net-(U2-PA3)*%
X134602000Y-99437000D03*
%TO.P,U8,8,MOSI*%
%TO.N,Net-(U2-PA1)*%
X134602000Y-99837000D03*
%TO.P,U8,9,MISO*%
%TO.N,Net-(U2-PA2)*%
X134602000Y-100237000D03*
D27*
%TO.P,U8,10,Dgnd*%
%TO.N,GND2*%
X135302000Y-100937000D03*
%TO.P,U8,11,Dvdd*%
%TO.N,3V3-ISO*%
X135702000Y-100937000D03*
%TO.P,U8,12,Avdd*%
X136102000Y-100937000D03*
D28*
%TO.P,U8,13,PAD*%
%TO.N,GNDA*%
X135702000Y-99837000D03*
D29*
X135702000Y-99837000D03*
%TD*%
D30*
%TO.P,R8,1*%
%TO.N,3V3-1*%
X79610000Y-98656000D03*
%TO.P,R8,2*%
%TO.N,Net-(J3-Pin_1)*%
X79610000Y-100306000D03*
%TD*%
D16*
%TO.P,R22,1*%
%TO.N,3V3-ISO*%
X154360000Y-106101000D03*
%TO.P,R22,2*%
%TO.N,SDA*%
X152710000Y-106101000D03*
%TD*%
D31*
%TO.P,U4,1,VIN*%
%TO.N,VCC*%
X84564000Y-87071500D03*
%TO.P,U4,2,GND*%
%TO.N,GND1*%
X85514000Y-87071500D03*
%TO.P,U4,3,EN*%
%TO.N,VCC*%
X86464000Y-87071500D03*
%TO.P,U4,4,NC*%
%TO.N,GND1*%
X86464000Y-84796500D03*
%TO.P,U4,5,VOUT*%
%TO.N,3V3-1*%
X84564000Y-84796500D03*
%TD*%
D20*
%TO.P,RX1,1*%
%TO.N,GND1*%
X107194000Y-110365000D03*
%TO.P,RX1,2*%
%TO.N,Net-(TVS1-A1)*%
X108844000Y-110365000D03*
%TD*%
D13*
%TO.P,C15,1*%
%TO.N,3V3-1*%
X82747000Y-100255000D03*
%TO.P,C15,2*%
%TO.N,GND1*%
X82747000Y-101215000D03*
%TD*%
D20*
%TO.P,R13,1*%
%TO.N,GNDA*%
X146996000Y-92007000D03*
%TO.P,R13,2*%
%TO.N,Net-(C13-Pad2)*%
X148646000Y-92007000D03*
%TD*%
D10*
%TO.P,J5,1,Pin_1*%
%TO.N,3V3-1*%
X102839000Y-102663000D03*
D11*
%TO.P,J5,2,Pin_2*%
%TO.N,GND1*%
X102839000Y-100123000D03*
%TO.P,J5,3,Pin_3*%
%TO.N,/Output MCU/SWDIO*%
X102839000Y-97583000D03*
%TO.P,J5,4,Pin_4*%
%TO.N,/Output MCU/SWCLK*%
X102839000Y-95043000D03*
%TD*%
D10*
%TO.P,J2,1,Pin_1*%
%TO.N,VCC*%
X76599000Y-97583000D03*
D11*
%TO.P,J2,2,Pin_2*%
%TO.N,GND1*%
X76599000Y-100123000D03*
%TO.P,J2,3,Pin_3*%
%TO.N,/Output MCU/CS*%
X76599000Y-102663000D03*
%TO.P,J2,4,Pin_4*%
%TO.N,/Output MCU/MISO*%
X76599000Y-105203000D03*
%TO.P,J2,5,Pin_5*%
%TO.N,/Output MCU/MOSI*%
X76599000Y-107743000D03*
%TO.P,J2,6,Pin_6*%
%TO.N,/Output MCU/SCK*%
X76599000Y-110283000D03*
%TD*%
D32*
%TO.P,C2,1*%
%TO.N,Net-(C2-Pad1)*%
X90036000Y-87010500D03*
%TO.P,C2,2*%
%TO.N,GND1*%
X90036000Y-84935500D03*
%TD*%
D33*
%TO.P,U5,1,VIN*%
%TO.N,Net-(D1-K)*%
X138097500Y-88974000D03*
%TO.P,U5,2,GND*%
%TO.N,GND2*%
X138097500Y-89924000D03*
%TO.P,U5,3,EN*%
%TO.N,Net-(D1-K)*%
X138097500Y-90874000D03*
%TO.P,U5,4,NC*%
%TO.N,GND2*%
X140372500Y-90874000D03*
%TO.P,U5,5,VOUT*%
%TO.N,3V3-ISO*%
X140372500Y-88974000D03*
%TD*%
D34*
%TO.P,U6,1,+*%
%TO.N,Net-(U6-+)*%
X140358000Y-94860000D03*
%TO.P,U6,2,GND*%
%TO.N,GNDA*%
X140358000Y-94210000D03*
%TO.P,U6,3,-*%
%TO.N,Net-(U6--)*%
X140358000Y-93560000D03*
%TO.P,U6,4,OUT*%
%TO.N,Net-(U6-OUT)*%
X138458000Y-93560000D03*
%TO.P,U6,5,VCC*%
%TO.N,3V3-ISO*%
X138458000Y-94860000D03*
%TD*%
D30*
%TO.P,R7,1*%
%TO.N,Net-(R7-Pad1)*%
X143176000Y-86610000D03*
%TO.P,R7,2*%
%TO.N,Net-(U6-OUT)*%
X143176000Y-88260000D03*
%TD*%
D16*
%TO.P,R6,1*%
%TO.N,Net-(C13-Pad2)*%
X149897000Y-89093000D03*
%TO.P,R6,2*%
%TO.N,Net-(U6--)*%
X148247000Y-89093000D03*
%TD*%
D35*
%TO.P,R2,1*%
%TO.N,150KHz from U1*%
X98210000Y-89522000D03*
%TO.P,R2,2*%
%TO.N,Net-(Q1-G)*%
X99230000Y-89522000D03*
%TD*%
D36*
%TO.P,U11,1,SDA*%
%TO.N,SDA*%
X156630000Y-97205000D03*
%TO.P,U11,2,SCL*%
%TO.N,SCL*%
X156630000Y-98005000D03*
%TO.P,U11,3,VDD*%
%TO.N,3V3-ISO*%
X158030000Y-98005000D03*
%TO.P,U11,4,VSS*%
%TO.N,GND2*%
X158030000Y-97205000D03*
%TD*%
D37*
%TO.P,TVS1,1,A1*%
%TO.N,Net-(TVS1-A1)*%
X112339000Y-110386000D03*
%TO.P,TVS1,2,A2*%
%TO.N,Net-(TVS1-A2)*%
X116139000Y-110386000D03*
%TD*%
D23*
%TO.P,R5,1*%
%TO.N,Net-(TC1--)*%
X151231000Y-95282000D03*
%TO.P,R5,2*%
%TO.N,Net-(C13-Pad2)*%
X151231000Y-93632000D03*
%TD*%
%TO.P,R10,1*%
%TO.N,Net-(U7-OUT)*%
X149272000Y-100773000D03*
%TO.P,R10,2*%
%TO.N,Net-(R10-Pad2)*%
X149272000Y-99123000D03*
%TD*%
D13*
%TO.P,C16,1*%
%TO.N,3V3-ISO*%
X143829000Y-96680000D03*
%TO.P,C16,2*%
%TO.N,GNDA*%
X143829000Y-97640000D03*
%TD*%
D20*
%TO.P,R21,1*%
%TO.N,3V3-ISO*%
X146614000Y-103845000D03*
%TO.P,R21,2*%
%TO.N,SCL*%
X148264000Y-103845000D03*
%TD*%
D19*
%TO.P,C23,1*%
%TO.N,3V3-ISO*%
X135594000Y-104516000D03*
%TO.P,C23,2*%
%TO.N,GND2*%
X134634000Y-104516000D03*
%TD*%
D38*
%TO.P,R3,1*%
%TO.N,Net-(R3-Pad1)*%
X124356500Y-86863000D03*
%TO.P,R3,2*%
%TO.N,Net-(D2-A)*%
X127281500Y-86863000D03*
%TD*%
D39*
%TO.P,D2,1,K*%
%TO.N,Net-(D1-K)*%
X133206000Y-86816000D03*
%TO.P,D2,2,A*%
%TO.N,Net-(D2-A)*%
X129906000Y-86816000D03*
%TD*%
D40*
%TO.P,U3,1*%
%TO.N,Net-(R3-Pad1)*%
X119149000Y-89429000D03*
%TO.P,U3,2*%
%TO.N,GND2*%
X119149000Y-86889000D03*
%TO.P,U3,3*%
X119149000Y-84349000D03*
%TO.P,U3,4*%
%TO.N,Net-(Q1-G)*%
X109649000Y-84349000D03*
%TO.P,U3,5*%
%TO.N,GND1*%
X109649000Y-86889000D03*
%TO.P,U3,6*%
%TO.N,3V3-1*%
X109649000Y-89429000D03*
%TD*%
D12*
%TO.P,C7,1*%
%TO.N,GND2*%
X138701000Y-85919000D03*
%TO.P,C7,2*%
%TO.N,3V3-ISO*%
X139661000Y-85919000D03*
%TD*%
D20*
%TO.P,RY1,1*%
%TO.N,Net-(TVS1-A2)*%
X119640000Y-110353000D03*
%TO.P,RY1,2*%
%TO.N,GND2*%
X121290000Y-110353000D03*
%TD*%
D19*
%TO.P,C26,1*%
%TO.N,3V3-ISO*%
X121525000Y-97609000D03*
%TO.P,C26,2*%
%TO.N,GND2*%
X120565000Y-97609000D03*
%TD*%
D30*
%TO.P,R9,1*%
%TO.N,Net-(R9-Pad1)*%
X143176000Y-83024000D03*
%TO.P,R9,2*%
%TO.N,Net-(R7-Pad1)*%
X143176000Y-84674000D03*
%TD*%
D41*
%TO.P,R20,1*%
%TO.N,Net-(TC1-+)*%
X154600000Y-91045000D03*
%TO.P,R20,2*%
%TO.N,GNDA*%
X154600000Y-92065000D03*
%TD*%
D19*
%TO.P,C28,1*%
%TO.N,3V3-ISO*%
X121347000Y-101475000D03*
%TO.P,C28,2*%
%TO.N,GND2*%
X120387000Y-101475000D03*
%TD*%
D12*
%TO.P,C22,1*%
%TO.N,3V3-ISO*%
X137964000Y-102429000D03*
%TO.P,C22,2*%
%TO.N,GNDA*%
X138924000Y-102429000D03*
%TD*%
D13*
%TO.P,C6,1*%
%TO.N,Net-(D1-K)*%
X134609000Y-89946000D03*
%TO.P,C6,2*%
%TO.N,GND2*%
X134609000Y-90906000D03*
%TD*%
D10*
%TO.P,J3,1,Pin_1*%
%TO.N,Net-(J3-Pin_1)*%
X84785000Y-111474000D03*
D11*
%TO.P,J3,2,Pin_2*%
%TO.N,GND1*%
X82245000Y-111474000D03*
%TD*%
D42*
%TO.P,C3,1*%
%TO.N,Net-(D1-K)*%
X131673000Y-89962000D03*
%TO.P,C3,2*%
%TO.N,GND2*%
X131673000Y-91512000D03*
%TD*%
D43*
%TO.P,C1,1*%
%TO.N,3V3-1*%
X92957000Y-84973500D03*
%TO.P,C1,2*%
%TO.N,GND1*%
X92957000Y-87048500D03*
%TD*%
D25*
%TO.P,U9,1,Vcc1*%
%TO.N,3V3-1*%
X111802000Y-103018000D03*
%TO.P,U9,2,IOA1*%
%TO.N,ISO-MOSI*%
X111802000Y-104288000D03*
%TO.P,U9,3,IOB1*%
%TO.N,ISO-MISO*%
X111802000Y-105558000D03*
%TO.P,U9,4,Gnd1*%
%TO.N,GND1*%
X111802000Y-106828000D03*
%TO.P,U9,5,Gnd2*%
%TO.N,GND2*%
X116752000Y-106828000D03*
%TO.P,U9,6,IOB2*%
%TO.N,Net-(U2-PB3)*%
X116752000Y-105558000D03*
%TO.P,U9,7,IOA2*%
%TO.N,Net-(U2-PB2)*%
X116752000Y-104288000D03*
%TO.P,U9,8,Vcc2*%
%TO.N,3V3-ISO*%
X116752000Y-103018000D03*
%TD*%
D19*
%TO.P,C30,1*%
%TO.N,3V3-1*%
X108012000Y-101224000D03*
%TO.P,C30,2*%
%TO.N,GND1*%
X107052000Y-101224000D03*
%TD*%
D16*
%TO.P,R14,1*%
%TO.N,GNDA*%
X139629000Y-97438000D03*
%TO.P,R14,2*%
%TO.N,Net-(U8-CH1)*%
X137979000Y-97438000D03*
%TD*%
D13*
%TO.P,C13,1*%
%TO.N,Net-(U6-+)*%
X152973000Y-88422000D03*
%TO.P,C13,2*%
%TO.N,Net-(C13-Pad2)*%
X152973000Y-89382000D03*
%TD*%
D33*
%TO.P,U7,1,OUT*%
%TO.N,Net-(U7-OUT)*%
X141272500Y-99949000D03*
%TO.P,U7,2,GND*%
%TO.N,GNDA*%
X141272500Y-100899000D03*
%TO.P,U7,3,GND*%
X141272500Y-101849000D03*
%TO.P,U7,4,~{SHDN}*%
%TO.N,3V3-ISO*%
X143547500Y-101849000D03*
%TO.P,U7,5,GND*%
%TO.N,GNDA*%
X143547500Y-100899000D03*
%TO.P,U7,6,VDD*%
%TO.N,3V3-ISO*%
X143547500Y-99949000D03*
%TD*%
D16*
%TO.P,R11,1*%
%TO.N,Net-(R10-Pad2)*%
X148573000Y-96997000D03*
%TO.P,R11,2*%
%TO.N,Net-(R11-Pad2)*%
X146923000Y-96997000D03*
%TD*%
D12*
%TO.P,C20,1*%
%TO.N,Net-(U7-OUT)*%
X138853000Y-98870000D03*
%TO.P,C20,2*%
%TO.N,GNDA*%
X139813000Y-98870000D03*
%TD*%
D19*
%TO.P,C24,1*%
%TO.N,3V3-ISO*%
X135594000Y-103308000D03*
%TO.P,C24,2*%
%TO.N,GND2*%
X134634000Y-103308000D03*
%TD*%
D12*
%TO.P,C11,1*%
%TO.N,GND1*%
X80408000Y-84020000D03*
%TO.P,C11,2*%
%TO.N,3V3-1*%
X81368000Y-84020000D03*
%TD*%
D20*
%TO.P,R17,1*%
%TO.N,GND2*%
X121088000Y-103377000D03*
%TO.P,R17,2*%
%TO.N,Net-(U2-PA5)*%
X122738000Y-103377000D03*
%TD*%
D44*
%TO.P,C36,1*%
%TO.N,3V3-ISO*%
X159695000Y-98095000D03*
%TO.P,C36,2*%
%TO.N,GND2*%
X159695000Y-97135000D03*
%TD*%
%TO.P,C33,1*%
%TO.N,Net-(U1-VCORE)*%
X90113000Y-95692000D03*
%TO.P,C33,2*%
%TO.N,GND1*%
X90113000Y-94732000D03*
%TD*%
D45*
%TO.P,L1,1*%
%TO.N,Net-(Q1-D)*%
X113219200Y-93753200D03*
%TO.P,L1,2*%
%TO.N,Net-(D1-A)*%
X115419200Y-93753200D03*
%TO.P,L1,3*%
%TO.N,Net-(C2-Pad1)*%
X115419200Y-99153200D03*
%TO.P,L1,4*%
%TO.N,GND2*%
X113219200Y-99153200D03*
%TD*%
D46*
%TO.P,C4,1*%
%TO.N,3V3-ISO*%
X139433000Y-84103000D03*
%TO.P,C4,2*%
%TO.N,GND2*%
X137883000Y-84103000D03*
%TD*%
D16*
%TO.P,R4,1*%
%TO.N,Net-(TC1-+)*%
X155866000Y-85597000D03*
%TO.P,R4,2*%
%TO.N,Net-(U6-+)*%
X154216000Y-85597000D03*
%TD*%
D12*
%TO.P,C34,1*%
%TO.N,Net-(J3-Pin_1)*%
X79600000Y-101754000D03*
%TO.P,C34,2*%
%TO.N,GND1*%
X80560000Y-101754000D03*
%TD*%
D13*
%TO.P,C17,1*%
%TO.N,3V3-ISO*%
X142432000Y-96618000D03*
%TO.P,C17,2*%
%TO.N,GNDA*%
X142432000Y-97578000D03*
%TD*%
D19*
%TO.P,C25,1*%
%TO.N,3V3-ISO*%
X121525000Y-98941000D03*
%TO.P,C25,2*%
%TO.N,GND2*%
X120565000Y-98941000D03*
%TD*%
D47*
%TO.P,D1,1,K*%
%TO.N,Net-(D1-K)*%
X129165500Y-90672000D03*
%TO.P,D1,2,A*%
%TO.N,Net-(D1-A)*%
X124490500Y-90672000D03*
%TD*%
D16*
%TO.P,Rz1,1*%
%TO.N,Net-(U1-PA0)*%
X83229000Y-103896000D03*
%TO.P,Rz1,2*%
%TO.N,GND1*%
X81579000Y-103896000D03*
%TD*%
D30*
%TO.P,R15,1*%
%TO.N,3V3-ISO*%
X135550000Y-94243000D03*
%TO.P,R15,2*%
%TO.N,/UPDI*%
X135550000Y-95893000D03*
%TD*%
D12*
%TO.P,C18,1*%
%TO.N,3V3-ISO*%
X146016000Y-100592000D03*
%TO.P,C18,2*%
%TO.N,GNDA*%
X146976000Y-100592000D03*
%TD*%
D48*
%TO.P,R1,1*%
%TO.N,VCC*%
X84025500Y-91619000D03*
%TO.P,R1,2*%
%TO.N,Net-(C2-Pad1)*%
X89950500Y-91619000D03*
%TD*%
D20*
%TO.P,Rz2,1*%
%TO.N,Net-(U1-PA10)*%
X97073000Y-108057000D03*
%TO.P,Rz2,2*%
%TO.N,GND1*%
X98723000Y-108057000D03*
%TD*%
D10*
%TO.P,J4,1,Pin_1*%
%TO.N,/Output MCU/DAC-High*%
X90671000Y-111473000D03*
D11*
%TO.P,J4,2,Pin_2*%
%TO.N,GND1*%
X93211000Y-111473000D03*
%TO.P,J4,3,Pin_3*%
%TO.N,/Output MCU/DAC-Low*%
X95751000Y-111473000D03*
%TD*%
D49*
%TO.N,3V3-1*%
X83312000Y-97028000D03*
D50*
X106299000Y-93218000D03*
X106299000Y-89408000D03*
D49*
X83058000Y-86487000D03*
X83312000Y-98679000D03*
%TO.N,GND1*%
X81534000Y-100965000D03*
D51*
X92964000Y-88900000D03*
X104902000Y-110236000D03*
D49*
X79629000Y-84836000D03*
X109982000Y-106934000D03*
X79629000Y-88011000D03*
X91694000Y-94615000D03*
X79883000Y-103886000D03*
D51*
X88011000Y-84836000D03*
D49*
X107188000Y-86868000D03*
X100330000Y-107950000D03*
D51*
X99568000Y-91440000D03*
%TO.N,Net-(C2-Pad1)*%
X114319200Y-96503200D03*
X104394000Y-93218000D03*
D49*
%TO.N,GND2*%
X141986000Y-90424000D03*
X122555000Y-85598000D03*
X118618000Y-106934000D03*
X158800000Y-96180000D03*
X119888000Y-103632000D03*
X136398000Y-85979000D03*
X133223000Y-103632000D03*
D51*
X123698000Y-110236000D03*
X118618000Y-101600000D03*
D49*
X131953000Y-98044000D03*
%TO.N,3V3-ISO*%
X141859000Y-89027000D03*
X137414000Y-95758000D03*
X135890000Y-93218000D03*
D51*
%TO.N,VCC*%
X79756000Y-90170000D03*
D49*
%TO.N,Net-(U6-+)*%
X152273000Y-86868000D03*
X144145000Y-93218000D03*
%TO.N,GNDA*%
X145923000Y-92964000D03*
X141986000Y-94234000D03*
X148082000Y-99949000D03*
X141478000Y-98171000D03*
X138237000Y-100391000D03*
X140208000Y-102997000D03*
X153797000Y-93218000D03*
%TO.N,Net-(U7-OUT)*%
X145923000Y-102743000D03*
X139192000Y-99949000D03*
%TO.N,Net-(Q1-G)*%
X100203000Y-86741000D03*
X102616000Y-84328000D03*
%TO.N,150KHz from U1*%
X97028000Y-92075000D03*
X98933000Y-94361000D03*
%TO.N,Net-(TC1--)*%
X151511000Y-100584000D03*
%TO.N,Net-(U6--)*%
X146685000Y-89027000D03*
X143002000Y-92710000D03*
%TO.N,/UPDI*%
X132548000Y-102529000D03*
%TO.N,Net-(U1-PA10)*%
X89535000Y-108077000D03*
X91948000Y-108077000D03*
%TO.N,Net-(U1-PA12)*%
X97790000Y-97663000D03*
X98806000Y-101473000D03*
%TO.N,ISO-MOSI*%
X99060000Y-104394000D03*
X109474000Y-104394000D03*
%TO.N,Net-(U2-PA4)*%
X123190000Y-98806000D03*
X123190000Y-97282000D03*
%TO.N,Net-(U2-PB3)*%
X123317000Y-104775000D03*
X118618000Y-105537000D03*
%TO.N,SDA*%
X154940000Y-101854000D03*
X154940000Y-96774000D03*
%TO.N,SCL*%
X133223000Y-104775000D03*
X149050000Y-102900000D03*
%TO.N,Net-(U2-PA1)*%
X133223000Y-101219000D03*
X133223000Y-99949000D03*
%TO.N,Net-(U6-OUT)*%
X143764000Y-89662000D03*
X142748000Y-91440000D03*
%TO.N,Net-(J1-Pin_1)*%
X95123000Y-101854000D03*
X88519000Y-97409000D03*
D52*
%TO.N,Net-(J3-Pin_1)*%
X85852000Y-107188000D03*
X86233000Y-100965000D03*
%TD*%
D53*
%TO.N,3V3-1*%
X83185000Y-83185000D02*
X82423000Y-83947000D01*
X92957000Y-84973500D02*
X92957000Y-83192000D01*
X83312000Y-97028000D02*
X80645000Y-97028000D01*
X103194000Y-103018000D02*
X102839000Y-102663000D01*
D54*
X83058000Y-86487000D02*
X82360000Y-85789000D01*
D53*
X109220000Y-100076000D02*
X109220000Y-99187000D01*
D55*
X83312000Y-99441000D02*
X82817000Y-99441000D01*
X82747000Y-99511000D02*
X82747000Y-100255000D01*
D53*
X102235000Y-86233000D02*
X99187000Y-83185000D01*
X79610000Y-98063000D02*
X79610000Y-98656000D01*
D55*
X88642500Y-101953000D02*
X85443000Y-101953000D01*
X84582000Y-99441000D02*
X83947000Y-99441000D01*
D53*
X80645000Y-97028000D02*
X79610000Y-98063000D01*
D55*
X83312000Y-98679000D02*
X83312000Y-98806000D01*
D53*
X109220000Y-101219000D02*
X109220000Y-100076000D01*
X109220000Y-103018000D02*
X109220000Y-101219000D01*
D55*
X85443000Y-101953000D02*
X84836000Y-101346000D01*
X84017000Y-100323000D02*
X84017000Y-99511000D01*
D53*
X92957000Y-83192000D02*
X92964000Y-83185000D01*
X111802000Y-103018000D02*
X109220000Y-103018000D01*
D55*
X82817000Y-99441000D02*
X82747000Y-99511000D01*
D53*
X109220000Y-96139000D02*
X106299000Y-93218000D01*
X109220000Y-99187000D02*
X109220000Y-96139000D01*
X109220000Y-103018000D02*
X103194000Y-103018000D01*
X106299000Y-89408000D02*
X103124000Y-86233000D01*
D55*
X83947000Y-99441000D02*
X83312000Y-99441000D01*
D53*
X99187000Y-83185000D02*
X83185000Y-83185000D01*
D54*
X82360000Y-85662000D02*
X81317000Y-85662000D01*
D53*
X84564000Y-84796500D02*
X84564000Y-83203000D01*
D55*
X83312000Y-99441000D02*
X83312000Y-98679000D01*
D54*
X109160000Y-100016000D02*
X109220000Y-100076000D01*
D53*
X82423000Y-83947000D02*
X82423000Y-84582000D01*
X106320000Y-89429000D02*
X106299000Y-89408000D01*
X109649000Y-89429000D02*
X106320000Y-89429000D01*
D54*
X81368000Y-84020000D02*
X82242000Y-84020000D01*
D53*
X83058000Y-86487000D02*
X82423000Y-85852000D01*
D55*
X84017000Y-99511000D02*
X83947000Y-99441000D01*
X84836000Y-101346000D02*
X84836000Y-99695000D01*
D53*
X82423000Y-85852000D02*
X82423000Y-84582000D01*
D54*
X109215000Y-101224000D02*
X109220000Y-101219000D01*
D53*
X103124000Y-86233000D02*
X102235000Y-86233000D01*
D55*
X84836000Y-99695000D02*
X84582000Y-99441000D01*
D54*
X108012000Y-100016000D02*
X109160000Y-100016000D01*
X108012000Y-101224000D02*
X109215000Y-101224000D01*
D56*
%TO.N,GND1*%
X90113000Y-94291000D02*
X90424000Y-93980000D01*
X90424000Y-93980000D02*
X91059000Y-93980000D01*
X90113000Y-94732000D02*
X90113000Y-94291000D01*
D54*
X99604000Y-91404000D02*
X101718500Y-91404000D01*
X79629000Y-84836000D02*
X79629000Y-84328000D01*
X79629000Y-88011000D02*
X79629000Y-88392000D01*
X105076000Y-100123000D02*
X106177000Y-101224000D01*
X79883000Y-103886000D02*
X79893000Y-103896000D01*
D53*
X109649000Y-86889000D02*
X107188000Y-86868000D01*
D54*
X98723000Y-108057000D02*
X100223000Y-108057000D01*
D55*
X84836000Y-101981000D02*
X84074000Y-101981000D01*
D54*
X80018000Y-88781000D02*
X80408000Y-88781000D01*
X81579000Y-103896000D02*
X79883000Y-103886000D01*
D55*
X82747000Y-101797000D02*
X82747000Y-101215000D01*
D54*
X102839000Y-100123000D02*
X105076000Y-100123000D01*
X99604000Y-91404000D02*
X100112000Y-91404000D01*
X79629000Y-88011000D02*
X79629000Y-87566500D01*
D53*
X85514000Y-85746500D02*
X86464000Y-84796500D01*
D54*
X79937000Y-84020000D02*
X80408000Y-84020000D01*
D53*
X86503500Y-84836000D02*
X86464000Y-84796500D01*
D55*
X82931000Y-101981000D02*
X82704000Y-101754000D01*
D56*
X93211000Y-111245000D02*
X93211000Y-111473000D01*
D53*
X85514000Y-87071500D02*
X85514000Y-85746500D01*
D54*
X105183000Y-100016000D02*
X105076000Y-100123000D01*
X91898000Y-94819000D02*
X91694000Y-94615000D01*
D56*
X91059000Y-93980000D02*
X91694000Y-94615000D01*
D55*
X82931000Y-101981000D02*
X82747000Y-101797000D01*
X84017000Y-101924000D02*
X84074000Y-101981000D01*
D54*
X79629000Y-87566500D02*
X80003500Y-87192000D01*
D53*
X92957000Y-87048500D02*
X92957000Y-88893000D01*
D55*
X81661000Y-101092000D02*
X81661000Y-101754000D01*
X82704000Y-101754000D02*
X81661000Y-101754000D01*
X84074000Y-101981000D02*
X82931000Y-101981000D01*
D54*
X106177000Y-101224000D02*
X107052000Y-101224000D01*
D53*
X88011000Y-84836000D02*
X86503500Y-84836000D01*
D57*
X90036000Y-84935500D02*
X88110500Y-84935500D01*
D54*
X79629000Y-84328000D02*
X79937000Y-84020000D01*
X111802000Y-106828000D02*
X110088000Y-106828000D01*
D55*
X81661000Y-101754000D02*
X80560000Y-101754000D01*
D54*
X80003500Y-87192000D02*
X80408000Y-87192000D01*
X93263000Y-94819000D02*
X91898000Y-94819000D01*
D55*
X88642500Y-102453000D02*
X85308000Y-102453000D01*
D57*
X88110500Y-84935500D02*
X88011000Y-84836000D01*
D55*
X84017000Y-101283000D02*
X84017000Y-101924000D01*
D54*
X79947000Y-85662000D02*
X80357000Y-85662000D01*
X79629000Y-88392000D02*
X80018000Y-88781000D01*
D55*
X85308000Y-102453000D02*
X84836000Y-101981000D01*
D54*
X107052000Y-100016000D02*
X105183000Y-100016000D01*
X99568000Y-91440000D02*
X99604000Y-91404000D01*
X110088000Y-106828000D02*
X109982000Y-106934000D01*
D57*
X106469000Y-110365000D02*
X105031000Y-110365000D01*
X105031000Y-110365000D02*
X104902000Y-110236000D01*
D55*
X81534000Y-100965000D02*
X81661000Y-101092000D01*
D54*
X79629000Y-85344000D02*
X79947000Y-85662000D01*
X100223000Y-108057000D02*
X100330000Y-107950000D01*
X79629000Y-84836000D02*
X79629000Y-85344000D01*
D53*
X92957000Y-88893000D02*
X92964000Y-88900000D01*
D57*
%TO.N,Net-(C2-Pad1)*%
X93129500Y-93106500D02*
X91642000Y-91619000D01*
X115419200Y-97857200D02*
X115419200Y-99407200D01*
X104282500Y-93106500D02*
X93129500Y-93106500D01*
X90036000Y-87010500D02*
X90036000Y-91533500D01*
X90036000Y-91533500D02*
X89950500Y-91619000D01*
X91642000Y-91619000D02*
X89950500Y-91619000D01*
X104394000Y-93218000D02*
X104282500Y-93106500D01*
X114319200Y-96503200D02*
X115419200Y-97603200D01*
D53*
%TO.N,Net-(D1-K)*%
X131699000Y-88974000D02*
X130863500Y-88974000D01*
X134187000Y-86816000D02*
X135001000Y-87630000D01*
D54*
X134609000Y-88985000D02*
X134620000Y-88974000D01*
D53*
X138097500Y-88974000D02*
X136017000Y-88974000D01*
D54*
X131673000Y-89962000D02*
X131673000Y-89000000D01*
X136144000Y-89101000D02*
X136017000Y-88974000D01*
X136144000Y-90297000D02*
X136144000Y-89101000D01*
D53*
X136017000Y-88974000D02*
X135001000Y-88974000D01*
X130863500Y-88974000D02*
X129165500Y-90672000D01*
D54*
X136721000Y-90874000D02*
X136144000Y-90297000D01*
D53*
X135001000Y-87630000D02*
X135001000Y-88974000D01*
X133223000Y-88974000D02*
X132207000Y-88974000D01*
D54*
X133212000Y-89881000D02*
X133212000Y-88985000D01*
D53*
X133206000Y-86816000D02*
X134187000Y-86816000D01*
D54*
X131673000Y-89000000D02*
X131699000Y-88974000D01*
X133593000Y-88985000D02*
X133604000Y-88974000D01*
D53*
X133604000Y-88974000D02*
X133223000Y-88974000D01*
D54*
X134609000Y-89946000D02*
X134609000Y-88985000D01*
D53*
X135001000Y-88974000D02*
X134366000Y-88974000D01*
X134366000Y-88974000D02*
X133604000Y-88974000D01*
D54*
X133212000Y-88985000D02*
X133223000Y-88974000D01*
X138097500Y-90874000D02*
X136721000Y-90874000D01*
D53*
X132207000Y-88974000D02*
X131699000Y-88974000D01*
D54*
%TO.N,GND2*%
X158800000Y-97030000D02*
X158900000Y-97130000D01*
X120387000Y-100267000D02*
X119189000Y-100267000D01*
X118743000Y-101475000D02*
X118618000Y-101600000D01*
D53*
X136779000Y-84201000D02*
X136398000Y-84582000D01*
D54*
X133212000Y-90841000D02*
X133212000Y-91832000D01*
D56*
X158825000Y-97205000D02*
X158900000Y-97130000D01*
D57*
X123327000Y-110353000D02*
X123444000Y-110236000D01*
D54*
X120565000Y-98941000D02*
X119245000Y-98941000D01*
X133223000Y-91843000D02*
X133223000Y-92583000D01*
X134609000Y-90906000D02*
X134609000Y-91578000D01*
D58*
X134107000Y-104516000D02*
X134634000Y-104516000D01*
D54*
X119561000Y-97609000D02*
X119126000Y-98044000D01*
X119126000Y-100330000D02*
X119126000Y-101092000D01*
X120143000Y-103377000D02*
X119888000Y-103632000D01*
D58*
X136458000Y-85919000D02*
X136398000Y-85979000D01*
D54*
X119245000Y-98941000D02*
X119126000Y-99060000D01*
X129602000Y-98044000D02*
X131953000Y-98044000D01*
X134609000Y-91578000D02*
X133731000Y-92456000D01*
X134026000Y-92878000D02*
X133731000Y-92583000D01*
X131673000Y-91512000D02*
X131673000Y-92482000D01*
X121088000Y-103377000D02*
X120143000Y-103377000D01*
X119126000Y-99060000D02*
X119126000Y-100330000D01*
D57*
X122015000Y-110353000D02*
X123327000Y-110353000D01*
D54*
X133731000Y-92456000D02*
X133731000Y-92583000D01*
D58*
X133223000Y-103632000D02*
X134107000Y-104516000D01*
D53*
X141536000Y-90874000D02*
X141986000Y-90424000D01*
D57*
X113792000Y-101600000D02*
X118618000Y-101600000D01*
D54*
X118512000Y-106828000D02*
X118618000Y-106934000D01*
D58*
X138701000Y-85919000D02*
X136458000Y-85919000D01*
D53*
X122555000Y-85598000D02*
X121264000Y-86889000D01*
X133223000Y-92583000D02*
X133731000Y-92583000D01*
X136877000Y-84103000D02*
X136779000Y-84201000D01*
X136398000Y-84582000D02*
X136398000Y-85979000D01*
D57*
X113219200Y-99153200D02*
X113219200Y-101027200D01*
D54*
X119126000Y-101092000D02*
X118618000Y-101600000D01*
D55*
X135302000Y-101807000D02*
X135302000Y-100937000D01*
D53*
X138692000Y-89924000D02*
X139642000Y-90874000D01*
D54*
X119126000Y-98044000D02*
X119126000Y-99060000D01*
D53*
X131018000Y-92583000D02*
X131572000Y-92583000D01*
D58*
X138701000Y-87381000D02*
X136784000Y-87381000D01*
D57*
X113219200Y-101027200D02*
X113792000Y-101600000D01*
D53*
X136784000Y-87381000D02*
X136398000Y-86995000D01*
D54*
X120387000Y-101475000D02*
X118743000Y-101475000D01*
D53*
X131572000Y-92583000D02*
X133223000Y-92583000D01*
D54*
X116752000Y-106828000D02*
X118512000Y-106828000D01*
D53*
X140372500Y-90874000D02*
X141536000Y-90874000D01*
D58*
X134366000Y-102616000D02*
X134493000Y-102616000D01*
D53*
X137883000Y-84103000D02*
X136877000Y-84103000D01*
X121264000Y-86889000D02*
X119149000Y-86889000D01*
D55*
X135128000Y-101981000D02*
X135302000Y-101807000D01*
D53*
X136398000Y-85979000D02*
X136398000Y-86995000D01*
X138097500Y-89924000D02*
X138692000Y-89924000D01*
D54*
X158800000Y-96180000D02*
X158800000Y-97030000D01*
X120565000Y-97609000D02*
X119561000Y-97609000D01*
D58*
X134493000Y-102616000D02*
X135128000Y-101981000D01*
D53*
X139642000Y-90874000D02*
X140372500Y-90874000D01*
X122555000Y-85598000D02*
X121306000Y-84349000D01*
D56*
X158030000Y-97205000D02*
X158825000Y-97205000D01*
X158900000Y-97130000D02*
X158905000Y-97135000D01*
X158905000Y-97135000D02*
X159695000Y-97135000D01*
D53*
X128698000Y-94903000D02*
X131018000Y-92583000D01*
X121306000Y-84349000D02*
X119149000Y-84349000D01*
D54*
X133212000Y-91832000D02*
X133223000Y-91843000D01*
X134026000Y-94201000D02*
X134026000Y-92878000D01*
X131673000Y-92482000D02*
X131572000Y-92583000D01*
X119189000Y-100267000D02*
X119126000Y-100330000D01*
%TO.N,3V3-ISO*%
X121347000Y-101475000D02*
X122303000Y-101475000D01*
X135550000Y-94243000D02*
X135550000Y-93558000D01*
X158960000Y-99110000D02*
X158960000Y-98095000D01*
D58*
X143764000Y-95885000D02*
X142367000Y-95885000D01*
D53*
X146558000Y-104902000D02*
X150098000Y-104902000D01*
X126158000Y-94903000D02*
X124172000Y-94903000D01*
D54*
X122682000Y-98044000D02*
X125160000Y-98044000D01*
X122174000Y-102362000D02*
X122428000Y-102108000D01*
D53*
X141097000Y-88265000D02*
X141097000Y-87503000D01*
D58*
X145088000Y-99387000D02*
X145034000Y-99441000D01*
D56*
X146614000Y-104846000D02*
X146558000Y-104902000D01*
D54*
X116752000Y-103018000D02*
X119486000Y-103018000D01*
D58*
X145169000Y-100592000D02*
X145034000Y-100457000D01*
X145034000Y-95885000D02*
X143764000Y-95885000D01*
X140975000Y-87381000D02*
X141097000Y-87503000D01*
D54*
X121525000Y-98941000D02*
X122293000Y-98941000D01*
D58*
X136846000Y-103634000D02*
X136846000Y-102429000D01*
D54*
X136266000Y-104516000D02*
X136271000Y-104521000D01*
D56*
X158960000Y-98095000D02*
X159695000Y-98095000D01*
D58*
X146016000Y-100592000D02*
X145169000Y-100592000D01*
D54*
X121525000Y-97609000D02*
X122247000Y-97609000D01*
X143829000Y-96680000D02*
X143829000Y-95950000D01*
D53*
X140237000Y-84103000D02*
X139433000Y-84103000D01*
D58*
X137964000Y-102429000D02*
X136846000Y-102429000D01*
D54*
X142432000Y-96618000D02*
X142432000Y-95950000D01*
D58*
X135702000Y-102301000D02*
X135702000Y-102235000D01*
D54*
X155956000Y-105664000D02*
X155956000Y-99176000D01*
X142432000Y-95950000D02*
X142367000Y-95885000D01*
X145034000Y-99949000D02*
X143547500Y-99949000D01*
D58*
X139661000Y-87381000D02*
X140975000Y-87381000D01*
D55*
X135702000Y-100937000D02*
X135702000Y-102235000D01*
D53*
X122428000Y-96647000D02*
X122428000Y-102108000D01*
X150098000Y-104902000D02*
X155890000Y-99110000D01*
D58*
X135594000Y-104516000D02*
X136266000Y-104516000D01*
D53*
X141806000Y-88974000D02*
X140372500Y-88974000D01*
D55*
X136102000Y-100937000D02*
X136102000Y-101685000D01*
D58*
X140910000Y-85919000D02*
X141097000Y-86106000D01*
X136846000Y-103634000D02*
X136846000Y-104461000D01*
D54*
X120142000Y-102362000D02*
X122174000Y-102362000D01*
D53*
X145034000Y-100457000D02*
X145034000Y-99441000D01*
D58*
X137804000Y-94860000D02*
X138458000Y-94860000D01*
D53*
X145415000Y-104902000D02*
X146558000Y-104902000D01*
D58*
X137541000Y-95885000D02*
X142367000Y-95885000D01*
D53*
X141097000Y-87503000D02*
X141097000Y-86106000D01*
D54*
X121347000Y-100267000D02*
X122365000Y-100267000D01*
D58*
X137414000Y-95758000D02*
X137541000Y-95885000D01*
X137964000Y-103634000D02*
X136846000Y-103634000D01*
D53*
X141806000Y-88974000D02*
X141097000Y-88265000D01*
X145034000Y-104521000D02*
X145415000Y-104902000D01*
D58*
X146016000Y-99387000D02*
X145088000Y-99387000D01*
D53*
X145034000Y-101346000D02*
X145034000Y-100457000D01*
D56*
X158870000Y-98005000D02*
X158960000Y-98095000D01*
D58*
X136266000Y-104516000D02*
X136266000Y-102865000D01*
D53*
X124172000Y-94903000D02*
X122428000Y-96647000D01*
D58*
X136846000Y-102429000D02*
X136271000Y-101854000D01*
D53*
X145034000Y-104521000D02*
X145034000Y-101346000D01*
D56*
X158030000Y-98005000D02*
X158870000Y-98005000D01*
D58*
X135594000Y-103308000D02*
X136214000Y-103308000D01*
D54*
X155956000Y-99176000D02*
X155890000Y-99110000D01*
D53*
X141097000Y-86106000D02*
X141097000Y-84963000D01*
X145034000Y-92202000D02*
X145034000Y-99441000D01*
D54*
X143829000Y-95950000D02*
X143764000Y-95885000D01*
X143547500Y-101849000D02*
X145029000Y-101849000D01*
D53*
X141859000Y-89027000D02*
X145034000Y-92202000D01*
D58*
X137414000Y-95758000D02*
X137414000Y-95250000D01*
D53*
X155890000Y-99110000D02*
X158960000Y-99110000D01*
X136271000Y-104521000D02*
X145034000Y-104521000D01*
D56*
X146614000Y-103845000D02*
X146614000Y-104846000D01*
D58*
X137414000Y-95250000D02*
X137804000Y-94860000D01*
X139661000Y-85919000D02*
X140910000Y-85919000D01*
D54*
X119486000Y-103018000D02*
X120142000Y-102362000D01*
D58*
X136266000Y-102865000D02*
X135702000Y-102301000D01*
D53*
X141097000Y-84963000D02*
X140237000Y-84103000D01*
D54*
X155519000Y-106101000D02*
X155956000Y-105664000D01*
X154360000Y-106101000D02*
X155519000Y-106101000D01*
X135550000Y-93558000D02*
X135890000Y-93218000D01*
D55*
X136102000Y-101685000D02*
X136271000Y-101854000D01*
D53*
X141859000Y-89027000D02*
X141806000Y-88974000D01*
D57*
%TO.N,VCC*%
X85979000Y-88646000D02*
X82374500Y-88646000D01*
D53*
X86464000Y-88161000D02*
X85979000Y-88646000D01*
X82374500Y-88646000D02*
X82247500Y-88773000D01*
X86464000Y-87071500D02*
X86464000Y-88161000D01*
D57*
X82247500Y-90883500D02*
X82983000Y-91619000D01*
X82247500Y-90095000D02*
X82247500Y-88773000D01*
D54*
X81368000Y-87192000D02*
X81473500Y-87297500D01*
D57*
X82247500Y-90095000D02*
X82247500Y-90883500D01*
D54*
X81473500Y-87297500D02*
X82247500Y-87297500D01*
D53*
X84564000Y-87071500D02*
X84564000Y-88537000D01*
X76731000Y-97715000D02*
X76599000Y-97583000D01*
D57*
X79831000Y-90095000D02*
X79756000Y-90170000D01*
X82247500Y-88773000D02*
X82247500Y-87297500D01*
X82247500Y-90095000D02*
X79831000Y-90095000D01*
D54*
X81368000Y-88781000D02*
X82239500Y-88781000D01*
X82239500Y-88781000D02*
X82247500Y-88773000D01*
D57*
X82983000Y-91619000D02*
X84025500Y-91619000D01*
D54*
%TO.N,Net-(U6-+)*%
X152273000Y-86868000D02*
X152273000Y-86741000D01*
X152973000Y-88422000D02*
X152973000Y-86041000D01*
X152973000Y-86041000D02*
X153417000Y-85597000D01*
X142503000Y-94860000D02*
X144145000Y-93218000D01*
D56*
X144145000Y-93218000D02*
X144018000Y-93345000D01*
D54*
X153417000Y-85597000D02*
X154216000Y-85597000D01*
X152273000Y-86741000D02*
X152973000Y-86041000D01*
D58*
X140358000Y-94860000D02*
X142503000Y-94860000D01*
D54*
%TO.N,Net-(C13-Pad2)*%
X148373000Y-93539000D02*
X149793000Y-93539000D01*
X151231000Y-93632000D02*
X151231000Y-91948000D01*
X151231000Y-90805000D02*
X151231000Y-89636000D01*
X149413000Y-95062000D02*
X149860000Y-94615000D01*
X152973000Y-89382000D02*
X152973000Y-90232000D01*
X152400000Y-90805000D02*
X151231000Y-90805000D01*
X149860000Y-92456000D02*
X150368000Y-91948000D01*
X150309000Y-92007000D02*
X150368000Y-91948000D01*
X150688000Y-89093000D02*
X149897000Y-89093000D01*
X150368000Y-91948000D02*
X151231000Y-91948000D01*
X151231000Y-89636000D02*
X150688000Y-89093000D01*
X149860000Y-94615000D02*
X149860000Y-93472000D01*
X148646000Y-92007000D02*
X150309000Y-92007000D01*
X149860000Y-93472000D02*
X149860000Y-92456000D01*
X149793000Y-93539000D02*
X149860000Y-93472000D01*
X148573000Y-95062000D02*
X149413000Y-95062000D01*
X151231000Y-91948000D02*
X151231000Y-90805000D01*
X152973000Y-90232000D02*
X152400000Y-90805000D01*
%TO.N,GNDA*%
X145923000Y-93218000D02*
X146244000Y-93539000D01*
D55*
X138083000Y-100237000D02*
X136802000Y-100237000D01*
D54*
X154600000Y-92065000D02*
X154600000Y-92669000D01*
X143829000Y-98106000D02*
X143637000Y-98298000D01*
X139695000Y-101849000D02*
X138237000Y-100391000D01*
D58*
X141478000Y-98171000D02*
X140779000Y-98870000D01*
D55*
X137683000Y-99837000D02*
X136802000Y-99837000D01*
D58*
X141478000Y-98171000D02*
X140745000Y-97438000D01*
X140716000Y-94234000D02*
X140692000Y-94210000D01*
D54*
X145923000Y-92329000D02*
X146245000Y-92007000D01*
X154600000Y-92669000D02*
X154051000Y-93218000D01*
X142432000Y-97578000D02*
X142432000Y-98233000D01*
D58*
X141962000Y-94210000D02*
X140358000Y-94210000D01*
D54*
X145923000Y-92964000D02*
X145923000Y-93218000D01*
D55*
X138237000Y-100391000D02*
X137683000Y-99837000D01*
D54*
X143829000Y-97640000D02*
X143829000Y-98106000D01*
X154051000Y-93218000D02*
X153797000Y-93218000D01*
X146245000Y-92007000D02*
X146996000Y-92007000D01*
D58*
X147439000Y-100592000D02*
X146976000Y-100592000D01*
D54*
X141272500Y-100899000D02*
X138745000Y-100899000D01*
X145923000Y-92964000D02*
X145923000Y-92329000D01*
D55*
X138237000Y-100391000D02*
X138083000Y-100237000D01*
D54*
X143547500Y-100899000D02*
X141272500Y-100899000D01*
X141272500Y-101849000D02*
X139695000Y-101849000D01*
D58*
X139640000Y-102429000D02*
X140208000Y-102997000D01*
D54*
X138745000Y-100899000D02*
X138237000Y-100391000D01*
X143637000Y-98298000D02*
X142367000Y-98298000D01*
D58*
X140745000Y-97438000D02*
X139629000Y-97438000D01*
D54*
X141605000Y-98298000D02*
X141478000Y-98171000D01*
D58*
X140779000Y-98870000D02*
X139813000Y-98870000D01*
D54*
X142432000Y-98233000D02*
X142367000Y-98298000D01*
D58*
X138924000Y-102429000D02*
X139640000Y-102429000D01*
X140208000Y-102997000D02*
X139571000Y-103634000D01*
X146976000Y-99387000D02*
X147520000Y-99387000D01*
X139571000Y-103634000D02*
X138924000Y-103634000D01*
D54*
X142367000Y-98298000D02*
X141605000Y-98298000D01*
D58*
X148082000Y-99949000D02*
X147439000Y-100592000D01*
X147520000Y-99387000D02*
X148082000Y-99949000D01*
D54*
X146244000Y-93539000D02*
X147413000Y-93539000D01*
%TO.N,Net-(U7-OUT)*%
X138370190Y-98870000D02*
X138811000Y-98870000D01*
D55*
X136802000Y-99437000D02*
X138045000Y-99437000D01*
D54*
X145923000Y-102743000D02*
X148082000Y-102743000D01*
X138241595Y-98998595D02*
X138370190Y-98870000D01*
X148082000Y-102743000D02*
X149272000Y-101553000D01*
X138241595Y-99441000D02*
X138241595Y-98998595D01*
D55*
X138045000Y-99437000D02*
X138049000Y-99441000D01*
D54*
X138241595Y-99441000D02*
X138049000Y-99441000D01*
X138684000Y-99441000D02*
X138241595Y-99441000D01*
X141272500Y-99949000D02*
X139192000Y-99949000D01*
X139192000Y-99949000D02*
X138684000Y-99441000D01*
X149272000Y-101553000D02*
X149272000Y-100773000D01*
D56*
%TO.N,Net-(U1-VCORE)*%
X90055000Y-95750000D02*
X90113000Y-95692000D01*
X90055000Y-98040500D02*
X90055000Y-95750000D01*
D57*
%TO.N,Net-(D1-A)*%
X116078000Y-91186000D02*
X122428000Y-91186000D01*
X115419200Y-91844800D02*
X116078000Y-91186000D01*
X122428000Y-91186000D02*
X122942000Y-90672000D01*
X115419200Y-93753200D02*
X115419200Y-91844800D01*
X122942000Y-90672000D02*
X124490500Y-90672000D01*
D53*
%TO.N,Net-(D2-A)*%
X127281500Y-86863000D02*
X129859000Y-86863000D01*
D54*
%TO.N,/Output MCU/DAC-High*%
X90671000Y-111473000D02*
X90671000Y-109078000D01*
D56*
X90555000Y-108962000D02*
X90555000Y-106365500D01*
D54*
X90671000Y-109078000D02*
X90555000Y-108962000D01*
%TO.N,/Output MCU/DAC-Low*%
X95250000Y-109220000D02*
X91694000Y-109220000D01*
D56*
X91055000Y-106365500D02*
X91055000Y-108581000D01*
X91055000Y-108581000D02*
X91313000Y-108839000D01*
D54*
X91694000Y-109220000D02*
X91313000Y-108839000D01*
X95751000Y-111473000D02*
X95751000Y-109721000D01*
X95751000Y-109721000D02*
X95250000Y-109220000D01*
D53*
%TO.N,Net-(Q1-D)*%
X107823000Y-91821000D02*
X106553000Y-91821000D01*
X106553000Y-91821000D02*
X105186000Y-90454000D01*
X113216400Y-93756000D02*
X109758000Y-93756000D01*
X109758000Y-93756000D02*
X107823000Y-91821000D01*
X105186000Y-90454000D02*
X103593500Y-90454000D01*
D54*
X113216400Y-94010000D02*
X113219200Y-94007200D01*
%TO.N,Net-(Q1-G)*%
X102616000Y-84328000D02*
X102595000Y-84349000D01*
X109649000Y-84349000D02*
X102616000Y-84328000D01*
X99230000Y-89522000D02*
X101700500Y-89522000D01*
X101700500Y-89522000D02*
X101718500Y-89504000D01*
X100203000Y-86741000D02*
X100203000Y-89522000D01*
%TO.N,150KHz from U1*%
X98933000Y-94361000D02*
X98933000Y-98806000D01*
X97028000Y-92075000D02*
X97028000Y-89916000D01*
X97422000Y-89522000D02*
X98210000Y-89522000D01*
D56*
X98286000Y-99453000D02*
X98933000Y-98806000D01*
D54*
X97028000Y-89916000D02*
X97422000Y-89522000D01*
D56*
X96967500Y-99453000D02*
X98286000Y-99453000D01*
D53*
%TO.N,Net-(R3-Pad1)*%
X123576000Y-86863000D02*
X121010000Y-89429000D01*
X121010000Y-89429000D02*
X119149000Y-89429000D01*
X124356500Y-86863000D02*
X123576000Y-86863000D01*
%TO.N,Net-(TC1-+)*%
X158174000Y-90220000D02*
X158174000Y-86927000D01*
D54*
X158174000Y-90220000D02*
X158112000Y-90158000D01*
X158112000Y-90158000D02*
X154825000Y-90158000D01*
D53*
X156844000Y-85597000D02*
X155866000Y-85597000D01*
X158174000Y-86927000D02*
X156844000Y-85597000D01*
D54*
X154825000Y-90158000D02*
X154600000Y-90383000D01*
X154600000Y-90383000D02*
X154600000Y-91045000D01*
D53*
%TO.N,Net-(TC1--)*%
X151231000Y-96240000D02*
X151231000Y-95282000D01*
X151511000Y-96520000D02*
X151231000Y-96240000D01*
X151511000Y-100584000D02*
X151511000Y-96520000D01*
D54*
%TO.N,Net-(U6--)*%
X146659670Y-89052330D02*
X146659670Y-89067670D01*
X142367000Y-93345000D02*
X143002000Y-92710000D01*
X140358000Y-93560000D02*
X141390000Y-93560000D01*
X146659670Y-89067670D02*
X146685000Y-89093000D01*
X148247000Y-89093000D02*
X146685000Y-89093000D01*
X141390000Y-93560000D02*
X141605000Y-93345000D01*
X146659670Y-89001670D02*
X146685000Y-89027000D01*
X146685000Y-89027000D02*
X146659670Y-89052330D01*
X141605000Y-93345000D02*
X142367000Y-93345000D01*
X143002000Y-92710000D02*
X142875000Y-92837000D01*
X146659670Y-86555000D02*
X146659670Y-89001670D01*
%TO.N,Net-(R7-Pad1)*%
X143176000Y-86610000D02*
X143176000Y-84674000D01*
%TO.N,Net-(R10-Pad2)*%
X149321000Y-96997000D02*
X148573000Y-96997000D01*
X149606000Y-97917000D02*
X149606000Y-97282000D01*
X149606000Y-97282000D02*
X149321000Y-96997000D01*
X149272000Y-99123000D02*
X149272000Y-98251000D01*
X149272000Y-98251000D02*
X149606000Y-97917000D01*
%TO.N,Net-(R11-Pad2)*%
X145923000Y-96647000D02*
X145923000Y-95438000D01*
X145923000Y-95438000D02*
X146299000Y-95062000D01*
X146273000Y-96997000D02*
X145923000Y-96647000D01*
X146299000Y-95062000D02*
X146923000Y-95062000D01*
X146923000Y-96997000D02*
X146273000Y-96997000D01*
D55*
%TO.N,Net-(U8-CH1)*%
X136239250Y-97758250D02*
X136102000Y-97895500D01*
X136102000Y-97895500D02*
X136102000Y-98737000D01*
D58*
X136239250Y-97758250D02*
X136559500Y-97438000D01*
X136559500Y-97438000D02*
X137979000Y-97438000D01*
D54*
%TO.N,/UPDI*%
X135550000Y-95893000D02*
X135508000Y-95851000D01*
X135508000Y-95851000D02*
X132186000Y-95851000D01*
X131953000Y-103124000D02*
X129602000Y-103124000D01*
X132548000Y-102529000D02*
X131953000Y-103124000D01*
X132186000Y-95851000D02*
X131238000Y-94903000D01*
%TO.N,Net-(U2-PA5)*%
X123952000Y-100584000D02*
X123698000Y-100838000D01*
X123698000Y-100838000D02*
X123698000Y-102108000D01*
X125160000Y-100584000D02*
X123952000Y-100584000D01*
X122738000Y-103377000D02*
X123445000Y-103377000D01*
X123445000Y-103377000D02*
X123698000Y-103124000D01*
X125160000Y-101854000D02*
X123952000Y-101854000D01*
X123952000Y-101854000D02*
X123698000Y-102108000D01*
X123698000Y-102108000D02*
X123698000Y-103124000D01*
X125160000Y-103124000D02*
X123698000Y-103124000D01*
D57*
%TO.N,Net-(TVS1-A1)*%
X109569000Y-110365000D02*
X112318000Y-110365000D01*
X112318000Y-110365000D02*
X112339000Y-110386000D01*
%TO.N,Net-(TVS1-A2)*%
X118882000Y-110386000D02*
X118915000Y-110353000D01*
X116139000Y-110386000D02*
X118882000Y-110386000D01*
D55*
%TO.N,Net-(U1-PA0)*%
X88642500Y-100453000D02*
X89658000Y-100453000D01*
X89714000Y-103453000D02*
X88642500Y-103453000D01*
X88642500Y-101453000D02*
X89896000Y-101453000D01*
X88642500Y-103453000D02*
X84761000Y-103453000D01*
X87118000Y-100453000D02*
X86868000Y-100203000D01*
X89916000Y-103251000D02*
X89714000Y-103453000D01*
D54*
X83229000Y-103896000D02*
X84318000Y-103896000D01*
D55*
X86864000Y-99953000D02*
X88642500Y-99953000D01*
X88642500Y-99453000D02*
X87110000Y-99453000D01*
X89916000Y-100711000D02*
X89916000Y-103251000D01*
X89658000Y-100453000D02*
X89916000Y-100711000D01*
X87110000Y-99453000D02*
X86868000Y-99695000D01*
X84761000Y-103453000D02*
X84455000Y-103759000D01*
X88642500Y-100453000D02*
X87118000Y-100453000D01*
D54*
X84318000Y-103896000D02*
X84455000Y-103759000D01*
D55*
X86868000Y-100203000D02*
X86868000Y-99695000D01*
X88642500Y-99453000D02*
X88630500Y-99441000D01*
D56*
%TO.N,Net-(U1-PA10)*%
X94055000Y-108025000D02*
X94107000Y-108077000D01*
X93555000Y-108033000D02*
X93599000Y-108077000D01*
X97073000Y-108057000D02*
X97073000Y-107883500D01*
X92555000Y-108049000D02*
X92583000Y-108077000D01*
X93055000Y-106365500D02*
X93055000Y-108041000D01*
D54*
X91948000Y-108077000D02*
X92583000Y-108077000D01*
X92583000Y-108077000D02*
X93091000Y-108077000D01*
D56*
X93055000Y-108041000D02*
X93091000Y-108077000D01*
D54*
X93599000Y-108077000D02*
X94107000Y-108077000D01*
D56*
X89535000Y-108077000D02*
X89662000Y-108077000D01*
X95555000Y-106365500D02*
X95555000Y-108001000D01*
D54*
X94107000Y-108077000D02*
X94615000Y-108077000D01*
D56*
X97053000Y-108077000D02*
X97073000Y-108057000D01*
X95055000Y-106365500D02*
X95055000Y-108009000D01*
D54*
X93091000Y-108077000D02*
X93599000Y-108077000D01*
D56*
X95555000Y-108001000D02*
X95631000Y-108077000D01*
X94055000Y-106365500D02*
X94055000Y-108025000D01*
X94555000Y-106365500D02*
X94555000Y-108017000D01*
X91555000Y-106365500D02*
X91555000Y-107684000D01*
X92055000Y-106365500D02*
X92055000Y-107970000D01*
X91555000Y-107684000D02*
X91948000Y-108077000D01*
D54*
X95631000Y-108077000D02*
X97053000Y-108077000D01*
D56*
X95055000Y-108009000D02*
X95123000Y-108077000D01*
X94555000Y-108017000D02*
X94615000Y-108077000D01*
X93555000Y-106365500D02*
X93555000Y-108033000D01*
X90055000Y-106365500D02*
X90055000Y-107684000D01*
X90055000Y-107684000D02*
X89535000Y-108077000D01*
D54*
X95123000Y-108077000D02*
X95631000Y-108077000D01*
D56*
X92555000Y-106365500D02*
X92555000Y-108049000D01*
X92055000Y-107970000D02*
X91948000Y-108077000D01*
D54*
X94615000Y-108077000D02*
X95123000Y-108077000D01*
D56*
%TO.N,Net-(U1-PA12)*%
X96967500Y-103953000D02*
X98358000Y-103953000D01*
D54*
X96520000Y-95377000D02*
X96520000Y-96393000D01*
X96520000Y-96393000D02*
X97790000Y-97663000D01*
D56*
X95555000Y-96952000D02*
X95555000Y-98040500D01*
D54*
X94488000Y-96393000D02*
X94996000Y-96393000D01*
X98806000Y-102997000D02*
X98806000Y-101981000D01*
X93091000Y-96393000D02*
X93599000Y-96393000D01*
D56*
X94996000Y-96393000D02*
X95555000Y-96952000D01*
D54*
X92583000Y-96393000D02*
X93091000Y-96393000D01*
D56*
X94055000Y-96445000D02*
X94107000Y-96393000D01*
D54*
X94913000Y-94819000D02*
X95962000Y-94819000D01*
D56*
X91055000Y-96397000D02*
X91059000Y-96393000D01*
X96967500Y-101453000D02*
X98786000Y-101453000D01*
X91555000Y-98040500D02*
X91555000Y-96405000D01*
X98778000Y-101953000D02*
X98806000Y-101981000D01*
X93055000Y-98040500D02*
X93055000Y-96429000D01*
D54*
X98806000Y-101981000D02*
X98806000Y-101473000D01*
D56*
X93555000Y-98040500D02*
X93555000Y-96437000D01*
D54*
X94996000Y-96393000D02*
X96520000Y-96393000D01*
D56*
X92055000Y-98040500D02*
X92055000Y-96413000D01*
X98806000Y-101473000D02*
X98286000Y-100953000D01*
D54*
X95962000Y-94819000D02*
X96520000Y-95377000D01*
X91567000Y-96393000D02*
X92075000Y-96393000D01*
X94107000Y-96393000D02*
X94488000Y-96393000D01*
X93599000Y-96393000D02*
X94107000Y-96393000D01*
D56*
X94555000Y-98040500D02*
X94555000Y-96460000D01*
X90555000Y-98040500D02*
X90555000Y-96897000D01*
X98786000Y-101453000D02*
X98806000Y-101473000D01*
X96967500Y-103453000D02*
X98754000Y-103453000D01*
X93555000Y-96437000D02*
X93599000Y-96393000D01*
D54*
X91059000Y-96393000D02*
X91567000Y-96393000D01*
D56*
X96967500Y-102953000D02*
X98762000Y-102953000D01*
X92055000Y-96413000D02*
X92075000Y-96393000D01*
X94055000Y-98040500D02*
X94055000Y-96445000D01*
X98754000Y-103453000D02*
X98806000Y-103505000D01*
X95055000Y-96452000D02*
X94996000Y-96393000D01*
X94555000Y-96460000D02*
X94488000Y-96393000D01*
X92555000Y-96421000D02*
X92583000Y-96393000D01*
X96967500Y-101953000D02*
X98778000Y-101953000D01*
X91555000Y-96405000D02*
X91567000Y-96393000D01*
X95055000Y-98040500D02*
X95055000Y-96452000D01*
X98286000Y-100953000D02*
X96967500Y-100953000D01*
X98762000Y-102953000D02*
X98806000Y-102997000D01*
X91055000Y-98040500D02*
X91055000Y-96397000D01*
X92555000Y-98040500D02*
X92555000Y-96421000D01*
X90555000Y-96897000D02*
X91059000Y-96393000D01*
X98358000Y-103953000D02*
X98806000Y-103505000D01*
X93055000Y-96429000D02*
X93091000Y-96393000D01*
D54*
X92075000Y-96393000D02*
X92583000Y-96393000D01*
X98806000Y-103505000D02*
X98806000Y-102997000D01*
D56*
%TO.N,/Output MCU/CS*%
X88642500Y-102953000D02*
X85090000Y-102953000D01*
X84800000Y-102663000D02*
X76599000Y-102663000D01*
X85090000Y-102953000D02*
X84800000Y-102663000D01*
%TO.N,/Output MCU/MISO*%
X85658000Y-103953000D02*
X84408000Y-105203000D01*
X88642500Y-103953000D02*
X85658000Y-103953000D01*
D54*
X84408000Y-105203000D02*
X76599000Y-105203000D01*
%TO.N,/Output MCU/MOSI*%
X79709000Y-107743000D02*
X80772000Y-106680000D01*
D56*
X83947000Y-106680000D02*
X86174000Y-104453000D01*
D54*
X76599000Y-107743000D02*
X79709000Y-107743000D01*
X80772000Y-106680000D02*
X83947000Y-106680000D01*
D56*
X86174000Y-104453000D02*
X88642500Y-104453000D01*
D54*
%TO.N,/Output MCU/SCK*%
X83439000Y-108204000D02*
X81661000Y-108204000D01*
D56*
X88642500Y-104953000D02*
X86690000Y-104953000D01*
D54*
X79582000Y-110283000D02*
X76599000Y-110283000D01*
D56*
X86690000Y-104953000D02*
X83439000Y-108204000D01*
D54*
X81661000Y-108204000D02*
X79582000Y-110283000D01*
%TO.N,/Output MCU/SWDIO*%
X99969000Y-100453000D02*
X102839000Y-97583000D01*
D56*
X96967500Y-100453000D02*
X99969000Y-100453000D01*
%TO.N,/Output MCU/SWCLK*%
X100203000Y-97663000D02*
X100219000Y-97663000D01*
D58*
X98929000Y-99953000D02*
X100203000Y-98679000D01*
D56*
X96967500Y-99953000D02*
X98929000Y-99953000D01*
D54*
X100203000Y-98679000D02*
X100203000Y-97663000D01*
X100219000Y-97663000D02*
X102839000Y-95043000D01*
%TO.N,ISO-MOSI*%
X109580000Y-104288000D02*
X109474000Y-104394000D01*
D56*
X99001000Y-104453000D02*
X99060000Y-104394000D01*
X96967500Y-104453000D02*
X99001000Y-104453000D01*
D54*
X111802000Y-104288000D02*
X109580000Y-104288000D01*
%TO.N,ISO-MISO*%
X111802000Y-105558000D02*
X98700000Y-105558000D01*
D56*
X98095000Y-104953000D02*
X98552000Y-105410000D01*
X96967500Y-104953000D02*
X98095000Y-104953000D01*
D54*
X98700000Y-105558000D02*
X98552000Y-105410000D01*
%TO.N,Net-(U2-PA4)*%
X123190000Y-98806000D02*
X123698000Y-99314000D01*
D55*
X135302000Y-98737000D02*
X135302000Y-97837000D01*
X135302000Y-97837000D02*
X135128000Y-97663000D01*
D54*
X123190000Y-97282000D02*
X123444000Y-97028000D01*
X123444000Y-97028000D02*
X134493000Y-97028000D01*
X134493000Y-97028000D02*
X135128000Y-97663000D01*
X123698000Y-99314000D02*
X125160000Y-99314000D01*
%TO.N,Net-(U2-PB3)*%
X118597000Y-105558000D02*
X118618000Y-105537000D01*
X124652000Y-104394000D02*
X123698000Y-104394000D01*
X123698000Y-104394000D02*
X123317000Y-104775000D01*
X116752000Y-105558000D02*
X118597000Y-105558000D01*
%TO.N,Net-(U2-PB2)*%
X120650000Y-105664000D02*
X124652000Y-105664000D01*
X119274000Y-104288000D02*
X120650000Y-105664000D01*
X116752000Y-104288000D02*
X119274000Y-104288000D01*
D53*
%TO.N,SDA*%
X144272000Y-106172000D02*
X144025000Y-105925000D01*
D56*
X152710000Y-106101000D02*
X152710000Y-105720000D01*
D53*
X151907500Y-104917500D02*
X150653000Y-106172000D01*
X144025000Y-105925000D02*
X132468000Y-105925000D01*
X132468000Y-105925000D02*
X132207000Y-105664000D01*
D54*
X130110000Y-105664000D02*
X132207000Y-105664000D01*
D56*
X155371000Y-97205000D02*
X154940000Y-96774000D01*
X156630000Y-97205000D02*
X155371000Y-97205000D01*
X152710000Y-105720000D02*
X151907500Y-104917500D01*
D53*
X154940000Y-101854000D02*
X154940000Y-101885000D01*
X154940000Y-101885000D02*
X151907500Y-104917500D01*
X150653000Y-106172000D02*
X144272000Y-106172000D01*
D56*
%TO.N,SCL*%
X148264000Y-103686000D02*
X149050000Y-102900000D01*
D53*
X150338000Y-102900000D02*
X155213000Y-98025000D01*
D56*
X156630000Y-98005000D02*
X155495000Y-98005000D01*
D53*
X149050000Y-102900000D02*
X150338000Y-102900000D01*
D54*
X130110000Y-104394000D02*
X132842000Y-104394000D01*
X133223000Y-104775000D02*
X133096000Y-104648000D01*
D56*
X155495000Y-98005000D02*
X155475000Y-98025000D01*
D53*
X155213000Y-98025000D02*
X155475000Y-98025000D01*
D54*
X132842000Y-104394000D02*
X133223000Y-104775000D01*
D55*
%TO.N,Net-(U2-PA1)*%
X134602000Y-99837000D02*
X133462000Y-99837000D01*
D54*
X130110000Y-101854000D02*
X132588000Y-101854000D01*
D55*
X133223000Y-99949000D02*
X133350000Y-99949000D01*
D54*
X132588000Y-101854000D02*
X133223000Y-101219000D01*
D55*
X133462000Y-99837000D02*
X133223000Y-99949000D01*
%TO.N,Net-(U2-PA2)*%
X134602000Y-100237000D02*
X133824000Y-100237000D01*
D56*
X133477000Y-100584000D02*
X130110000Y-100584000D01*
D55*
X133824000Y-100237000D02*
X133477000Y-100584000D01*
%TO.N,Net-(U2-PA3)*%
X134602000Y-99437000D02*
X133854000Y-99437000D01*
D56*
X133731000Y-99314000D02*
X130110000Y-99314000D01*
D55*
X133854000Y-99437000D02*
X133731000Y-99314000D01*
D54*
%TO.N,Net-(U6-OUT)*%
X137199000Y-93560000D02*
X138430000Y-92329000D01*
X141859000Y-92329000D02*
X142748000Y-91440000D01*
D58*
X136652000Y-94107000D02*
X136652000Y-96520000D01*
D54*
X143764000Y-89662000D02*
X143176000Y-89074000D01*
D58*
X136652000Y-96520000D02*
X135702000Y-97470000D01*
X137199000Y-93560000D02*
X138458000Y-93560000D01*
D54*
X138430000Y-92329000D02*
X141859000Y-92329000D01*
D58*
X137199000Y-93560000D02*
X136652000Y-94107000D01*
D54*
X143176000Y-89074000D02*
X143176000Y-88260000D01*
D55*
X135702000Y-98737000D02*
X135702000Y-97470000D01*
D53*
%TO.N,Net-(J1-Pin_1)*%
X76677000Y-89504000D02*
X76677000Y-87862000D01*
D56*
X96967500Y-102453000D02*
X95722000Y-102453000D01*
D53*
X82169000Y-94996000D02*
X76677000Y-89504000D01*
D56*
X95722000Y-102453000D02*
X95123000Y-101854000D01*
D53*
X88519000Y-97409000D02*
X86106000Y-94996000D01*
X86106000Y-94996000D02*
X82169000Y-94996000D01*
D54*
%TO.N,Net-(J3-Pin_1)*%
X85217000Y-97917000D02*
X82804000Y-97917000D01*
D56*
X79600000Y-101754000D02*
X78894000Y-101754000D01*
X78740000Y-101219000D02*
X78867000Y-101092000D01*
D54*
X80415000Y-100306000D02*
X79610000Y-100306000D01*
D58*
X86221000Y-100953000D02*
X86106000Y-100838000D01*
D56*
X78740000Y-101600000D02*
X78740000Y-101219000D01*
D54*
X86106000Y-98806000D02*
X85217000Y-97917000D01*
D56*
X78867000Y-101092000D02*
X79375000Y-101092000D01*
D54*
X84785000Y-108255000D02*
X84785000Y-111474000D01*
D56*
X79375000Y-101092000D02*
X79610000Y-100857000D01*
D54*
X86106000Y-100838000D02*
X86106000Y-98806000D01*
X82804000Y-97917000D02*
X80415000Y-100306000D01*
D56*
X79610000Y-100857000D02*
X79610000Y-100306000D01*
X78894000Y-101754000D02*
X78740000Y-101600000D01*
D54*
X85852000Y-107188000D02*
X84785000Y-108255000D01*
D55*
X88642500Y-100953000D02*
X86233000Y-100965000D01*
X86233000Y-100965000D02*
X86221000Y-100953000D01*
D54*
%TO.N,Net-(R9-Pad1)*%
X143510000Y-81915000D02*
X143176000Y-82249000D01*
X143176000Y-82249000D02*
X143176000Y-83024000D01*
X145288000Y-81915000D02*
X143510000Y-81915000D01*
X145659670Y-83305000D02*
X145659670Y-82286670D01*
X145659670Y-82286670D02*
X145288000Y-81915000D01*
%TD*%
%TA.AperFunction,Conductor*%
%TO.N,GND2*%
G36*
X134436039Y-102508685D02*
G01*
X134481794Y-102561489D01*
X134493000Y-102613000D01*
X134493000Y-104397000D01*
X134473315Y-104464039D01*
X134420511Y-104509794D01*
X134369000Y-104521000D01*
X134163362Y-104521000D01*
X134096323Y-104501315D01*
X134075681Y-104484681D01*
X133386319Y-103795319D01*
X133352834Y-103733996D01*
X133350000Y-103707638D01*
X133350000Y-103429362D01*
X133369685Y-103362323D01*
X133386319Y-103341681D01*
X134202681Y-102525319D01*
X134264004Y-102491834D01*
X134290362Y-102489000D01*
X134369000Y-102489000D01*
X134436039Y-102508685D01*
G37*
%TD.AperFunction*%
%TD*%
M02*
