%TF.GenerationSoftware,KiCad,Pcbnew,7.0.11+dfsg-1build4*%
%TF.CreationDate,2025-01-19T09:07:36-05:00*%
%TF.ProjectId,ThermocoupleBoard,54686572-6d6f-4636-9f75-706c65426f61,rev?*%
%TF.SameCoordinates,Original*%
%TF.FileFunction,Drillmap*%
%TF.FilePolarity,Positive*%
%FSLAX45Y45*%
G04 Gerber Fmt 4.5, Leading zero omitted, Abs format (unit mm)*
G04 Created by KiCad (PCBNEW 7.0.11+dfsg-1build4) date 2025-01-19 09:07:36*
%MOMM*%
%LPD*%
G01*
G04 APERTURE LIST*
%ADD10C,0.050000*%
%ADD11C,0.200000*%
G04 APERTURE END LIST*
D10*
X16764000Y-8890000D02*
X16764000Y-10414000D01*
X15875000Y-8001000D02*
X16764000Y-8890000D01*
X12700000Y-11176000D02*
X12446000Y-11430000D01*
X12446000Y-11430000D02*
X7112000Y-11430000D01*
X7112000Y-11430000D02*
X7112000Y-8001000D01*
X16764000Y-10414000D02*
X16002000Y-11176000D01*
X7112000Y-8001000D02*
X15875000Y-8001000D01*
X16002000Y-11176000D02*
X12700000Y-11176000D01*
D11*
X7370277Y-11743984D02*
X7370277Y-11543984D01*
X7370277Y-11543984D02*
X7417896Y-11543984D01*
X7417896Y-11543984D02*
X7446467Y-11553508D01*
X7446467Y-11553508D02*
X7465515Y-11572555D01*
X7465515Y-11572555D02*
X7475039Y-11591603D01*
X7475039Y-11591603D02*
X7484562Y-11629698D01*
X7484562Y-11629698D02*
X7484562Y-11658269D01*
X7484562Y-11658269D02*
X7475039Y-11696365D01*
X7475039Y-11696365D02*
X7465515Y-11715412D01*
X7465515Y-11715412D02*
X7446467Y-11734460D01*
X7446467Y-11734460D02*
X7417896Y-11743984D01*
X7417896Y-11743984D02*
X7370277Y-11743984D01*
X7570277Y-11743984D02*
X7570277Y-11610650D01*
X7570277Y-11648746D02*
X7579801Y-11629698D01*
X7579801Y-11629698D02*
X7589324Y-11620174D01*
X7589324Y-11620174D02*
X7608372Y-11610650D01*
X7608372Y-11610650D02*
X7627420Y-11610650D01*
X7694086Y-11743984D02*
X7694086Y-11610650D01*
X7694086Y-11543984D02*
X7684562Y-11553508D01*
X7684562Y-11553508D02*
X7694086Y-11563031D01*
X7694086Y-11563031D02*
X7703610Y-11553508D01*
X7703610Y-11553508D02*
X7694086Y-11543984D01*
X7694086Y-11543984D02*
X7694086Y-11563031D01*
X7817896Y-11743984D02*
X7798848Y-11734460D01*
X7798848Y-11734460D02*
X7789324Y-11715412D01*
X7789324Y-11715412D02*
X7789324Y-11543984D01*
X7922658Y-11743984D02*
X7903610Y-11734460D01*
X7903610Y-11734460D02*
X7894086Y-11715412D01*
X7894086Y-11715412D02*
X7894086Y-11543984D01*
X8151229Y-11743984D02*
X8151229Y-11543984D01*
X8151229Y-11543984D02*
X8217896Y-11686841D01*
X8217896Y-11686841D02*
X8284562Y-11543984D01*
X8284562Y-11543984D02*
X8284562Y-11743984D01*
X8465515Y-11743984D02*
X8465515Y-11639222D01*
X8465515Y-11639222D02*
X8455991Y-11620174D01*
X8455991Y-11620174D02*
X8436944Y-11610650D01*
X8436944Y-11610650D02*
X8398848Y-11610650D01*
X8398848Y-11610650D02*
X8379801Y-11620174D01*
X8465515Y-11734460D02*
X8446467Y-11743984D01*
X8446467Y-11743984D02*
X8398848Y-11743984D01*
X8398848Y-11743984D02*
X8379801Y-11734460D01*
X8379801Y-11734460D02*
X8370277Y-11715412D01*
X8370277Y-11715412D02*
X8370277Y-11696365D01*
X8370277Y-11696365D02*
X8379801Y-11677317D01*
X8379801Y-11677317D02*
X8398848Y-11667793D01*
X8398848Y-11667793D02*
X8446467Y-11667793D01*
X8446467Y-11667793D02*
X8465515Y-11658269D01*
X8560753Y-11610650D02*
X8560753Y-11810650D01*
X8560753Y-11620174D02*
X8579801Y-11610650D01*
X8579801Y-11610650D02*
X8617896Y-11610650D01*
X8617896Y-11610650D02*
X8636944Y-11620174D01*
X8636944Y-11620174D02*
X8646467Y-11629698D01*
X8646467Y-11629698D02*
X8655991Y-11648746D01*
X8655991Y-11648746D02*
X8655991Y-11705888D01*
X8655991Y-11705888D02*
X8646467Y-11724936D01*
X8646467Y-11724936D02*
X8636944Y-11734460D01*
X8636944Y-11734460D02*
X8617896Y-11743984D01*
X8617896Y-11743984D02*
X8579801Y-11743984D01*
X8579801Y-11743984D02*
X8560753Y-11734460D01*
X8741705Y-11724936D02*
X8751229Y-11734460D01*
X8751229Y-11734460D02*
X8741705Y-11743984D01*
X8741705Y-11743984D02*
X8732182Y-11734460D01*
X8732182Y-11734460D02*
X8741705Y-11724936D01*
X8741705Y-11724936D02*
X8741705Y-11743984D01*
X8741705Y-11620174D02*
X8751229Y-11629698D01*
X8751229Y-11629698D02*
X8741705Y-11639222D01*
X8741705Y-11639222D02*
X8732182Y-11629698D01*
X8732182Y-11629698D02*
X8741705Y-11620174D01*
X8741705Y-11620174D02*
X8741705Y-11639222D01*
M02*
