%TF.GenerationSoftware,KiCad,Pcbnew,7.0.11+dfsg-1build4*%
%TF.CreationDate,2025-01-19T09:07:44-05:00*%
%TF.ProjectId,ThermocoupleBoard,54686572-6d6f-4636-9f75-706c65426f61,rev?*%
%TF.SameCoordinates,Original*%
%TF.FileFunction,Other,User*%
%FSLAX46Y46*%
G04 Gerber Fmt 4.6, Leading zero omitted, Abs format (unit mm)*
G04 Created by KiCad (PCBNEW 7.0.11+dfsg-1build4) date 2025-01-19 09:07:44*
%MOMM*%
%LPD*%
G01*
G04 APERTURE LIST*
%ADD10C,0.050000*%
%ADD11C,0.152400*%
G04 APERTURE END LIST*
D10*
%TO.C,J6*%
X124358000Y-96703000D02*
X133008000Y-96703000D01*
X133008000Y-96703000D02*
X133008000Y-93103000D01*
X124358000Y-93103000D02*
X124358000Y-96703000D01*
X133008000Y-93103000D02*
X124358000Y-93103000D01*
%TO.C,C21*%
X137534000Y-103174000D02*
X139354000Y-103174000D01*
X137534000Y-104094000D02*
X137534000Y-103174000D01*
X139354000Y-103174000D02*
X139354000Y-104094000D01*
X139354000Y-104094000D02*
X137534000Y-104094000D01*
%TO.C,C5*%
X133672000Y-89451000D02*
X133672000Y-91271000D01*
X132752000Y-89451000D02*
X133672000Y-89451000D01*
X133672000Y-91271000D02*
X132752000Y-91271000D01*
X132752000Y-91271000D02*
X132752000Y-89451000D01*
%TO.C,RV1*%
X148709670Y-82455000D02*
X148709670Y-87555000D01*
X144609670Y-82455000D02*
X148709670Y-82455000D01*
X148709670Y-87555000D02*
X144609670Y-87555000D01*
X144609670Y-87555000D02*
X144609670Y-82455000D01*
%TO.C,Rz3*%
X95568000Y-95549000D02*
X92608000Y-95549000D01*
X95568000Y-94089000D02*
X95568000Y-95549000D01*
X92608000Y-95549000D02*
X92608000Y-94089000D01*
X92608000Y-94089000D02*
X95568000Y-94089000D01*
%TO.C,J1*%
X74877000Y-86062000D02*
X74877000Y-89662000D01*
X74877000Y-89662000D02*
X78477000Y-89662000D01*
X78477000Y-86062000D02*
X74877000Y-86062000D01*
X78477000Y-89662000D02*
X78477000Y-86062000D01*
%TO.C,C12*%
X79927000Y-85202000D02*
X81747000Y-85202000D01*
X79927000Y-86122000D02*
X79927000Y-85202000D01*
X81747000Y-85202000D02*
X81747000Y-86122000D01*
X81747000Y-86122000D02*
X79927000Y-86122000D01*
%TO.C,C29*%
X108442000Y-100476000D02*
X106622000Y-100476000D01*
X108442000Y-99556000D02*
X108442000Y-100476000D01*
X106622000Y-100476000D02*
X106622000Y-99556000D01*
X106622000Y-99556000D02*
X108442000Y-99556000D01*
%TO.C,C8*%
X138271000Y-86921000D02*
X140091000Y-86921000D01*
X138271000Y-87841000D02*
X138271000Y-86921000D01*
X140091000Y-86921000D02*
X140091000Y-87841000D01*
X140091000Y-87841000D02*
X138271000Y-87841000D01*
%TO.C,R12*%
X146268000Y-94332000D02*
X149228000Y-94332000D01*
X146268000Y-95792000D02*
X146268000Y-94332000D01*
X149228000Y-94332000D02*
X149228000Y-95792000D01*
X149228000Y-95792000D02*
X146268000Y-95792000D01*
%TO.C,U1*%
X87655000Y-99053000D02*
X87655000Y-102203000D01*
X87655000Y-105353000D02*
X87655000Y-102203000D01*
X89055000Y-98453000D02*
X89055000Y-99053000D01*
X89055000Y-99053000D02*
X87655000Y-99053000D01*
X89055000Y-105353000D02*
X87655000Y-105353000D01*
X89055000Y-105953000D02*
X89055000Y-105353000D01*
X89655000Y-97053000D02*
X89655000Y-98453000D01*
X89655000Y-98453000D02*
X89055000Y-98453000D01*
X89655000Y-105953000D02*
X89055000Y-105953000D01*
X89655000Y-107353000D02*
X89655000Y-105953000D01*
X92805000Y-97053000D02*
X89655000Y-97053000D01*
X92805000Y-97053000D02*
X95955000Y-97053000D01*
X92805000Y-107353000D02*
X89655000Y-107353000D01*
X92805000Y-107353000D02*
X95955000Y-107353000D01*
X95955000Y-97053000D02*
X95955000Y-98453000D01*
X95955000Y-98453000D02*
X96555000Y-98453000D01*
X95955000Y-105953000D02*
X96555000Y-105953000D01*
X95955000Y-107353000D02*
X95955000Y-105953000D01*
X96555000Y-98453000D02*
X96555000Y-99053000D01*
X96555000Y-99053000D02*
X97955000Y-99053000D01*
X96555000Y-105353000D02*
X97955000Y-105353000D01*
X96555000Y-105953000D02*
X96555000Y-105353000D01*
X97955000Y-99053000D02*
X97955000Y-102203000D01*
X97955000Y-105353000D02*
X97955000Y-102203000D01*
%TO.C,C19*%
X145586000Y-98927000D02*
X147406000Y-98927000D01*
X145586000Y-99847000D02*
X145586000Y-98927000D01*
X147406000Y-98927000D02*
X147406000Y-99847000D01*
X147406000Y-99847000D02*
X145586000Y-99847000D01*
%TO.C,C10*%
X81798000Y-89241000D02*
X79978000Y-89241000D01*
X81798000Y-88321000D02*
X81798000Y-89241000D01*
X79978000Y-89241000D02*
X79978000Y-88321000D01*
X79978000Y-88321000D02*
X81798000Y-88321000D01*
%TO.C,C27*%
X121777000Y-100727000D02*
X119957000Y-100727000D01*
X121777000Y-99807000D02*
X121777000Y-100727000D01*
X119957000Y-100727000D02*
X119957000Y-99807000D01*
X119957000Y-99807000D02*
X121777000Y-99807000D01*
%TO.C,C14*%
X148803000Y-93999000D02*
X146983000Y-93999000D01*
X148803000Y-93079000D02*
X148803000Y-93999000D01*
X146983000Y-93999000D02*
X146983000Y-93079000D01*
X146983000Y-93079000D02*
X148803000Y-93079000D01*
%TO.C,R16*%
X133296000Y-96506000D02*
X133296000Y-93546000D01*
X134756000Y-96506000D02*
X133296000Y-96506000D01*
X133296000Y-93546000D02*
X134756000Y-93546000D01*
X134756000Y-93546000D02*
X134756000Y-96506000D01*
%TO.C,C9*%
X81798000Y-87652000D02*
X79978000Y-87652000D01*
X81798000Y-86732000D02*
X81798000Y-87652000D01*
X79978000Y-87652000D02*
X79978000Y-86732000D01*
X79978000Y-86732000D02*
X81798000Y-86732000D01*
%TO.C,C35*%
X84477000Y-99893000D02*
X84477000Y-101713000D01*
X83557000Y-99893000D02*
X84477000Y-99893000D01*
X84477000Y-101713000D02*
X83557000Y-101713000D01*
X83557000Y-101713000D02*
X83557000Y-99893000D01*
%TO.C,Q1*%
X100736000Y-88754000D02*
X100736000Y-92154000D01*
X100736000Y-92154000D02*
X104576000Y-92154000D01*
X104576000Y-88754000D02*
X100736000Y-88754000D01*
X104576000Y-92154000D02*
X104576000Y-88754000D01*
%TO.C,U2*%
X123935000Y-97274000D02*
X123935000Y-106434000D01*
X123935000Y-106434000D02*
X131335000Y-106434000D01*
X131335000Y-97274000D02*
X123935000Y-97274000D01*
X131335000Y-106434000D02*
X131335000Y-97274000D01*
%TO.C,U8*%
X137302000Y-101437000D02*
X134102000Y-101437000D01*
X137302000Y-98237000D02*
X137302000Y-101437000D01*
X134102000Y-101437000D02*
X134102000Y-98237000D01*
X134102000Y-98237000D02*
X137302000Y-98237000D01*
%TO.C,R8*%
X80340000Y-98001000D02*
X80340000Y-100961000D01*
X78880000Y-98001000D02*
X80340000Y-98001000D01*
X80340000Y-100961000D02*
X78880000Y-100961000D01*
X78880000Y-100961000D02*
X78880000Y-98001000D01*
%TO.C,R22*%
X155015000Y-106831000D02*
X152055000Y-106831000D01*
X155015000Y-105371000D02*
X155015000Y-106831000D01*
X152055000Y-106831000D02*
X152055000Y-105371000D01*
X152055000Y-105371000D02*
X155015000Y-105371000D01*
%TO.C,U4*%
X83814000Y-87984000D02*
X87214000Y-87984000D01*
X87214000Y-87984000D02*
X87214000Y-83884000D01*
X83814000Y-83884000D02*
X83814000Y-87984000D01*
X87214000Y-83884000D02*
X83814000Y-83884000D01*
%TO.C,RX1*%
X106539000Y-109635000D02*
X109499000Y-109635000D01*
X106539000Y-111095000D02*
X106539000Y-109635000D01*
X109499000Y-109635000D02*
X109499000Y-111095000D01*
X109499000Y-111095000D02*
X106539000Y-111095000D01*
%TO.C,C15*%
X83207000Y-99825000D02*
X83207000Y-101645000D01*
X82287000Y-99825000D02*
X83207000Y-99825000D01*
X83207000Y-101645000D02*
X82287000Y-101645000D01*
X82287000Y-101645000D02*
X82287000Y-99825000D01*
%TO.C,R13*%
X146341000Y-91277000D02*
X149301000Y-91277000D01*
X146341000Y-92737000D02*
X146341000Y-91277000D01*
X149301000Y-91277000D02*
X149301000Y-92737000D01*
X149301000Y-92737000D02*
X146341000Y-92737000D01*
%TO.C,J5*%
X104639000Y-104463000D02*
X104639000Y-93263000D01*
X104639000Y-93263000D02*
X101039000Y-93263000D01*
X101039000Y-104463000D02*
X104639000Y-104463000D01*
X101039000Y-93263000D02*
X101039000Y-104463000D01*
%TO.C,J2*%
X74799000Y-95783000D02*
X74799000Y-112083000D01*
X74799000Y-112083000D02*
X78399000Y-112083000D01*
X78399000Y-95783000D02*
X74799000Y-95783000D01*
X78399000Y-112083000D02*
X78399000Y-95783000D01*
%TO.C,C2*%
X89056000Y-87853000D02*
X89056000Y-84093000D01*
X91016000Y-87853000D02*
X89056000Y-87853000D01*
X89056000Y-84093000D02*
X91016000Y-84093000D01*
X91016000Y-84093000D02*
X91016000Y-87853000D01*
%TO.C,U5*%
X137185000Y-88224000D02*
X137185000Y-91624000D01*
X137185000Y-91624000D02*
X141285000Y-91624000D01*
X141285000Y-88224000D02*
X137185000Y-88224000D01*
X141285000Y-91624000D02*
X141285000Y-88224000D01*
%TO.C,U6*%
X141008000Y-95610000D02*
X141008000Y-92810000D01*
X141008000Y-95610000D02*
X137808000Y-95610000D01*
X141008000Y-92810000D02*
X137808000Y-92810000D01*
X137808000Y-92810000D02*
X137808000Y-95610000D01*
%TO.C,R7*%
X143906000Y-85955000D02*
X143906000Y-88915000D01*
X142446000Y-85955000D02*
X143906000Y-85955000D01*
X143906000Y-88915000D02*
X142446000Y-88915000D01*
X142446000Y-88915000D02*
X142446000Y-85955000D01*
%TO.C,R6*%
X150552000Y-89823000D02*
X147592000Y-89823000D01*
X150552000Y-88363000D02*
X150552000Y-89823000D01*
X147592000Y-89823000D02*
X147592000Y-88363000D01*
X147592000Y-88363000D02*
X150552000Y-88363000D01*
%TO.C,R2*%
X97790000Y-89052000D02*
X99650000Y-89052000D01*
X97790000Y-89992000D02*
X97790000Y-89052000D01*
X99650000Y-89052000D02*
X99650000Y-89992000D01*
X99650000Y-89992000D02*
X97790000Y-89992000D01*
%TO.C,U11*%
X156130000Y-96605000D02*
X156130000Y-98605000D01*
X156130000Y-98605000D02*
X158530000Y-98605000D01*
X158530000Y-96605000D02*
X156130000Y-96605000D01*
X158530000Y-98605000D02*
X158530000Y-96605000D01*
%TO.C,R5*%
X150501000Y-95937000D02*
X150501000Y-92977000D01*
X151961000Y-95937000D02*
X150501000Y-95937000D01*
X150501000Y-92977000D02*
X151961000Y-92977000D01*
X151961000Y-92977000D02*
X151961000Y-95937000D01*
%TO.C,R10*%
X148542000Y-101428000D02*
X148542000Y-98468000D01*
X150002000Y-101428000D02*
X148542000Y-101428000D01*
X148542000Y-98468000D02*
X150002000Y-98468000D01*
X150002000Y-98468000D02*
X150002000Y-101428000D01*
%TO.C,C16*%
X144289000Y-96250000D02*
X144289000Y-98070000D01*
X143369000Y-96250000D02*
X144289000Y-96250000D01*
X144289000Y-98070000D02*
X143369000Y-98070000D01*
X143369000Y-98070000D02*
X143369000Y-96250000D01*
%TO.C,R21*%
X145959000Y-103115000D02*
X148919000Y-103115000D01*
X145959000Y-104575000D02*
X145959000Y-103115000D01*
X148919000Y-103115000D02*
X148919000Y-104575000D01*
X148919000Y-104575000D02*
X145959000Y-104575000D01*
%TO.C,C23*%
X136024000Y-104976000D02*
X134204000Y-104976000D01*
X136024000Y-104056000D02*
X136024000Y-104976000D01*
X134204000Y-104976000D02*
X134204000Y-104056000D01*
X134204000Y-104056000D02*
X136024000Y-104056000D01*
%TO.C,R3*%
X123539000Y-85743000D02*
X128099000Y-85743000D01*
X123539000Y-87983000D02*
X123539000Y-85743000D01*
X128099000Y-85743000D02*
X128099000Y-87983000D01*
X128099000Y-87983000D02*
X123539000Y-87983000D01*
%TO.C,D2*%
X133906000Y-87966000D02*
X133906000Y-85666000D01*
X133906000Y-87966000D02*
X129206000Y-87966000D01*
X129206000Y-87966000D02*
X129206000Y-85666000D01*
X129206000Y-85666000D02*
X133906000Y-85666000D01*
%TO.C,U3*%
X107899000Y-90429000D02*
X107899000Y-83349000D01*
X120899000Y-90429000D02*
X107899000Y-90429000D01*
X107899000Y-83349000D02*
X120899000Y-83349000D01*
X120899000Y-83349000D02*
X120899000Y-90429000D01*
%TO.C,C7*%
X138271000Y-85459000D02*
X140091000Y-85459000D01*
X138271000Y-86379000D02*
X138271000Y-85459000D01*
X140091000Y-85459000D02*
X140091000Y-86379000D01*
X140091000Y-86379000D02*
X138271000Y-86379000D01*
%TO.C,RY1*%
X118985000Y-109623000D02*
X121945000Y-109623000D01*
X118985000Y-111083000D02*
X118985000Y-109623000D01*
X121945000Y-109623000D02*
X121945000Y-111083000D01*
X121945000Y-111083000D02*
X118985000Y-111083000D01*
%TO.C,C26*%
X121955000Y-98069000D02*
X120135000Y-98069000D01*
X121955000Y-97149000D02*
X121955000Y-98069000D01*
X120135000Y-98069000D02*
X120135000Y-97149000D01*
X120135000Y-97149000D02*
X121955000Y-97149000D01*
%TO.C,R9*%
X143906000Y-82369000D02*
X143906000Y-85329000D01*
X142446000Y-82369000D02*
X143906000Y-82369000D01*
X143906000Y-85329000D02*
X142446000Y-85329000D01*
X142446000Y-85329000D02*
X142446000Y-82369000D01*
%TO.C,R20*%
X155070000Y-90625000D02*
X155070000Y-92485000D01*
X154130000Y-90625000D02*
X155070000Y-90625000D01*
X155070000Y-92485000D02*
X154130000Y-92485000D01*
X154130000Y-92485000D02*
X154130000Y-90625000D01*
%TO.C,C28*%
X121777000Y-101935000D02*
X119957000Y-101935000D01*
X121777000Y-101015000D02*
X121777000Y-101935000D01*
X119957000Y-101935000D02*
X119957000Y-101015000D01*
X119957000Y-101015000D02*
X121777000Y-101015000D01*
%TO.C,C22*%
X137534000Y-101969000D02*
X139354000Y-101969000D01*
X137534000Y-102889000D02*
X137534000Y-101969000D01*
X139354000Y-101969000D02*
X139354000Y-102889000D01*
X139354000Y-102889000D02*
X137534000Y-102889000D01*
%TO.C,C6*%
X135069000Y-89516000D02*
X135069000Y-91336000D01*
X134149000Y-89516000D02*
X135069000Y-89516000D01*
X135069000Y-91336000D02*
X134149000Y-91336000D01*
X134149000Y-91336000D02*
X134149000Y-89516000D01*
%TO.C,J3*%
X86585000Y-109674000D02*
X80435000Y-109674000D01*
X80435000Y-109674000D02*
X80435000Y-113274000D01*
X86585000Y-113274000D02*
X86585000Y-109674000D01*
X80435000Y-113274000D02*
X86585000Y-113274000D01*
%TO.C,C3*%
X132403000Y-89257000D02*
X132403000Y-92217000D01*
X130943000Y-89257000D02*
X132403000Y-89257000D01*
X132403000Y-92217000D02*
X130943000Y-92217000D01*
X130943000Y-92217000D02*
X130943000Y-89257000D01*
%TO.C,C1*%
X93937000Y-84131000D02*
X93937000Y-87891000D01*
X91977000Y-84131000D02*
X93937000Y-84131000D01*
X93937000Y-87891000D02*
X91977000Y-87891000D01*
X91977000Y-87891000D02*
X91977000Y-84131000D01*
%TO.C,U9*%
X110577000Y-102223000D02*
X110577000Y-107623000D01*
X110577000Y-107623000D02*
X117977000Y-107623000D01*
X117977000Y-102223000D02*
X110577000Y-102223000D01*
X117977000Y-107623000D02*
X117977000Y-102223000D01*
%TO.C,C30*%
X108442000Y-101684000D02*
X106622000Y-101684000D01*
X108442000Y-100764000D02*
X108442000Y-101684000D01*
X106622000Y-101684000D02*
X106622000Y-100764000D01*
X106622000Y-100764000D02*
X108442000Y-100764000D01*
%TO.C,R14*%
X140284000Y-98168000D02*
X137324000Y-98168000D01*
X140284000Y-96708000D02*
X140284000Y-98168000D01*
X137324000Y-98168000D02*
X137324000Y-96708000D01*
X137324000Y-96708000D02*
X140284000Y-96708000D01*
%TO.C,C13*%
X153433000Y-87992000D02*
X153433000Y-89812000D01*
X152513000Y-87992000D02*
X153433000Y-87992000D01*
X153433000Y-89812000D02*
X152513000Y-89812000D01*
X152513000Y-89812000D02*
X152513000Y-87992000D01*
%TO.C,U7*%
X140360000Y-99199000D02*
X140360000Y-102599000D01*
X140360000Y-102599000D02*
X144460000Y-102599000D01*
X144460000Y-99199000D02*
X140360000Y-99199000D01*
X144460000Y-102599000D02*
X144460000Y-99199000D01*
%TO.C,R11*%
X149228000Y-97727000D02*
X146268000Y-97727000D01*
X149228000Y-96267000D02*
X149228000Y-97727000D01*
X146268000Y-97727000D02*
X146268000Y-96267000D01*
X146268000Y-96267000D02*
X149228000Y-96267000D01*
%TO.C,C20*%
X138423000Y-98410000D02*
X140243000Y-98410000D01*
X138423000Y-99330000D02*
X138423000Y-98410000D01*
X140243000Y-98410000D02*
X140243000Y-99330000D01*
X140243000Y-99330000D02*
X138423000Y-99330000D01*
%TO.C,C24*%
X136024000Y-103768000D02*
X134204000Y-103768000D01*
X136024000Y-102848000D02*
X136024000Y-103768000D01*
X134204000Y-103768000D02*
X134204000Y-102848000D01*
X134204000Y-102848000D02*
X136024000Y-102848000D01*
%TO.C,C11*%
X79978000Y-83560000D02*
X81798000Y-83560000D01*
X79978000Y-84480000D02*
X79978000Y-83560000D01*
X81798000Y-83560000D02*
X81798000Y-84480000D01*
X81798000Y-84480000D02*
X79978000Y-84480000D01*
%TO.C,R17*%
X120433000Y-102647000D02*
X123393000Y-102647000D01*
X120433000Y-104107000D02*
X120433000Y-102647000D01*
X123393000Y-102647000D02*
X123393000Y-104107000D01*
X123393000Y-104107000D02*
X120433000Y-104107000D01*
%TO.C,C36*%
X159235000Y-98525000D02*
X159235000Y-96705000D01*
X160155000Y-98525000D02*
X159235000Y-98525000D01*
X159235000Y-96705000D02*
X160155000Y-96705000D01*
X160155000Y-96705000D02*
X160155000Y-98525000D01*
%TO.C,C33*%
X89653000Y-96122000D02*
X89653000Y-94302000D01*
X90573000Y-96122000D02*
X89653000Y-96122000D01*
X89653000Y-94302000D02*
X90573000Y-94302000D01*
X90573000Y-94302000D02*
X90573000Y-96122000D01*
D11*
%TO.C,L1*%
X109874200Y-92058200D02*
X109874200Y-100948200D01*
X109874200Y-100948200D02*
X118764200Y-100948200D01*
X118764200Y-92058200D02*
X109874200Y-92058200D01*
X118764200Y-100948200D02*
X118764200Y-92058200D01*
D10*
%TO.C,C4*%
X140138000Y-84833000D02*
X137178000Y-84833000D01*
X140138000Y-83373000D02*
X140138000Y-84833000D01*
X137178000Y-84833000D02*
X137178000Y-83373000D01*
X137178000Y-83373000D02*
X140138000Y-83373000D01*
%TO.C,R4*%
X156521000Y-86327000D02*
X153561000Y-86327000D01*
X156521000Y-84867000D02*
X156521000Y-86327000D01*
X153561000Y-86327000D02*
X153561000Y-84867000D01*
X153561000Y-84867000D02*
X156521000Y-84867000D01*
%TO.C,C34*%
X79170000Y-101294000D02*
X80990000Y-101294000D01*
X79170000Y-102214000D02*
X79170000Y-101294000D01*
X80990000Y-101294000D02*
X80990000Y-102214000D01*
X80990000Y-102214000D02*
X79170000Y-102214000D01*
%TO.C,C17*%
X142892000Y-96188000D02*
X142892000Y-98008000D01*
X141972000Y-96188000D02*
X142892000Y-96188000D01*
X142892000Y-98008000D02*
X141972000Y-98008000D01*
X141972000Y-98008000D02*
X141972000Y-96188000D01*
%TO.C,C25*%
X121955000Y-99401000D02*
X120135000Y-99401000D01*
X121955000Y-98481000D02*
X121955000Y-99401000D01*
X120135000Y-99401000D02*
X120135000Y-98481000D01*
X120135000Y-98481000D02*
X121955000Y-98481000D01*
%TO.C,D1*%
X130178000Y-92252000D02*
X123478000Y-92252000D01*
X130178000Y-89092000D02*
X130178000Y-92252000D01*
X123478000Y-92252000D02*
X123478000Y-89092000D01*
X123478000Y-89092000D02*
X130178000Y-89092000D01*
%TO.C,Rz1*%
X83884000Y-104626000D02*
X80924000Y-104626000D01*
X83884000Y-103166000D02*
X83884000Y-104626000D01*
X80924000Y-104626000D02*
X80924000Y-103166000D01*
X80924000Y-103166000D02*
X83884000Y-103166000D01*
%TO.C,R15*%
X136280000Y-93588000D02*
X136280000Y-96548000D01*
X134820000Y-93588000D02*
X136280000Y-93588000D01*
X136280000Y-96548000D02*
X134820000Y-96548000D01*
X134820000Y-96548000D02*
X134820000Y-93588000D01*
%TO.C,C18*%
X145586000Y-100132000D02*
X147406000Y-100132000D01*
X145586000Y-101052000D02*
X145586000Y-100132000D01*
X147406000Y-100132000D02*
X147406000Y-101052000D01*
X147406000Y-101052000D02*
X145586000Y-101052000D01*
%TO.C,R1*%
X83168000Y-89699000D02*
X90808000Y-89699000D01*
X83168000Y-93539000D02*
X83168000Y-89699000D01*
X90808000Y-89699000D02*
X90808000Y-93539000D01*
X90808000Y-93539000D02*
X83168000Y-93539000D01*
%TO.C,Rz2*%
X96418000Y-107327000D02*
X99378000Y-107327000D01*
X96418000Y-108787000D02*
X96418000Y-107327000D01*
X99378000Y-107327000D02*
X99378000Y-108787000D01*
X99378000Y-108787000D02*
X96418000Y-108787000D01*
%TO.C,J4*%
X88871000Y-113273000D02*
X97521000Y-113273000D01*
X97521000Y-113273000D02*
X97521000Y-109673000D01*
X88871000Y-109673000D02*
X88871000Y-113273000D01*
X97521000Y-109673000D02*
X88871000Y-109673000D01*
%TD*%
M02*
