%TF.GenerationSoftware,KiCad,Pcbnew,7.0.11+dfsg-1build4*%
%TF.CreationDate,2025-01-19T09:07:44-05:00*%
%TF.ProjectId,ThermocoupleBoard,54686572-6d6f-4636-9f75-706c65426f61,rev?*%
%TF.SameCoordinates,Original*%
%TF.FileFunction,Copper,L2,Bot*%
%TF.FilePolarity,Positive*%
%FSLAX46Y46*%
G04 Gerber Fmt 4.6, Leading zero omitted, Abs format (unit mm)*
G04 Created by KiCad (PCBNEW 7.0.11+dfsg-1build4) date 2025-01-19 09:07:44*
%MOMM*%
%LPD*%
G01*
G04 APERTURE LIST*
G04 Aperture macros list*
%AMRoundRect*
0 Rectangle with rounded corners*
0 $1 Rounding radius*
0 $2 $3 $4 $5 $6 $7 $8 $9 X,Y pos of 4 corners*
0 Add a 4 corners polygon primitive as box body*
4,1,4,$2,$3,$4,$5,$6,$7,$8,$9,$2,$3,0*
0 Add four circle primitives for the rounded corners*
1,1,$1+$1,$2,$3*
1,1,$1+$1,$4,$5*
1,1,$1+$1,$6,$7*
1,1,$1+$1,$8,$9*
0 Add four rect primitives between the rounded corners*
20,1,$1+$1,$2,$3,$4,$5,0*
20,1,$1+$1,$4,$5,$6,$7,0*
20,1,$1+$1,$6,$7,$8,$9,0*
20,1,$1+$1,$8,$9,$2,$3,0*%
G04 Aperture macros list end*
%TA.AperFunction,ComponentPad*%
%ADD10R,1.700000X1.700000*%
%TD*%
%TA.AperFunction,ComponentPad*%
%ADD11O,1.700000X1.700000*%
%TD*%
%TA.AperFunction,ComponentPad*%
%ADD12RoundRect,0.500000X0.750000X-1.000000X0.750000X1.000000X-0.750000X1.000000X-0.750000X-1.000000X0*%
%TD*%
%TA.AperFunction,ComponentPad*%
%ADD13O,2.500000X3.000000*%
%TD*%
%TA.AperFunction,ComponentPad*%
%ADD14C,0.600000*%
%TD*%
%TA.AperFunction,SMDPad,CuDef*%
%ADD15RoundRect,0.250000X-0.625000X0.400000X-0.625000X-0.400000X0.625000X-0.400000X0.625000X0.400000X0*%
%TD*%
%TA.AperFunction,ViaPad*%
%ADD16C,0.600000*%
%TD*%
%TA.AperFunction,ViaPad*%
%ADD17C,0.800000*%
%TD*%
%TA.AperFunction,ViaPad*%
%ADD18C,1.000000*%
%TD*%
%TA.AperFunction,ViaPad*%
%ADD19C,0.500000*%
%TD*%
%TA.AperFunction,Conductor*%
%ADD20C,0.500000*%
%TD*%
%TA.AperFunction,Conductor*%
%ADD21C,0.750000*%
%TD*%
%TA.AperFunction,Conductor*%
%ADD22C,0.350000*%
%TD*%
G04 APERTURE END LIST*
D10*
%TO.P,J6,1,Pin_1*%
%TO.N,3V3-ISO*%
X126158000Y-94903000D03*
D11*
%TO.P,J6,2,Pin_2*%
%TO.N,GND2*%
X128698000Y-94903000D03*
%TO.P,J6,3,Pin_3*%
%TO.N,/UPDI*%
X131238000Y-94903000D03*
%TD*%
D10*
%TO.P,J1,1,Pin_1*%
%TO.N,Net-(J1-Pin_1)*%
X76677000Y-87862000D03*
%TD*%
D12*
%TO.P,TC1,1,+*%
%TO.N,Net-(TC1-+)*%
X158174000Y-90220000D03*
D13*
%TO.P,TC1,2,-*%
%TO.N,Net-(TC1--)*%
X158174000Y-103320000D03*
%TD*%
D14*
%TO.P,U8,13,PAD*%
%TO.N,GNDA*%
X135702000Y-99837000D03*
%TD*%
D10*
%TO.P,J5,1,Pin_1*%
%TO.N,3V3-1*%
X102839000Y-102663000D03*
D11*
%TO.P,J5,2,Pin_2*%
%TO.N,GND1*%
X102839000Y-100123000D03*
%TO.P,J5,3,Pin_3*%
%TO.N,/Output MCU/SWDIO*%
X102839000Y-97583000D03*
%TO.P,J5,4,Pin_4*%
%TO.N,/Output MCU/SWCLK*%
X102839000Y-95043000D03*
%TD*%
D10*
%TO.P,J2,1,Pin_1*%
%TO.N,VCC*%
X76599000Y-97583000D03*
D11*
%TO.P,J2,2,Pin_2*%
%TO.N,GND1*%
X76599000Y-100123000D03*
%TO.P,J2,3,Pin_3*%
%TO.N,/Output MCU/CS*%
X76599000Y-102663000D03*
%TO.P,J2,4,Pin_4*%
%TO.N,/Output MCU/MISO*%
X76599000Y-105203000D03*
%TO.P,J2,5,Pin_5*%
%TO.N,/Output MCU/MOSI*%
X76599000Y-107743000D03*
%TO.P,J2,6,Pin_6*%
%TO.N,/Output MCU/SCK*%
X76599000Y-110283000D03*
%TD*%
D10*
%TO.P,J3,1,Pin_1*%
%TO.N,Net-(J3-Pin_1)*%
X84785000Y-111474000D03*
D11*
%TO.P,J3,2,Pin_2*%
%TO.N,GND1*%
X82245000Y-111474000D03*
%TD*%
D10*
%TO.P,J4,1,Pin_1*%
%TO.N,/Output MCU/DAC-High*%
X90671000Y-111473000D03*
D11*
%TO.P,J4,2,Pin_2*%
%TO.N,GND1*%
X93211000Y-111473000D03*
%TO.P,J4,3,Pin_3*%
%TO.N,/Output MCU/DAC-Low*%
X95751000Y-111473000D03*
%TD*%
D15*
%TO.P,R19,1*%
%TO.N,GNDA*%
X150749000Y-103225000D03*
%TO.P,R19,2*%
%TO.N,GND2*%
X150749000Y-106325000D03*
%TD*%
D16*
%TO.N,3V3-1*%
X83312000Y-97028000D03*
D17*
X106299000Y-93218000D03*
X106299000Y-89408000D03*
D16*
X83058000Y-86487000D03*
X83312000Y-98679000D03*
%TO.N,GND1*%
X81534000Y-100965000D03*
D18*
X92964000Y-88900000D03*
X104902000Y-110236000D03*
D16*
X79629000Y-84836000D03*
X109982000Y-106934000D03*
X79629000Y-88011000D03*
X91694000Y-94615000D03*
X79883000Y-103886000D03*
D18*
X88011000Y-84836000D03*
D16*
X107188000Y-86868000D03*
X100330000Y-107950000D03*
D18*
X99568000Y-91440000D03*
%TO.N,Net-(C2-Pad1)*%
X114319200Y-96503200D03*
X104394000Y-93218000D03*
D16*
%TO.N,GND2*%
X141986000Y-90424000D03*
X122555000Y-85598000D03*
X118618000Y-106934000D03*
X158800000Y-96180000D03*
X119888000Y-103632000D03*
X136398000Y-85979000D03*
X133223000Y-103632000D03*
D18*
X123698000Y-110236000D03*
X118618000Y-101600000D03*
D16*
X131953000Y-98044000D03*
%TO.N,3V3-ISO*%
X141859000Y-89027000D03*
X137414000Y-95758000D03*
X135890000Y-93218000D03*
D18*
%TO.N,VCC*%
X79756000Y-90170000D03*
D16*
%TO.N,Net-(U6-+)*%
X152273000Y-86868000D03*
X144145000Y-93218000D03*
%TO.N,GNDA*%
X145923000Y-92964000D03*
X141986000Y-94234000D03*
X148082000Y-99949000D03*
X141478000Y-98171000D03*
X138237000Y-100391000D03*
X140208000Y-102997000D03*
X153797000Y-93218000D03*
%TO.N,Net-(U7-OUT)*%
X145923000Y-102743000D03*
X139192000Y-99949000D03*
%TO.N,Net-(Q1-G)*%
X100203000Y-86741000D03*
X102616000Y-84328000D03*
%TO.N,150KHz from U1*%
X97028000Y-92075000D03*
X98933000Y-94361000D03*
%TO.N,Net-(TC1--)*%
X151511000Y-100584000D03*
%TO.N,Net-(U6--)*%
X146685000Y-89027000D03*
X143002000Y-92710000D03*
%TO.N,/UPDI*%
X132548000Y-102529000D03*
%TO.N,Net-(U1-PA10)*%
X89535000Y-108077000D03*
X91948000Y-108077000D03*
%TO.N,Net-(U1-PA12)*%
X97790000Y-97663000D03*
X98806000Y-101473000D03*
%TO.N,ISO-MOSI*%
X99060000Y-104394000D03*
X109474000Y-104394000D03*
%TO.N,Net-(U2-PA4)*%
X123190000Y-98806000D03*
X123190000Y-97282000D03*
%TO.N,Net-(U2-PB3)*%
X123317000Y-104775000D03*
X118618000Y-105537000D03*
%TO.N,SDA*%
X154940000Y-101854000D03*
X154940000Y-96774000D03*
%TO.N,SCL*%
X133223000Y-104775000D03*
X149050000Y-102900000D03*
%TO.N,Net-(U2-PA1)*%
X133223000Y-101219000D03*
X133223000Y-99949000D03*
%TO.N,Net-(U6-OUT)*%
X143764000Y-89662000D03*
X142748000Y-91440000D03*
%TO.N,Net-(J1-Pin_1)*%
X95123000Y-101854000D03*
X88519000Y-97409000D03*
D19*
%TO.N,Net-(J3-Pin_1)*%
X85852000Y-107188000D03*
X86233000Y-100965000D03*
%TD*%
D20*
%TO.N,3V3-1*%
X83058000Y-86487000D02*
X83312000Y-86741000D01*
X106299000Y-89408000D02*
X106299000Y-93218000D01*
X83312000Y-98679000D02*
X83312000Y-97028000D01*
X83312000Y-86741000D02*
X83312000Y-97028000D01*
D21*
%TO.N,Net-(C2-Pad1)*%
X107933200Y-96503200D02*
X107679200Y-96503200D01*
X107679200Y-96503200D02*
X104394000Y-93218000D01*
X114319200Y-96503200D02*
X107933200Y-96503200D01*
D20*
%TO.N,3V3-ISO*%
X141859000Y-89027000D02*
X130937000Y-89027000D01*
D22*
X136144000Y-93218000D02*
X135890000Y-93218000D01*
D20*
X130937000Y-89027000D02*
X126158000Y-93806000D01*
D22*
X136652000Y-94996000D02*
X136652000Y-93726000D01*
X136652000Y-93726000D02*
X136144000Y-93218000D01*
D20*
X126158000Y-93806000D02*
X126158000Y-94903000D01*
D22*
X137414000Y-95758000D02*
X136652000Y-94996000D01*
D21*
%TO.N,VCC*%
X76599000Y-97583000D02*
X76599000Y-93327000D01*
X76599000Y-93327000D02*
X79756000Y-90170000D01*
D22*
%TO.N,Net-(U6-+)*%
X152273000Y-86868000D02*
X150495000Y-86868000D01*
X150495000Y-86868000D02*
X144145000Y-93218000D01*
D20*
%TO.N,Net-(U7-OUT)*%
X141986000Y-102743000D02*
X139192000Y-99949000D01*
X145923000Y-102743000D02*
X141986000Y-102743000D01*
D22*
%TO.N,Net-(Q1-G)*%
X102595000Y-84349000D02*
X100203000Y-86741000D01*
%TO.N,150KHz from U1*%
X98933000Y-93980000D02*
X98933000Y-94361000D01*
X97028000Y-92075000D02*
X98933000Y-93980000D01*
D20*
%TO.N,Net-(TC1--)*%
X158174000Y-103320000D02*
X154247000Y-103320000D01*
X154247000Y-103320000D02*
X151511000Y-100584000D01*
D22*
%TO.N,Net-(U6--)*%
X143002000Y-92710000D02*
X146685000Y-89027000D01*
%TO.N,/UPDI*%
X132715000Y-99060000D02*
X132715000Y-96380000D01*
X132715000Y-96380000D02*
X131238000Y-94903000D01*
X132548000Y-99227000D02*
X132715000Y-99060000D01*
X132548000Y-102529000D02*
X132548000Y-99227000D01*
%TO.N,Net-(U1-PA10)*%
X89535000Y-108077000D02*
X91948000Y-108077000D01*
%TO.N,Net-(U1-PA12)*%
X98806000Y-98679000D02*
X98806000Y-101473000D01*
X97790000Y-97663000D02*
X98806000Y-98679000D01*
%TO.N,ISO-MOSI*%
X109474000Y-104394000D02*
X99060000Y-104394000D01*
%TO.N,Net-(U2-PA4)*%
X123190000Y-98806000D02*
X123190000Y-97282000D01*
%TO.N,Net-(U2-PB3)*%
X119507000Y-105537000D02*
X118618000Y-105537000D01*
X123317000Y-104775000D02*
X120269000Y-104775000D01*
X120269000Y-104775000D02*
X119507000Y-105537000D01*
D20*
%TO.N,SDA*%
X154940000Y-101854000D02*
X154940000Y-96774000D01*
%TO.N,SCL*%
X147175000Y-104775000D02*
X133223000Y-104775000D01*
X149050000Y-102900000D02*
X147175000Y-104775000D01*
D22*
%TO.N,Net-(U2-PA1)*%
X133223000Y-101219000D02*
X133223000Y-99949000D01*
%TO.N,Net-(U6-OUT)*%
X143764000Y-89662000D02*
X143764000Y-90424000D01*
X143764000Y-90424000D02*
X142748000Y-91440000D01*
D20*
%TO.N,Net-(J1-Pin_1)*%
X89154000Y-98044000D02*
X94107000Y-98044000D01*
X88519000Y-97409000D02*
X89154000Y-98044000D01*
X94107000Y-98044000D02*
X95123000Y-99060000D01*
X95123000Y-99060000D02*
X95123000Y-101854000D01*
D22*
%TO.N,Net-(J3-Pin_1)*%
X86233000Y-100965000D02*
X86233000Y-106807000D01*
X86233000Y-106807000D02*
X85852000Y-107188000D01*
%TD*%
%TA.AperFunction,Conductor*%
%TO.N,GND2*%
G36*
X153946061Y-81280597D02*
G01*
X154122941Y-81298018D01*
X154146769Y-81302757D01*
X154311001Y-81352576D01*
X154333453Y-81361877D01*
X154484798Y-81442772D01*
X154505010Y-81456277D01*
X154637666Y-81565145D01*
X154654854Y-81582333D01*
X154763722Y-81714989D01*
X154777227Y-81735201D01*
X154858121Y-81886543D01*
X154867424Y-81909001D01*
X154917240Y-82073224D01*
X154921982Y-82097065D01*
X154939403Y-82273938D01*
X154940000Y-82286092D01*
X154940000Y-90052907D01*
X154939403Y-90065061D01*
X154921982Y-90241934D01*
X154917240Y-90265775D01*
X154867424Y-90429998D01*
X154858121Y-90452456D01*
X154777227Y-90603798D01*
X154763722Y-90624010D01*
X154654854Y-90756666D01*
X154637666Y-90773854D01*
X154505010Y-90882722D01*
X154484798Y-90896227D01*
X154333456Y-90977121D01*
X154310998Y-90986424D01*
X154146775Y-91036240D01*
X154122934Y-91040982D01*
X153946061Y-91058403D01*
X153933907Y-91059000D01*
X147134398Y-91059000D01*
X147067359Y-91039315D01*
X147021604Y-90986511D01*
X147011660Y-90917353D01*
X147040685Y-90853797D01*
X147046717Y-90847319D01*
X147652103Y-90241934D01*
X150614218Y-87279819D01*
X150675541Y-87246334D01*
X150701899Y-87243500D01*
X151895126Y-87243500D01*
X151962165Y-87263185D01*
X151962166Y-87263185D01*
X152062947Y-87327953D01*
X152062948Y-87327953D01*
X152062949Y-87327954D01*
X152201036Y-87368499D01*
X152201038Y-87368500D01*
X152201039Y-87368500D01*
X152344962Y-87368500D01*
X152344962Y-87368499D01*
X152483053Y-87327953D01*
X152604128Y-87250143D01*
X152698377Y-87141373D01*
X152758165Y-87010457D01*
X152778647Y-86868000D01*
X152758165Y-86725543D01*
X152698377Y-86594627D01*
X152604128Y-86485857D01*
X152483053Y-86408047D01*
X152483051Y-86408046D01*
X152483049Y-86408045D01*
X152483050Y-86408045D01*
X152344963Y-86367500D01*
X152344961Y-86367500D01*
X152201039Y-86367500D01*
X152201036Y-86367500D01*
X152062949Y-86408045D01*
X152062948Y-86408046D01*
X151962166Y-86472815D01*
X151895126Y-86492500D01*
X150546804Y-86492500D01*
X150521359Y-86489861D01*
X150510732Y-86487633D01*
X150479324Y-86491548D01*
X150463986Y-86492500D01*
X150463886Y-86492500D01*
X150443400Y-86495918D01*
X150438338Y-86496656D01*
X150428699Y-86497857D01*
X150386370Y-86503134D01*
X150378857Y-86505371D01*
X150371386Y-86507936D01*
X150325371Y-86532837D01*
X150320820Y-86535180D01*
X150273792Y-86558171D01*
X150267375Y-86562753D01*
X150261174Y-86567579D01*
X150225717Y-86606095D01*
X150222171Y-86609790D01*
X145809281Y-91022681D01*
X145747958Y-91056166D01*
X145721600Y-91059000D01*
X145483399Y-91059000D01*
X145416360Y-91039315D01*
X145370605Y-90986511D01*
X145360661Y-90917353D01*
X145389686Y-90853797D01*
X145395718Y-90847319D01*
X146025937Y-90217100D01*
X146679399Y-89563637D01*
X146740720Y-89530154D01*
X146749436Y-89528581D01*
X146756954Y-89527500D01*
X146756961Y-89527500D01*
X146756968Y-89527498D01*
X146895050Y-89486954D01*
X146895050Y-89486953D01*
X146895053Y-89486953D01*
X147016128Y-89409143D01*
X147110377Y-89300373D01*
X147170165Y-89169457D01*
X147190647Y-89027000D01*
X147170165Y-88884543D01*
X147110377Y-88753627D01*
X147016128Y-88644857D01*
X146895053Y-88567047D01*
X146895051Y-88567046D01*
X146895049Y-88567045D01*
X146895050Y-88567045D01*
X146756963Y-88526500D01*
X146756961Y-88526500D01*
X146613039Y-88526500D01*
X146613036Y-88526500D01*
X146474949Y-88567045D01*
X146353873Y-88644856D01*
X146259623Y-88753626D01*
X146259622Y-88753628D01*
X146199835Y-88884541D01*
X146199834Y-88884546D01*
X146189489Y-88956496D01*
X146160463Y-89020051D01*
X146154432Y-89026529D01*
X144158281Y-91022681D01*
X144096958Y-91056166D01*
X144070600Y-91059000D01*
X143959399Y-91059000D01*
X143892360Y-91039315D01*
X143846605Y-90986511D01*
X143836661Y-90917353D01*
X143865686Y-90853797D01*
X143871705Y-90847330D01*
X143992896Y-90726140D01*
X144012741Y-90710025D01*
X144021836Y-90704084D01*
X144041272Y-90679110D01*
X144051450Y-90667587D01*
X144051520Y-90667518D01*
X144063607Y-90650586D01*
X144066666Y-90646485D01*
X144084159Y-90624010D01*
X144098809Y-90605189D01*
X144098811Y-90605182D01*
X144102547Y-90598280D01*
X144106003Y-90591207D01*
X144106010Y-90591199D01*
X144120955Y-90540995D01*
X144122483Y-90536224D01*
X144139500Y-90486660D01*
X144139500Y-90486656D01*
X144140790Y-90478924D01*
X144141768Y-90471085D01*
X144139606Y-90418807D01*
X144139500Y-90413683D01*
X144139500Y-90039183D01*
X144159185Y-89972144D01*
X144169783Y-89957985D01*
X144189377Y-89935373D01*
X144249165Y-89804457D01*
X144269647Y-89662000D01*
X144249165Y-89519543D01*
X144189377Y-89388627D01*
X144095128Y-89279857D01*
X143974053Y-89202047D01*
X143974051Y-89202046D01*
X143974049Y-89202045D01*
X143974050Y-89202045D01*
X143835963Y-89161500D01*
X143835961Y-89161500D01*
X143692039Y-89161500D01*
X143692036Y-89161500D01*
X143553949Y-89202045D01*
X143432873Y-89279856D01*
X143338623Y-89388626D01*
X143338622Y-89388628D01*
X143278834Y-89519543D01*
X143258353Y-89662000D01*
X143278834Y-89804456D01*
X143338622Y-89935371D01*
X143338623Y-89935373D01*
X143358212Y-89957980D01*
X143387238Y-90021534D01*
X143388500Y-90039183D01*
X143388500Y-90217100D01*
X143368815Y-90284139D01*
X143352181Y-90304781D01*
X142753601Y-90903360D01*
X142692278Y-90936845D01*
X142683571Y-90938416D01*
X142676040Y-90939498D01*
X142537949Y-90980045D01*
X142537944Y-90980047D01*
X142445723Y-91039315D01*
X142378684Y-91059000D01*
X132969000Y-91059000D01*
X132969000Y-92059003D01*
X132969000Y-95803600D01*
X132949315Y-95870639D01*
X132896511Y-95916394D01*
X132827353Y-95926338D01*
X132763797Y-95897313D01*
X132757319Y-95891281D01*
X132256420Y-95390382D01*
X132222935Y-95329059D01*
X132225439Y-95266709D01*
X132273300Y-95108934D01*
X132293583Y-94903000D01*
X132273300Y-94697066D01*
X132213232Y-94499046D01*
X132115685Y-94316550D01*
X132063702Y-94253209D01*
X131984410Y-94156589D01*
X131834121Y-94033252D01*
X131824450Y-94025315D01*
X131641954Y-93927768D01*
X131443934Y-93867700D01*
X131443932Y-93867699D01*
X131443934Y-93867699D01*
X131238000Y-93847417D01*
X131032067Y-93867699D01*
X130834043Y-93927769D01*
X130746114Y-93974769D01*
X130651550Y-94025315D01*
X130651548Y-94025316D01*
X130651547Y-94025317D01*
X130491589Y-94156589D01*
X130360317Y-94316547D01*
X130360315Y-94316550D01*
X130360164Y-94316833D01*
X130262769Y-94499043D01*
X130202699Y-94697067D01*
X130182417Y-94903000D01*
X130202699Y-95108932D01*
X130202700Y-95108934D01*
X130262768Y-95306954D01*
X130360315Y-95489450D01*
X130360317Y-95489452D01*
X130491589Y-95649410D01*
X130588209Y-95728702D01*
X130651550Y-95780685D01*
X130834046Y-95878232D01*
X131032066Y-95938300D01*
X131032065Y-95938300D01*
X131039061Y-95938989D01*
X131238000Y-95958583D01*
X131443934Y-95938300D01*
X131601709Y-95890439D01*
X131671574Y-95889817D01*
X131725383Y-95921420D01*
X132303181Y-96499218D01*
X132336666Y-96560541D01*
X132339500Y-96586899D01*
X132339500Y-98847577D01*
X132319815Y-98914616D01*
X132296254Y-98938362D01*
X132297723Y-98939957D01*
X132290164Y-98946915D01*
X132270720Y-98971896D01*
X132260574Y-98983388D01*
X132260483Y-98983479D01*
X132260474Y-98983489D01*
X132248402Y-99000397D01*
X132245341Y-99004503D01*
X132213192Y-99045808D01*
X132209447Y-99052729D01*
X132205988Y-99059804D01*
X132191057Y-99109955D01*
X132189495Y-99114831D01*
X132172500Y-99164338D01*
X132171206Y-99172092D01*
X132170231Y-99179911D01*
X132172394Y-99232191D01*
X132172500Y-99237316D01*
X132172500Y-102151815D01*
X132152815Y-102218854D01*
X132142215Y-102233016D01*
X132122623Y-102255627D01*
X132122622Y-102255628D01*
X132062834Y-102386543D01*
X132042353Y-102529000D01*
X132062834Y-102671456D01*
X132108174Y-102770734D01*
X132122623Y-102802373D01*
X132216872Y-102911143D01*
X132337947Y-102988953D01*
X132337950Y-102988954D01*
X132337949Y-102988954D01*
X132476036Y-103029499D01*
X132476038Y-103029500D01*
X132476039Y-103029500D01*
X132619962Y-103029500D01*
X132619962Y-103029499D01*
X132758053Y-102988953D01*
X132879128Y-102911143D01*
X132973377Y-102802373D01*
X132999974Y-102744132D01*
X133045726Y-102691331D01*
X133112766Y-102671646D01*
X133167807Y-102687807D01*
X133261896Y-102781896D01*
X133261901Y-102781902D01*
X134592819Y-104112819D01*
X134626304Y-104174142D01*
X134621320Y-104243834D01*
X134579448Y-104299767D01*
X134513984Y-104324184D01*
X134505138Y-104324500D01*
X133480727Y-104324500D01*
X133441995Y-104316073D01*
X133441563Y-104317545D01*
X133294963Y-104274500D01*
X133294961Y-104274500D01*
X133151039Y-104274500D01*
X133151036Y-104274500D01*
X133012949Y-104315045D01*
X132891873Y-104392856D01*
X132797623Y-104501626D01*
X132797622Y-104501628D01*
X132737834Y-104632543D01*
X132717353Y-104775000D01*
X132737834Y-104917456D01*
X132766824Y-104980933D01*
X132797623Y-105048373D01*
X132891872Y-105157143D01*
X133012947Y-105234953D01*
X133012950Y-105234954D01*
X133012949Y-105234954D01*
X133151036Y-105275499D01*
X133151038Y-105275500D01*
X133151039Y-105275500D01*
X133294962Y-105275500D01*
X133294962Y-105275499D01*
X133347797Y-105259985D01*
X133441563Y-105232455D01*
X133441995Y-105233926D01*
X133480727Y-105225500D01*
X147142738Y-105225500D01*
X147156620Y-105226279D01*
X147169421Y-105227722D01*
X147192033Y-105230270D01*
X147192033Y-105230269D01*
X147192035Y-105230270D01*
X147248236Y-105219635D01*
X147252726Y-105218872D01*
X147309287Y-105210348D01*
X147309291Y-105210345D01*
X147317447Y-105207830D01*
X147325469Y-105205024D01*
X147325470Y-105205023D01*
X147325472Y-105205023D01*
X147376088Y-105178270D01*
X147380093Y-105176248D01*
X147431642Y-105151425D01*
X147431643Y-105151423D01*
X147431645Y-105151423D01*
X147438695Y-105146616D01*
X147445534Y-105141567D01*
X147445538Y-105141566D01*
X147485975Y-105101127D01*
X147489261Y-105097961D01*
X147531194Y-105059055D01*
X147531196Y-105059050D01*
X147536987Y-105051790D01*
X147537643Y-105052313D01*
X147547032Y-105040070D01*
X147775784Y-104811319D01*
X147837107Y-104777834D01*
X147863465Y-104775000D01*
X153177997Y-104775000D01*
X153178000Y-104775000D01*
X154178000Y-104775000D01*
X154178000Y-103857698D01*
X154193386Y-103819594D01*
X154250420Y-103779234D01*
X154295270Y-103772621D01*
X154298010Y-103772724D01*
X154298013Y-103772722D01*
X154298015Y-103772723D01*
X154307243Y-103771684D01*
X154307336Y-103772513D01*
X154322636Y-103770500D01*
X156631974Y-103770500D01*
X156699013Y-103790185D01*
X156744768Y-103842989D01*
X156752180Y-103864060D01*
X156797389Y-104042589D01*
X156893951Y-104262729D01*
X156991718Y-104412371D01*
X157025429Y-104463969D01*
X157188236Y-104640825D01*
X157188239Y-104640827D01*
X157188242Y-104640830D01*
X157377924Y-104788466D01*
X157377930Y-104788470D01*
X157377933Y-104788472D01*
X157589344Y-104902882D01*
X157589347Y-104902883D01*
X157816699Y-104980933D01*
X157816701Y-104980933D01*
X157816703Y-104980934D01*
X158053808Y-105020500D01*
X158053809Y-105020500D01*
X158294191Y-105020500D01*
X158294192Y-105020500D01*
X158531297Y-104980934D01*
X158758656Y-104902882D01*
X158970067Y-104788472D01*
X159159764Y-104640825D01*
X159322571Y-104463969D01*
X159454049Y-104262728D01*
X159550610Y-104042591D01*
X159609620Y-103809563D01*
X159624500Y-103629990D01*
X159624500Y-103010010D01*
X159609620Y-102830437D01*
X159550610Y-102597409D01*
X159454049Y-102377272D01*
X159443324Y-102360857D01*
X159374574Y-102255627D01*
X159322571Y-102176031D01*
X159159764Y-101999175D01*
X159159759Y-101999171D01*
X159159757Y-101999169D01*
X158970075Y-101851533D01*
X158970069Y-101851529D01*
X158758657Y-101737118D01*
X158758652Y-101737116D01*
X158531300Y-101659066D01*
X158353468Y-101629391D01*
X158294192Y-101619500D01*
X158053808Y-101619500D01*
X158006387Y-101627413D01*
X157816699Y-101659066D01*
X157589347Y-101737116D01*
X157589342Y-101737118D01*
X157377930Y-101851529D01*
X157377924Y-101851533D01*
X157188242Y-101999169D01*
X157188239Y-101999172D01*
X157025430Y-102176029D01*
X157025427Y-102176033D01*
X156893951Y-102377270D01*
X156797389Y-102597410D01*
X156752180Y-102775940D01*
X156716640Y-102836096D01*
X156654220Y-102867488D01*
X156631974Y-102869500D01*
X154484965Y-102869500D01*
X154417926Y-102849815D01*
X154397284Y-102833181D01*
X154214319Y-102650216D01*
X154180834Y-102588893D01*
X154178000Y-102562535D01*
X154178000Y-101854000D01*
X154434353Y-101854000D01*
X154454834Y-101996456D01*
X154456076Y-101999175D01*
X154514623Y-102127373D01*
X154608872Y-102236143D01*
X154729947Y-102313953D01*
X154729950Y-102313954D01*
X154729949Y-102313954D01*
X154868036Y-102354499D01*
X154868038Y-102354500D01*
X154868039Y-102354500D01*
X155011962Y-102354500D01*
X155011962Y-102354499D01*
X155150053Y-102313953D01*
X155271128Y-102236143D01*
X155365377Y-102127373D01*
X155425165Y-101996457D01*
X155445647Y-101854000D01*
X155425165Y-101711543D01*
X155422484Y-101705673D01*
X155401706Y-101660174D01*
X155390500Y-101608663D01*
X155390500Y-97019335D01*
X155401705Y-96967825D01*
X155425165Y-96916457D01*
X155445647Y-96774000D01*
X155425165Y-96631543D01*
X155365377Y-96500627D01*
X155271128Y-96391857D01*
X155150053Y-96314047D01*
X155150051Y-96314046D01*
X155150049Y-96314045D01*
X155150050Y-96314045D01*
X155011963Y-96273500D01*
X155011961Y-96273500D01*
X154868039Y-96273500D01*
X154868036Y-96273500D01*
X154729949Y-96314045D01*
X154608873Y-96391856D01*
X154514623Y-96500626D01*
X154514622Y-96500628D01*
X154454834Y-96631543D01*
X154434353Y-96774000D01*
X154454834Y-96916453D01*
X154454834Y-96916454D01*
X154454834Y-96916455D01*
X154454835Y-96916457D01*
X154478294Y-96967825D01*
X154489500Y-97019335D01*
X154489500Y-101608663D01*
X154478294Y-101660174D01*
X154454835Y-101711541D01*
X154454834Y-101711542D01*
X154434353Y-101854000D01*
X154178000Y-101854000D01*
X154178000Y-96510092D01*
X154178597Y-96497938D01*
X154189045Y-96391856D01*
X154196018Y-96321056D01*
X154200757Y-96297232D01*
X154250577Y-96132994D01*
X154259875Y-96110549D01*
X154340775Y-95959195D01*
X154354272Y-95938995D01*
X154463149Y-95806328D01*
X154480328Y-95789149D01*
X154612995Y-95680272D01*
X154633195Y-95666775D01*
X154784549Y-95585875D01*
X154806994Y-95576577D01*
X154971232Y-95526757D01*
X154995056Y-95522018D01*
X155171939Y-95504597D01*
X155184093Y-95504000D01*
X159648907Y-95504000D01*
X159661061Y-95504597D01*
X159837941Y-95522018D01*
X159861769Y-95526757D01*
X160026001Y-95576576D01*
X160048453Y-95585877D01*
X160167316Y-95649410D01*
X160199798Y-95666772D01*
X160220010Y-95680277D01*
X160352666Y-95789145D01*
X160369854Y-95806333D01*
X160478722Y-95938989D01*
X160492227Y-95959201D01*
X160573121Y-96110543D01*
X160582424Y-96133001D01*
X160632240Y-96297224D01*
X160636982Y-96321065D01*
X160654403Y-96497938D01*
X160655000Y-96510092D01*
X160655000Y-108799693D01*
X160654403Y-108811847D01*
X160636982Y-108988721D01*
X160632240Y-109012562D01*
X160582424Y-109176785D01*
X160573121Y-109199243D01*
X160492227Y-109350585D01*
X160478722Y-109370797D01*
X160365969Y-109508186D01*
X160357797Y-109517202D01*
X159682202Y-110192797D01*
X159673186Y-110200969D01*
X159535797Y-110313722D01*
X159515585Y-110327227D01*
X159364243Y-110408121D01*
X159341785Y-110417424D01*
X159177562Y-110467240D01*
X159153721Y-110471982D01*
X158976847Y-110489403D01*
X158964693Y-110490000D01*
X132969000Y-110490000D01*
X125730000Y-110490000D01*
X125437112Y-110782887D01*
X125437101Y-110782897D01*
X123487202Y-112732797D01*
X123478186Y-112740969D01*
X123340797Y-112853722D01*
X123320585Y-112867227D01*
X123169243Y-112948121D01*
X123146785Y-112957424D01*
X122982562Y-113007240D01*
X122958721Y-113011982D01*
X122781847Y-113029403D01*
X122769693Y-113030000D01*
X117846093Y-113030000D01*
X117833939Y-113029403D01*
X117657065Y-113011982D01*
X117633224Y-113007240D01*
X117469001Y-112957424D01*
X117446543Y-112948121D01*
X117295201Y-112867227D01*
X117274989Y-112853722D01*
X117142333Y-112744854D01*
X117125145Y-112727666D01*
X117016277Y-112595010D01*
X117002772Y-112574798D01*
X116921878Y-112423456D01*
X116912575Y-112400998D01*
X116862757Y-112236769D01*
X116858018Y-112212941D01*
X116840597Y-112036061D01*
X116840000Y-112023907D01*
X116840000Y-106500000D01*
X149674001Y-106500000D01*
X149674001Y-106779196D01*
X149676851Y-106809606D01*
X149721653Y-106937645D01*
X149802207Y-107046792D01*
X149911354Y-107127346D01*
X150039397Y-107172149D01*
X150069792Y-107174999D01*
X150573999Y-107174999D01*
X150574000Y-107174998D01*
X150574000Y-106500000D01*
X150924000Y-106500000D01*
X150924000Y-107174999D01*
X151428196Y-107174999D01*
X151458606Y-107172148D01*
X151586645Y-107127346D01*
X151695792Y-107046792D01*
X151776346Y-106937645D01*
X151821149Y-106809604D01*
X151821149Y-106809600D01*
X151824000Y-106779206D01*
X151824000Y-106500000D01*
X150924000Y-106500000D01*
X150574000Y-106500000D01*
X149674001Y-106500000D01*
X116840000Y-106500000D01*
X116840000Y-106150000D01*
X149674000Y-106150000D01*
X150574000Y-106150000D01*
X150574000Y-105475000D01*
X150924000Y-105475000D01*
X150924000Y-106150000D01*
X151823999Y-106150000D01*
X151823999Y-105870803D01*
X151821148Y-105840393D01*
X151776346Y-105712354D01*
X151695792Y-105603207D01*
X151586645Y-105522653D01*
X151458602Y-105477850D01*
X151428207Y-105475000D01*
X150924000Y-105475000D01*
X150574000Y-105475000D01*
X150069803Y-105475000D01*
X150039393Y-105477851D01*
X149911354Y-105522653D01*
X149802207Y-105603207D01*
X149721653Y-105712354D01*
X149676850Y-105840395D01*
X149676850Y-105840399D01*
X149674000Y-105870793D01*
X149674000Y-106150000D01*
X116840000Y-106150000D01*
X116840000Y-105537000D01*
X118112353Y-105537000D01*
X118132834Y-105679456D01*
X118185701Y-105795216D01*
X118192623Y-105810373D01*
X118286872Y-105919143D01*
X118407947Y-105996953D01*
X118407950Y-105996954D01*
X118407949Y-105996954D01*
X118546036Y-106037499D01*
X118546038Y-106037500D01*
X118546039Y-106037500D01*
X118689962Y-106037500D01*
X118689962Y-106037499D01*
X118828053Y-105996953D01*
X118928834Y-105932184D01*
X118995874Y-105912500D01*
X119455196Y-105912500D01*
X119480641Y-105915139D01*
X119483724Y-105915785D01*
X119491268Y-105917367D01*
X119522676Y-105913451D01*
X119538014Y-105912500D01*
X119538112Y-105912500D01*
X119538114Y-105912500D01*
X119558643Y-105909073D01*
X119563673Y-105908341D01*
X119615626Y-105901866D01*
X119615628Y-105901864D01*
X119623141Y-105899628D01*
X119630606Y-105897066D01*
X119630606Y-105897065D01*
X119630610Y-105897065D01*
X119676636Y-105872157D01*
X119681193Y-105869812D01*
X119696102Y-105862522D01*
X119728211Y-105846826D01*
X119728213Y-105846823D01*
X119734594Y-105842268D01*
X119740820Y-105837421D01*
X119740826Y-105837419D01*
X119776293Y-105798890D01*
X119779795Y-105795240D01*
X120388218Y-105186819D01*
X120449541Y-105153334D01*
X120475899Y-105150500D01*
X122939126Y-105150500D01*
X123006165Y-105170185D01*
X123006166Y-105170185D01*
X123106947Y-105234953D01*
X123106948Y-105234953D01*
X123106949Y-105234954D01*
X123245036Y-105275499D01*
X123245038Y-105275500D01*
X123245039Y-105275500D01*
X123388962Y-105275500D01*
X123388962Y-105275499D01*
X123527053Y-105234953D01*
X123648128Y-105157143D01*
X123742377Y-105048373D01*
X123802165Y-104917457D01*
X123822647Y-104775000D01*
X123802165Y-104632543D01*
X123742377Y-104501627D01*
X123648128Y-104392857D01*
X123527053Y-104315047D01*
X123527051Y-104315046D01*
X123527049Y-104315045D01*
X123527050Y-104315045D01*
X123388963Y-104274500D01*
X123388961Y-104274500D01*
X123245039Y-104274500D01*
X123245036Y-104274500D01*
X123106949Y-104315045D01*
X123106948Y-104315046D01*
X123006166Y-104379815D01*
X122939126Y-104399500D01*
X120320803Y-104399500D01*
X120295358Y-104396861D01*
X120294539Y-104396689D01*
X120284732Y-104394633D01*
X120284731Y-104394633D01*
X120253323Y-104398548D01*
X120237985Y-104399500D01*
X120237886Y-104399500D01*
X120217400Y-104402918D01*
X120212338Y-104403656D01*
X120202699Y-104404857D01*
X120160370Y-104410134D01*
X120152857Y-104412371D01*
X120145386Y-104414936D01*
X120099371Y-104439837D01*
X120094820Y-104442180D01*
X120047792Y-104465171D01*
X120041375Y-104469753D01*
X120035174Y-104474579D01*
X119999718Y-104513094D01*
X119996172Y-104516789D01*
X119387781Y-105125181D01*
X119326458Y-105158666D01*
X119300100Y-105161500D01*
X118995874Y-105161500D01*
X118928835Y-105141815D01*
X118928834Y-105141815D01*
X118862995Y-105099503D01*
X118828053Y-105077047D01*
X118828052Y-105077046D01*
X118828051Y-105077046D01*
X118828050Y-105077045D01*
X118689963Y-105036500D01*
X118689961Y-105036500D01*
X118546039Y-105036500D01*
X118546036Y-105036500D01*
X118407949Y-105077045D01*
X118286873Y-105154856D01*
X118192623Y-105263626D01*
X118192622Y-105263628D01*
X118132834Y-105394543D01*
X118112353Y-105537000D01*
X116840000Y-105537000D01*
X116840000Y-98806000D01*
X122684353Y-98806000D01*
X122704834Y-98948456D01*
X122752233Y-99052244D01*
X122764623Y-99079373D01*
X122858872Y-99188143D01*
X122979947Y-99265953D01*
X122979950Y-99265954D01*
X122979949Y-99265954D01*
X123118036Y-99306499D01*
X123118038Y-99306500D01*
X123118039Y-99306500D01*
X123261962Y-99306500D01*
X123261962Y-99306499D01*
X123400053Y-99265953D01*
X123521128Y-99188143D01*
X123615377Y-99079373D01*
X123675165Y-98948457D01*
X123695647Y-98806000D01*
X123675165Y-98663543D01*
X123615377Y-98532627D01*
X123595785Y-98510016D01*
X123566762Y-98446460D01*
X123565500Y-98428815D01*
X123565500Y-97659183D01*
X123585185Y-97592144D01*
X123595783Y-97577985D01*
X123615377Y-97555373D01*
X123675165Y-97424457D01*
X123695647Y-97282000D01*
X123675165Y-97139543D01*
X123615377Y-97008627D01*
X123521128Y-96899857D01*
X123400053Y-96822047D01*
X123400051Y-96822046D01*
X123400049Y-96822045D01*
X123400050Y-96822045D01*
X123261963Y-96781500D01*
X123261961Y-96781500D01*
X123118039Y-96781500D01*
X123118036Y-96781500D01*
X122979949Y-96822045D01*
X122858873Y-96899856D01*
X122764623Y-97008626D01*
X122764622Y-97008628D01*
X122704834Y-97139543D01*
X122684353Y-97282000D01*
X122704834Y-97424456D01*
X122764622Y-97555371D01*
X122764623Y-97555373D01*
X122784212Y-97577980D01*
X122813238Y-97641534D01*
X122814500Y-97659183D01*
X122814500Y-98428815D01*
X122794815Y-98495854D01*
X122784215Y-98510016D01*
X122764623Y-98532627D01*
X122764622Y-98532628D01*
X122704834Y-98663543D01*
X122684353Y-98806000D01*
X116840000Y-98806000D01*
X116840000Y-95772752D01*
X125107500Y-95772752D01*
X125119131Y-95831229D01*
X125119132Y-95831230D01*
X125163447Y-95897552D01*
X125229769Y-95941867D01*
X125229770Y-95941868D01*
X125288247Y-95953499D01*
X125288250Y-95953500D01*
X125288252Y-95953500D01*
X127027750Y-95953500D01*
X127027751Y-95953499D01*
X127042568Y-95950552D01*
X127086229Y-95941868D01*
X127086229Y-95941867D01*
X127086231Y-95941867D01*
X127152552Y-95897552D01*
X127196867Y-95831231D01*
X127196867Y-95831229D01*
X127196868Y-95831229D01*
X127206922Y-95780682D01*
X127208500Y-95772748D01*
X127208500Y-95078000D01*
X127660155Y-95078000D01*
X127663191Y-95108834D01*
X127723233Y-95306766D01*
X127820728Y-95489166D01*
X127820732Y-95489173D01*
X127951944Y-95649055D01*
X128111826Y-95780267D01*
X128111833Y-95780271D01*
X128294233Y-95877766D01*
X128492165Y-95937808D01*
X128523000Y-95940844D01*
X128523000Y-95372753D01*
X128555685Y-95387680D01*
X128662237Y-95403000D01*
X128733763Y-95403000D01*
X128840315Y-95387680D01*
X128873000Y-95372753D01*
X128873000Y-95940843D01*
X128903834Y-95937808D01*
X129101766Y-95877766D01*
X129284166Y-95780271D01*
X129284173Y-95780267D01*
X129444055Y-95649055D01*
X129575267Y-95489173D01*
X129575271Y-95489166D01*
X129672766Y-95306766D01*
X129732808Y-95108834D01*
X129735845Y-95078000D01*
X129167724Y-95078000D01*
X129198000Y-94974889D01*
X129198000Y-94831111D01*
X129167724Y-94728000D01*
X129735844Y-94728000D01*
X129732808Y-94697165D01*
X129672766Y-94499233D01*
X129575271Y-94316833D01*
X129575267Y-94316826D01*
X129444055Y-94156944D01*
X129284173Y-94025732D01*
X129284166Y-94025728D01*
X129101768Y-93928234D01*
X128903837Y-93868192D01*
X128903831Y-93868191D01*
X128873000Y-93865153D01*
X128873000Y-94433246D01*
X128840315Y-94418320D01*
X128733763Y-94403000D01*
X128662237Y-94403000D01*
X128555685Y-94418320D01*
X128523000Y-94433246D01*
X128523000Y-93865153D01*
X128492168Y-93868191D01*
X128492162Y-93868192D01*
X128294231Y-93928234D01*
X128111833Y-94025728D01*
X128111826Y-94025732D01*
X127951944Y-94156944D01*
X127820732Y-94316826D01*
X127820728Y-94316833D01*
X127723233Y-94499233D01*
X127663191Y-94697165D01*
X127660155Y-94728000D01*
X128228276Y-94728000D01*
X128198000Y-94831111D01*
X128198000Y-94974889D01*
X128228276Y-95078000D01*
X127660155Y-95078000D01*
X127208500Y-95078000D01*
X127208500Y-94033252D01*
X127208500Y-94033249D01*
X127208499Y-94033247D01*
X127196868Y-93974770D01*
X127196867Y-93974769D01*
X127152552Y-93908447D01*
X127086230Y-93864132D01*
X127022446Y-93851444D01*
X126960535Y-93819058D01*
X126925961Y-93758342D01*
X126929702Y-93688573D01*
X126958955Y-93642148D01*
X131087284Y-89513818D01*
X131148607Y-89480334D01*
X131174965Y-89477500D01*
X141601273Y-89477500D01*
X141640004Y-89485926D01*
X141640437Y-89484455D01*
X141740445Y-89513819D01*
X141787032Y-89527498D01*
X141787036Y-89527499D01*
X141787038Y-89527500D01*
X141787039Y-89527500D01*
X141930962Y-89527500D01*
X141930962Y-89527499D01*
X142069053Y-89486953D01*
X142190128Y-89409143D01*
X142284377Y-89300373D01*
X142344165Y-89169457D01*
X142364647Y-89027000D01*
X142344165Y-88884543D01*
X142284377Y-88753627D01*
X142190128Y-88644857D01*
X142069053Y-88567047D01*
X142069051Y-88567046D01*
X142069049Y-88567045D01*
X142069050Y-88567045D01*
X141930963Y-88526500D01*
X141930961Y-88526500D01*
X141787039Y-88526500D01*
X141787036Y-88526500D01*
X141640437Y-88569545D01*
X141640004Y-88568073D01*
X141601273Y-88576500D01*
X130969262Y-88576500D01*
X130955379Y-88575720D01*
X130951371Y-88575268D01*
X130919965Y-88571729D01*
X130863782Y-88582358D01*
X130859218Y-88583133D01*
X130802715Y-88591651D01*
X130794556Y-88594167D01*
X130786529Y-88596976D01*
X130735964Y-88623700D01*
X130731829Y-88625787D01*
X130680358Y-88650575D01*
X130673308Y-88655380D01*
X130666459Y-88660435D01*
X130626059Y-88700836D01*
X130622722Y-88704051D01*
X130580804Y-88742946D01*
X130575013Y-88750208D01*
X130574362Y-88749688D01*
X130564967Y-88761928D01*
X125862263Y-93464632D01*
X125851898Y-93473895D01*
X125824033Y-93496117D01*
X125824030Y-93496121D01*
X125791823Y-93543357D01*
X125789144Y-93547132D01*
X125755206Y-93593118D01*
X125751216Y-93600667D01*
X125747528Y-93608325D01*
X125730673Y-93662967D01*
X125729225Y-93667368D01*
X125710353Y-93721304D01*
X125708769Y-93729671D01*
X125706163Y-93746973D01*
X125676711Y-93810332D01*
X125617680Y-93847710D01*
X125583547Y-93852500D01*
X125288247Y-93852500D01*
X125229770Y-93864131D01*
X125229769Y-93864132D01*
X125163447Y-93908447D01*
X125119132Y-93974769D01*
X125119131Y-93974770D01*
X125107500Y-94033247D01*
X125107500Y-95772752D01*
X116840000Y-95772752D01*
X116840000Y-82286092D01*
X116840597Y-82273938D01*
X116858018Y-82097056D01*
X116862757Y-82073232D01*
X116912577Y-81908994D01*
X116921875Y-81886549D01*
X117002775Y-81735195D01*
X117016272Y-81714995D01*
X117125149Y-81582328D01*
X117142328Y-81565149D01*
X117274995Y-81456272D01*
X117295195Y-81442775D01*
X117446549Y-81361875D01*
X117468994Y-81352577D01*
X117633232Y-81302757D01*
X117657056Y-81298018D01*
X117833939Y-81280597D01*
X117846093Y-81280000D01*
X153933907Y-81280000D01*
X153946061Y-81280597D01*
G37*
%TD.AperFunction*%
%TD*%
%TA.AperFunction,Conductor*%
%TO.N,GND1*%
G36*
X81293871Y-80670277D02*
G01*
X95882875Y-80718585D01*
X111011242Y-80768679D01*
X111023334Y-80769312D01*
X111199810Y-80787246D01*
X111223586Y-80792048D01*
X111300805Y-80815699D01*
X111387323Y-80842198D01*
X111409707Y-80851534D01*
X111559972Y-80932293D01*
X111560554Y-80932606D01*
X111580695Y-80946124D01*
X111712871Y-81055010D01*
X111729995Y-81072191D01*
X111838440Y-81204723D01*
X111851892Y-81224909D01*
X111932462Y-81376022D01*
X111941726Y-81398440D01*
X111991336Y-81562347D01*
X111996058Y-81586140D01*
X112013405Y-81762640D01*
X112014000Y-81774769D01*
X112014000Y-95803700D01*
X111994315Y-95870739D01*
X111941511Y-95916494D01*
X111890000Y-95927700D01*
X107968942Y-95927700D01*
X107901903Y-95908015D01*
X107881261Y-95891381D01*
X105986724Y-93996844D01*
X105953239Y-93935521D01*
X105958223Y-93865829D01*
X106000095Y-93809896D01*
X106065559Y-93785479D01*
X106121856Y-93794601D01*
X106142238Y-93803044D01*
X106197900Y-93810372D01*
X106298999Y-93823682D01*
X106299000Y-93823682D01*
X106299001Y-93823682D01*
X106351254Y-93816802D01*
X106455762Y-93803044D01*
X106601841Y-93742536D01*
X106727282Y-93646282D01*
X106823536Y-93520841D01*
X106884044Y-93374762D01*
X106904682Y-93218000D01*
X106884044Y-93061238D01*
X106823536Y-92915159D01*
X106823535Y-92915158D01*
X106823535Y-92915157D01*
X106775124Y-92852066D01*
X106749930Y-92786896D01*
X106749500Y-92776580D01*
X106749500Y-89849419D01*
X106769185Y-89782380D01*
X106775124Y-89773933D01*
X106791092Y-89753121D01*
X106823536Y-89710841D01*
X106884044Y-89564762D01*
X106904682Y-89408000D01*
X106884044Y-89251238D01*
X106823536Y-89105159D01*
X106727282Y-88979718D01*
X106601841Y-88883464D01*
X106455762Y-88822956D01*
X106455760Y-88822955D01*
X106299001Y-88802318D01*
X106298999Y-88802318D01*
X106142239Y-88822955D01*
X106142237Y-88822956D01*
X105996160Y-88883463D01*
X105870718Y-88979718D01*
X105774463Y-89105160D01*
X105713956Y-89251237D01*
X105713955Y-89251239D01*
X105693318Y-89407998D01*
X105693318Y-89408001D01*
X105713955Y-89564760D01*
X105713957Y-89564765D01*
X105774461Y-89710836D01*
X105774464Y-89710841D01*
X105822876Y-89773933D01*
X105848070Y-89839102D01*
X105848500Y-89849419D01*
X105848500Y-92776580D01*
X105828815Y-92843619D01*
X105822876Y-92852066D01*
X105774464Y-92915157D01*
X105713956Y-93061237D01*
X105713955Y-93061239D01*
X105693318Y-93217998D01*
X105693318Y-93218001D01*
X105713955Y-93374760D01*
X105713956Y-93374762D01*
X105722398Y-93395143D01*
X105729865Y-93464613D01*
X105698589Y-93527091D01*
X105638500Y-93562743D01*
X105568675Y-93560248D01*
X105520155Y-93530275D01*
X105114943Y-93125063D01*
X105081458Y-93063740D01*
X105079529Y-93052335D01*
X105079140Y-93049128D01*
X105018818Y-92890070D01*
X105017141Y-92887641D01*
X104969536Y-92818673D01*
X104922183Y-92750071D01*
X104794852Y-92637266D01*
X104794849Y-92637263D01*
X104644226Y-92558210D01*
X104479056Y-92517500D01*
X104308944Y-92517500D01*
X104143773Y-92558210D01*
X103993150Y-92637263D01*
X103865816Y-92750072D01*
X103769182Y-92890068D01*
X103708860Y-93049125D01*
X103708859Y-93049130D01*
X103688355Y-93218000D01*
X103708859Y-93386869D01*
X103708860Y-93386874D01*
X103769182Y-93545931D01*
X103831475Y-93636177D01*
X103865817Y-93685929D01*
X103993148Y-93798734D01*
X104143775Y-93877790D01*
X104237792Y-93900962D01*
X104295798Y-93933678D01*
X107239842Y-96877722D01*
X107250537Y-96889917D01*
X107268749Y-96913651D01*
X107280889Y-96922967D01*
X107295708Y-96934338D01*
X107295729Y-96934355D01*
X107376780Y-96996547D01*
X107388967Y-97005898D01*
X107528964Y-97063887D01*
X107641480Y-97078700D01*
X107641483Y-97078700D01*
X107645493Y-97079228D01*
X107645519Y-97079231D01*
X107679199Y-97083665D01*
X107679200Y-97083665D01*
X107679201Y-97083665D01*
X107708855Y-97079761D01*
X107725040Y-97078700D01*
X111890000Y-97078700D01*
X111957039Y-97098385D01*
X112002794Y-97151189D01*
X112014000Y-97202700D01*
X112014000Y-112782581D01*
X112013400Y-112794761D01*
X111995906Y-112971999D01*
X111991144Y-112995888D01*
X111941122Y-113160420D01*
X111931782Y-113182917D01*
X111850559Y-113334498D01*
X111837000Y-113354736D01*
X111727713Y-113487510D01*
X111710460Y-113504706D01*
X111577322Y-113613555D01*
X111557040Y-113627046D01*
X111405194Y-113707765D01*
X111382666Y-113717031D01*
X111217969Y-113766508D01*
X111194064Y-113771191D01*
X111016763Y-113788098D01*
X111004585Y-113788656D01*
X104380127Y-113766721D01*
X74662774Y-113668320D01*
X74650648Y-113667686D01*
X74474190Y-113649753D01*
X74450413Y-113644951D01*
X74286677Y-113594801D01*
X74264289Y-113585463D01*
X74113445Y-113504393D01*
X74093304Y-113490875D01*
X73961128Y-113381989D01*
X73944004Y-113364808D01*
X73919203Y-113334498D01*
X73835556Y-113232272D01*
X73822110Y-113212095D01*
X73741536Y-113060974D01*
X73732273Y-113038559D01*
X73719358Y-112995888D01*
X73682661Y-112874644D01*
X73677942Y-112850864D01*
X73660595Y-112674358D01*
X73660000Y-112662230D01*
X73660000Y-111649000D01*
X81207155Y-111649000D01*
X81210191Y-111679834D01*
X81270233Y-111877766D01*
X81367728Y-112060166D01*
X81367732Y-112060173D01*
X81498944Y-112220055D01*
X81658826Y-112351267D01*
X81658833Y-112351271D01*
X81841233Y-112448766D01*
X82039165Y-112508808D01*
X82070000Y-112511844D01*
X82070000Y-111943753D01*
X82102685Y-111958680D01*
X82209237Y-111974000D01*
X82280763Y-111974000D01*
X82387315Y-111958680D01*
X82420000Y-111943753D01*
X82420000Y-112511844D01*
X82450834Y-112508808D01*
X82648766Y-112448766D01*
X82831166Y-112351271D01*
X82831173Y-112351267D01*
X82840330Y-112343752D01*
X83734500Y-112343752D01*
X83746131Y-112402229D01*
X83746132Y-112402230D01*
X83790447Y-112468552D01*
X83856769Y-112512867D01*
X83856770Y-112512868D01*
X83915247Y-112524499D01*
X83915250Y-112524500D01*
X83915252Y-112524500D01*
X85654750Y-112524500D01*
X85654751Y-112524499D01*
X85669568Y-112521552D01*
X85713229Y-112512868D01*
X85713229Y-112512867D01*
X85713231Y-112512867D01*
X85779552Y-112468552D01*
X85823867Y-112402231D01*
X85823867Y-112402229D01*
X85823868Y-112402229D01*
X85832552Y-112358568D01*
X85835500Y-112343748D01*
X85835500Y-112342752D01*
X89620500Y-112342752D01*
X89632131Y-112401229D01*
X89632132Y-112401230D01*
X89676447Y-112467552D01*
X89742769Y-112511867D01*
X89742770Y-112511868D01*
X89801247Y-112523499D01*
X89801250Y-112523500D01*
X89801252Y-112523500D01*
X91540750Y-112523500D01*
X91540751Y-112523499D01*
X91555568Y-112520552D01*
X91599229Y-112511868D01*
X91599229Y-112511867D01*
X91599231Y-112511867D01*
X91665552Y-112467552D01*
X91709867Y-112401231D01*
X91709867Y-112401229D01*
X91709868Y-112401229D01*
X91719922Y-112350682D01*
X91721500Y-112342748D01*
X91721500Y-111648000D01*
X92173155Y-111648000D01*
X92176191Y-111678834D01*
X92236233Y-111876766D01*
X92333728Y-112059166D01*
X92333732Y-112059173D01*
X92464944Y-112219055D01*
X92624826Y-112350267D01*
X92624833Y-112350271D01*
X92807233Y-112447766D01*
X93005165Y-112507808D01*
X93036000Y-112510844D01*
X93036000Y-111942753D01*
X93068685Y-111957680D01*
X93175237Y-111973000D01*
X93246763Y-111973000D01*
X93353315Y-111957680D01*
X93386000Y-111942753D01*
X93386000Y-112510843D01*
X93416834Y-112507808D01*
X93614766Y-112447766D01*
X93797166Y-112350271D01*
X93797173Y-112350267D01*
X93957055Y-112219055D01*
X94088267Y-112059173D01*
X94088271Y-112059166D01*
X94185766Y-111876766D01*
X94245808Y-111678834D01*
X94248845Y-111648000D01*
X93680724Y-111648000D01*
X93711000Y-111544889D01*
X93711000Y-111473000D01*
X94695417Y-111473000D01*
X94715699Y-111678932D01*
X94715700Y-111678934D01*
X94775768Y-111876954D01*
X94873315Y-112059450D01*
X94907969Y-112101677D01*
X95004589Y-112219410D01*
X95101209Y-112298702D01*
X95164550Y-112350685D01*
X95347046Y-112448232D01*
X95545066Y-112508300D01*
X95545065Y-112508300D01*
X95563529Y-112510118D01*
X95751000Y-112528583D01*
X95956934Y-112508300D01*
X96154954Y-112448232D01*
X96337450Y-112350685D01*
X96497410Y-112219410D01*
X96628685Y-112059450D01*
X96726232Y-111876954D01*
X96786300Y-111678934D01*
X96806583Y-111473000D01*
X96786300Y-111267066D01*
X96726232Y-111069046D01*
X96628685Y-110886550D01*
X96576702Y-110823209D01*
X96497410Y-110726589D01*
X96348336Y-110604249D01*
X96337450Y-110595315D01*
X96154954Y-110497768D01*
X95956934Y-110437700D01*
X95956932Y-110437699D01*
X95956934Y-110437699D01*
X95751000Y-110417417D01*
X95545067Y-110437699D01*
X95347043Y-110497769D01*
X95259114Y-110544769D01*
X95164550Y-110595315D01*
X95164548Y-110595316D01*
X95164547Y-110595317D01*
X95004589Y-110726589D01*
X94873317Y-110886547D01*
X94873315Y-110886550D01*
X94834643Y-110958898D01*
X94775769Y-111069043D01*
X94715699Y-111267067D01*
X94695417Y-111473000D01*
X93711000Y-111473000D01*
X93711000Y-111401111D01*
X93680724Y-111298000D01*
X94248844Y-111298000D01*
X94245808Y-111267165D01*
X94185766Y-111069233D01*
X94088271Y-110886833D01*
X94088267Y-110886826D01*
X93957055Y-110726944D01*
X93797173Y-110595732D01*
X93797166Y-110595728D01*
X93614768Y-110498234D01*
X93416837Y-110438192D01*
X93416831Y-110438191D01*
X93386000Y-110435153D01*
X93386000Y-111003246D01*
X93353315Y-110988320D01*
X93246763Y-110973000D01*
X93175237Y-110973000D01*
X93068685Y-110988320D01*
X93036000Y-111003246D01*
X93036000Y-110435153D01*
X93005168Y-110438191D01*
X93005162Y-110438192D01*
X92807231Y-110498234D01*
X92624833Y-110595728D01*
X92624826Y-110595732D01*
X92464944Y-110726944D01*
X92333732Y-110886826D01*
X92333728Y-110886833D01*
X92236233Y-111069233D01*
X92176191Y-111267165D01*
X92173155Y-111298000D01*
X92741276Y-111298000D01*
X92711000Y-111401111D01*
X92711000Y-111544889D01*
X92741276Y-111648000D01*
X92173155Y-111648000D01*
X91721500Y-111648000D01*
X91721500Y-110603252D01*
X91721500Y-110603249D01*
X91721499Y-110603247D01*
X91709868Y-110544770D01*
X91709867Y-110544769D01*
X91665552Y-110478447D01*
X91599230Y-110434132D01*
X91599229Y-110434131D01*
X91540752Y-110422500D01*
X91540748Y-110422500D01*
X89801252Y-110422500D01*
X89801247Y-110422500D01*
X89742770Y-110434131D01*
X89742769Y-110434132D01*
X89676447Y-110478447D01*
X89632132Y-110544769D01*
X89632131Y-110544770D01*
X89620500Y-110603247D01*
X89620500Y-112342752D01*
X85835500Y-112342752D01*
X85835500Y-110604252D01*
X85835500Y-110604249D01*
X85835499Y-110604247D01*
X85823868Y-110545770D01*
X85823867Y-110545769D01*
X85779552Y-110479447D01*
X85713230Y-110435132D01*
X85713229Y-110435131D01*
X85654752Y-110423500D01*
X85654748Y-110423500D01*
X83915252Y-110423500D01*
X83915247Y-110423500D01*
X83856770Y-110435131D01*
X83856769Y-110435132D01*
X83790447Y-110479447D01*
X83746132Y-110545769D01*
X83746131Y-110545770D01*
X83734500Y-110604247D01*
X83734500Y-112343752D01*
X82840330Y-112343752D01*
X82991055Y-112220055D01*
X83122267Y-112060173D01*
X83122271Y-112060166D01*
X83219766Y-111877766D01*
X83279808Y-111679834D01*
X83282845Y-111649000D01*
X82714724Y-111649000D01*
X82745000Y-111545889D01*
X82745000Y-111402111D01*
X82714724Y-111299000D01*
X83282844Y-111299000D01*
X83279808Y-111268165D01*
X83219766Y-111070233D01*
X83122271Y-110887833D01*
X83122267Y-110887826D01*
X82991055Y-110727944D01*
X82831173Y-110596732D01*
X82831166Y-110596728D01*
X82648768Y-110499234D01*
X82450837Y-110439192D01*
X82450831Y-110439191D01*
X82420000Y-110436153D01*
X82420000Y-111004246D01*
X82387315Y-110989320D01*
X82280763Y-110974000D01*
X82209237Y-110974000D01*
X82102685Y-110989320D01*
X82070000Y-111004246D01*
X82070000Y-110436153D01*
X82039168Y-110439191D01*
X82039162Y-110439192D01*
X81841231Y-110499234D01*
X81658833Y-110596728D01*
X81658826Y-110596732D01*
X81498944Y-110727944D01*
X81367732Y-110887826D01*
X81367728Y-110887833D01*
X81270233Y-111070233D01*
X81210191Y-111268165D01*
X81207155Y-111299000D01*
X81775276Y-111299000D01*
X81745000Y-111402111D01*
X81745000Y-111545889D01*
X81775276Y-111649000D01*
X81207155Y-111649000D01*
X73660000Y-111649000D01*
X73660000Y-110283000D01*
X75543417Y-110283000D01*
X75563699Y-110488932D01*
X75580941Y-110545770D01*
X75623768Y-110686954D01*
X75721315Y-110869450D01*
X75755969Y-110911677D01*
X75852589Y-111029410D01*
X75902333Y-111070233D01*
X76012550Y-111160685D01*
X76195046Y-111258232D01*
X76393066Y-111318300D01*
X76393065Y-111318300D01*
X76411529Y-111320118D01*
X76599000Y-111338583D01*
X76804934Y-111318300D01*
X77002954Y-111258232D01*
X77185450Y-111160685D01*
X77345410Y-111029410D01*
X77476685Y-110869450D01*
X77574232Y-110686954D01*
X77634300Y-110488934D01*
X77654583Y-110283000D01*
X77634300Y-110077066D01*
X77574232Y-109879046D01*
X77476685Y-109696550D01*
X77424702Y-109633209D01*
X77345410Y-109536589D01*
X77185452Y-109405317D01*
X77185453Y-109405317D01*
X77185450Y-109405315D01*
X77002954Y-109307768D01*
X76804934Y-109247700D01*
X76804932Y-109247699D01*
X76804934Y-109247699D01*
X76599000Y-109227417D01*
X76393067Y-109247699D01*
X76195043Y-109307769D01*
X76084898Y-109366643D01*
X76012550Y-109405315D01*
X76012548Y-109405316D01*
X76012547Y-109405317D01*
X75852589Y-109536589D01*
X75721317Y-109696547D01*
X75623769Y-109879043D01*
X75563699Y-110077067D01*
X75543417Y-110283000D01*
X73660000Y-110283000D01*
X73660000Y-107743000D01*
X75543417Y-107743000D01*
X75563699Y-107948932D01*
X75563700Y-107948934D01*
X75623768Y-108146954D01*
X75721315Y-108329450D01*
X75738486Y-108350373D01*
X75852589Y-108489410D01*
X75949209Y-108568702D01*
X76012550Y-108620685D01*
X76195046Y-108718232D01*
X76393066Y-108778300D01*
X76393065Y-108778300D01*
X76411529Y-108780118D01*
X76599000Y-108798583D01*
X76804934Y-108778300D01*
X77002954Y-108718232D01*
X77185450Y-108620685D01*
X77345410Y-108489410D01*
X77476685Y-108329450D01*
X77574232Y-108146954D01*
X77595452Y-108077000D01*
X89029353Y-108077000D01*
X89049834Y-108219456D01*
X89109622Y-108350371D01*
X89109623Y-108350373D01*
X89203872Y-108459143D01*
X89324947Y-108536953D01*
X89324950Y-108536954D01*
X89324949Y-108536954D01*
X89463036Y-108577499D01*
X89463038Y-108577500D01*
X89463039Y-108577500D01*
X89606962Y-108577500D01*
X89606962Y-108577499D01*
X89745053Y-108536953D01*
X89845834Y-108472184D01*
X89912874Y-108452500D01*
X91570126Y-108452500D01*
X91637165Y-108472185D01*
X91637166Y-108472185D01*
X91737947Y-108536953D01*
X91737948Y-108536953D01*
X91737949Y-108536954D01*
X91876036Y-108577499D01*
X91876038Y-108577500D01*
X91876039Y-108577500D01*
X92019962Y-108577500D01*
X92019962Y-108577499D01*
X92158053Y-108536953D01*
X92279128Y-108459143D01*
X92373377Y-108350373D01*
X92433165Y-108219457D01*
X92453647Y-108077000D01*
X92433165Y-107934543D01*
X92373377Y-107803627D01*
X92279128Y-107694857D01*
X92158053Y-107617047D01*
X92158051Y-107617046D01*
X92158049Y-107617045D01*
X92158050Y-107617045D01*
X92019963Y-107576500D01*
X92019961Y-107576500D01*
X91876039Y-107576500D01*
X91876036Y-107576500D01*
X91737949Y-107617045D01*
X91737948Y-107617046D01*
X91637166Y-107681815D01*
X91570126Y-107701500D01*
X89912874Y-107701500D01*
X89845835Y-107681815D01*
X89845834Y-107681815D01*
X89745053Y-107617047D01*
X89745052Y-107617046D01*
X89745051Y-107617046D01*
X89745050Y-107617045D01*
X89606963Y-107576500D01*
X89606961Y-107576500D01*
X89463039Y-107576500D01*
X89463036Y-107576500D01*
X89324949Y-107617045D01*
X89203873Y-107694856D01*
X89109623Y-107803626D01*
X89109622Y-107803628D01*
X89049834Y-107934543D01*
X89029353Y-108077000D01*
X77595452Y-108077000D01*
X77634300Y-107948934D01*
X77654583Y-107743000D01*
X77634300Y-107537066D01*
X77574232Y-107339046D01*
X77493496Y-107188000D01*
X85396867Y-107188000D01*
X85415302Y-107316225D01*
X85469117Y-107434061D01*
X85469118Y-107434063D01*
X85553951Y-107531967D01*
X85662931Y-107602004D01*
X85787225Y-107638499D01*
X85787227Y-107638500D01*
X85787228Y-107638500D01*
X85916773Y-107638500D01*
X85916773Y-107638499D01*
X86041069Y-107602004D01*
X86150049Y-107531967D01*
X86234882Y-107434063D01*
X86288697Y-107316226D01*
X86288697Y-107316223D01*
X86291195Y-107307718D01*
X86292772Y-107308181D01*
X86317527Y-107253956D01*
X86323556Y-107247479D01*
X86461889Y-107109146D01*
X86481746Y-107093022D01*
X86490836Y-107087084D01*
X86510271Y-107062112D01*
X86520456Y-107050581D01*
X86520456Y-107050580D01*
X86520519Y-107050518D01*
X86532630Y-107033553D01*
X86535627Y-107029534D01*
X86567809Y-106988189D01*
X86567811Y-106988181D01*
X86571547Y-106981278D01*
X86575006Y-106974203D01*
X86575010Y-106974199D01*
X86589942Y-106924041D01*
X86591486Y-106919218D01*
X86608500Y-106869660D01*
X86608500Y-106869658D01*
X86608501Y-106869656D01*
X86609791Y-106861924D01*
X86610768Y-106854086D01*
X86608606Y-106801807D01*
X86608500Y-106796683D01*
X86608500Y-104394000D01*
X98554353Y-104394000D01*
X98574834Y-104536456D01*
X98634622Y-104667371D01*
X98634623Y-104667373D01*
X98728872Y-104776143D01*
X98849947Y-104853953D01*
X98849950Y-104853954D01*
X98849949Y-104853954D01*
X98988036Y-104894499D01*
X98988038Y-104894500D01*
X98988039Y-104894500D01*
X99131962Y-104894500D01*
X99131962Y-104894499D01*
X99270053Y-104853953D01*
X99370834Y-104789184D01*
X99437874Y-104769500D01*
X109096126Y-104769500D01*
X109163165Y-104789185D01*
X109163166Y-104789185D01*
X109263947Y-104853953D01*
X109263948Y-104853953D01*
X109263949Y-104853954D01*
X109402036Y-104894499D01*
X109402038Y-104894500D01*
X109402039Y-104894500D01*
X109545962Y-104894500D01*
X109545962Y-104894499D01*
X109684053Y-104853953D01*
X109805128Y-104776143D01*
X109899377Y-104667373D01*
X109959165Y-104536457D01*
X109979647Y-104394000D01*
X109959165Y-104251543D01*
X109899377Y-104120627D01*
X109805128Y-104011857D01*
X109684053Y-103934047D01*
X109684051Y-103934046D01*
X109684049Y-103934045D01*
X109684050Y-103934045D01*
X109545963Y-103893500D01*
X109545961Y-103893500D01*
X109402039Y-103893500D01*
X109402036Y-103893500D01*
X109263949Y-103934045D01*
X109263948Y-103934046D01*
X109163166Y-103998815D01*
X109096126Y-104018500D01*
X99437874Y-104018500D01*
X99370835Y-103998815D01*
X99370834Y-103998815D01*
X99270051Y-103934046D01*
X99270050Y-103934045D01*
X99131963Y-103893500D01*
X99131961Y-103893500D01*
X98988039Y-103893500D01*
X98988036Y-103893500D01*
X98849949Y-103934045D01*
X98728873Y-104011856D01*
X98634623Y-104120626D01*
X98634622Y-104120628D01*
X98574834Y-104251543D01*
X98554353Y-104394000D01*
X86608500Y-104394000D01*
X86608500Y-103532752D01*
X101788500Y-103532752D01*
X101800131Y-103591229D01*
X101800132Y-103591230D01*
X101844447Y-103657552D01*
X101910769Y-103701867D01*
X101910770Y-103701868D01*
X101969247Y-103713499D01*
X101969250Y-103713500D01*
X101969252Y-103713500D01*
X103708750Y-103713500D01*
X103708751Y-103713499D01*
X103723568Y-103710552D01*
X103767229Y-103701868D01*
X103767229Y-103701867D01*
X103767231Y-103701867D01*
X103833552Y-103657552D01*
X103877867Y-103591231D01*
X103877867Y-103591229D01*
X103877868Y-103591229D01*
X103889499Y-103532752D01*
X103889500Y-103532750D01*
X103889500Y-101793249D01*
X103889499Y-101793247D01*
X103877868Y-101734770D01*
X103877867Y-101734769D01*
X103833552Y-101668447D01*
X103767230Y-101624132D01*
X103767229Y-101624131D01*
X103708752Y-101612500D01*
X103708748Y-101612500D01*
X101969252Y-101612500D01*
X101969247Y-101612500D01*
X101910770Y-101624131D01*
X101910769Y-101624132D01*
X101844447Y-101668447D01*
X101800132Y-101734769D01*
X101800131Y-101734770D01*
X101788500Y-101793247D01*
X101788500Y-103532752D01*
X86608500Y-103532752D01*
X86608500Y-101254202D01*
X86619706Y-101202690D01*
X86631431Y-101177016D01*
X86669697Y-101093226D01*
X86688133Y-100965000D01*
X86669697Y-100836774D01*
X86615882Y-100718937D01*
X86531049Y-100621033D01*
X86422069Y-100550996D01*
X86422065Y-100550994D01*
X86422064Y-100550994D01*
X86297774Y-100514500D01*
X86297772Y-100514500D01*
X86168228Y-100514500D01*
X86168226Y-100514500D01*
X86043935Y-100550994D01*
X86043932Y-100550995D01*
X86043931Y-100550996D01*
X85992677Y-100583934D01*
X85934950Y-100621033D01*
X85850118Y-100718937D01*
X85850117Y-100718938D01*
X85796302Y-100836774D01*
X85777867Y-100965000D01*
X85796302Y-101093225D01*
X85846294Y-101202690D01*
X85857500Y-101254202D01*
X85857500Y-106600098D01*
X85837815Y-106667137D01*
X85821180Y-106687781D01*
X85787285Y-106721675D01*
X85734540Y-106752969D01*
X85662933Y-106773994D01*
X85553950Y-106844033D01*
X85469118Y-106941937D01*
X85469117Y-106941938D01*
X85415302Y-107059774D01*
X85396867Y-107188000D01*
X77493496Y-107188000D01*
X77476685Y-107156550D01*
X77399184Y-107062114D01*
X77345410Y-106996589D01*
X77190744Y-106869660D01*
X77185450Y-106865315D01*
X77002954Y-106767768D01*
X76804934Y-106707700D01*
X76804932Y-106707699D01*
X76804934Y-106707699D01*
X76599000Y-106687417D01*
X76393067Y-106707699D01*
X76195043Y-106767769D01*
X76140950Y-106796683D01*
X76012550Y-106865315D01*
X76012548Y-106865316D01*
X76012547Y-106865317D01*
X75852589Y-106996589D01*
X75721317Y-107156547D01*
X75721315Y-107156550D01*
X75682643Y-107228898D01*
X75623769Y-107339043D01*
X75563699Y-107537067D01*
X75543417Y-107743000D01*
X73660000Y-107743000D01*
X73660000Y-105203000D01*
X75543417Y-105203000D01*
X75563699Y-105408932D01*
X75563700Y-105408934D01*
X75623768Y-105606954D01*
X75721315Y-105789450D01*
X75721317Y-105789452D01*
X75852589Y-105949410D01*
X75949209Y-106028702D01*
X76012550Y-106080685D01*
X76195046Y-106178232D01*
X76393066Y-106238300D01*
X76393065Y-106238300D01*
X76411529Y-106240118D01*
X76599000Y-106258583D01*
X76804934Y-106238300D01*
X77002954Y-106178232D01*
X77185450Y-106080685D01*
X77345410Y-105949410D01*
X77476685Y-105789450D01*
X77574232Y-105606954D01*
X77634300Y-105408934D01*
X77654583Y-105203000D01*
X77634300Y-104997066D01*
X77574232Y-104799046D01*
X77476685Y-104616550D01*
X77410954Y-104536456D01*
X77345410Y-104456589D01*
X77185452Y-104325317D01*
X77185453Y-104325317D01*
X77185450Y-104325315D01*
X77002954Y-104227768D01*
X76804934Y-104167700D01*
X76804932Y-104167699D01*
X76804934Y-104167699D01*
X76599000Y-104147417D01*
X76393067Y-104167699D01*
X76195043Y-104227769D01*
X76150566Y-104251543D01*
X76012550Y-104325315D01*
X76012548Y-104325316D01*
X76012547Y-104325317D01*
X75852589Y-104456589D01*
X75721317Y-104616547D01*
X75623769Y-104799043D01*
X75563699Y-104997067D01*
X75543417Y-105203000D01*
X73660000Y-105203000D01*
X73660000Y-102663000D01*
X75543417Y-102663000D01*
X75563699Y-102868932D01*
X75563700Y-102868934D01*
X75623768Y-103066954D01*
X75721315Y-103249450D01*
X75721317Y-103249452D01*
X75852589Y-103409410D01*
X75949209Y-103488702D01*
X76012550Y-103540685D01*
X76195046Y-103638232D01*
X76393066Y-103698300D01*
X76393065Y-103698300D01*
X76411529Y-103700118D01*
X76599000Y-103718583D01*
X76804934Y-103698300D01*
X77002954Y-103638232D01*
X77185450Y-103540685D01*
X77345410Y-103409410D01*
X77476685Y-103249450D01*
X77574232Y-103066954D01*
X77634300Y-102868934D01*
X77654583Y-102663000D01*
X77634300Y-102457066D01*
X77574232Y-102259046D01*
X77476685Y-102076550D01*
X77358839Y-101932953D01*
X77345410Y-101916589D01*
X77195121Y-101793252D01*
X77185450Y-101785315D01*
X77002954Y-101687768D01*
X76804934Y-101627700D01*
X76804932Y-101627699D01*
X76804934Y-101627699D01*
X76599000Y-101607417D01*
X76393067Y-101627699D01*
X76195043Y-101687769D01*
X76150570Y-101711541D01*
X76012550Y-101785315D01*
X76012548Y-101785316D01*
X76012547Y-101785317D01*
X75852589Y-101916589D01*
X75721317Y-102076547D01*
X75623769Y-102259043D01*
X75563699Y-102457067D01*
X75543417Y-102663000D01*
X73660000Y-102663000D01*
X73660000Y-100298000D01*
X75561155Y-100298000D01*
X75564191Y-100328834D01*
X75624233Y-100526766D01*
X75721728Y-100709166D01*
X75721732Y-100709173D01*
X75852944Y-100869055D01*
X76012826Y-101000267D01*
X76012833Y-101000271D01*
X76195233Y-101097766D01*
X76393165Y-101157808D01*
X76424000Y-101160844D01*
X76424000Y-100592753D01*
X76456685Y-100607680D01*
X76563237Y-100623000D01*
X76634763Y-100623000D01*
X76741315Y-100607680D01*
X76774000Y-100592753D01*
X76774000Y-101160843D01*
X76804834Y-101157808D01*
X77002766Y-101097766D01*
X77185166Y-101000271D01*
X77185173Y-101000267D01*
X77345055Y-100869055D01*
X77476267Y-100709173D01*
X77476271Y-100709166D01*
X77573766Y-100526766D01*
X77633808Y-100328834D01*
X77636845Y-100298000D01*
X77068724Y-100298000D01*
X77099000Y-100194889D01*
X77099000Y-100051111D01*
X77068724Y-99948000D01*
X77636844Y-99948000D01*
X77633808Y-99917165D01*
X77573766Y-99719233D01*
X77476271Y-99536833D01*
X77476267Y-99536826D01*
X77345055Y-99376944D01*
X77185173Y-99245732D01*
X77185166Y-99245728D01*
X77002768Y-99148234D01*
X76804837Y-99088192D01*
X76804831Y-99088191D01*
X76774000Y-99085153D01*
X76774000Y-99653246D01*
X76741315Y-99638320D01*
X76634763Y-99623000D01*
X76563237Y-99623000D01*
X76456685Y-99638320D01*
X76424000Y-99653246D01*
X76424000Y-99085153D01*
X76393168Y-99088191D01*
X76393162Y-99088192D01*
X76195231Y-99148234D01*
X76012833Y-99245728D01*
X76012826Y-99245732D01*
X75852944Y-99376944D01*
X75721732Y-99536826D01*
X75721728Y-99536833D01*
X75624233Y-99719233D01*
X75564191Y-99917165D01*
X75561155Y-99948000D01*
X76129276Y-99948000D01*
X76099000Y-100051111D01*
X76099000Y-100194889D01*
X76129276Y-100298000D01*
X75561155Y-100298000D01*
X73660000Y-100298000D01*
X73660000Y-98452752D01*
X75548500Y-98452752D01*
X75560131Y-98511229D01*
X75560132Y-98511230D01*
X75604447Y-98577552D01*
X75670769Y-98621867D01*
X75670770Y-98621868D01*
X75729247Y-98633499D01*
X75729250Y-98633500D01*
X75729252Y-98633500D01*
X77468750Y-98633500D01*
X77468751Y-98633499D01*
X77483568Y-98630552D01*
X77527229Y-98621868D01*
X77527229Y-98621867D01*
X77527231Y-98621867D01*
X77593552Y-98577552D01*
X77637867Y-98511231D01*
X77637867Y-98511229D01*
X77637868Y-98511229D01*
X77647922Y-98460682D01*
X77649500Y-98452748D01*
X77649500Y-96713252D01*
X77649500Y-96713249D01*
X77649499Y-96713247D01*
X77637868Y-96654770D01*
X77637867Y-96654769D01*
X77593552Y-96588447D01*
X77527230Y-96544132D01*
X77527229Y-96544131D01*
X77468752Y-96532500D01*
X77468748Y-96532500D01*
X77298500Y-96532500D01*
X77231461Y-96512815D01*
X77185706Y-96460011D01*
X77174500Y-96408500D01*
X77174500Y-93616741D01*
X77194185Y-93549702D01*
X77210814Y-93529065D01*
X79854202Y-90885676D01*
X79912204Y-90852963D01*
X80006225Y-90829790D01*
X80156852Y-90750734D01*
X80284183Y-90637929D01*
X80380818Y-90497930D01*
X80441140Y-90338872D01*
X80461645Y-90170000D01*
X80441140Y-90001128D01*
X80380818Y-89842070D01*
X80378769Y-89839102D01*
X80333786Y-89773933D01*
X80284183Y-89702071D01*
X80156852Y-89589266D01*
X80156849Y-89589263D01*
X80006226Y-89510210D01*
X79841056Y-89469500D01*
X79670944Y-89469500D01*
X79505773Y-89510210D01*
X79355150Y-89589263D01*
X79227816Y-89702072D01*
X79131182Y-89842068D01*
X79131182Y-89842069D01*
X79070858Y-90001131D01*
X79070857Y-90001134D01*
X79070468Y-90004341D01*
X79069530Y-90006518D01*
X79069064Y-90008411D01*
X79068749Y-90008333D01*
X79042840Y-90068516D01*
X79035055Y-90077063D01*
X76224477Y-92887641D01*
X76212288Y-92898332D01*
X76188550Y-92916548D01*
X76164133Y-92948367D01*
X76164132Y-92948366D01*
X76164118Y-92948386D01*
X76096301Y-93036766D01*
X76038313Y-93176763D01*
X76038313Y-93176764D01*
X76022970Y-93293305D01*
X76022968Y-93293315D01*
X76022969Y-93293316D01*
X76018535Y-93327000D01*
X76022439Y-93356653D01*
X76023500Y-93372839D01*
X76023500Y-96408500D01*
X76003815Y-96475539D01*
X75951011Y-96521294D01*
X75899500Y-96532500D01*
X75729247Y-96532500D01*
X75670770Y-96544131D01*
X75670769Y-96544132D01*
X75604447Y-96588447D01*
X75560132Y-96654769D01*
X75560131Y-96654770D01*
X75548500Y-96713247D01*
X75548500Y-98452752D01*
X73660000Y-98452752D01*
X73660000Y-88731752D01*
X75626500Y-88731752D01*
X75638131Y-88790229D01*
X75638132Y-88790230D01*
X75682447Y-88856552D01*
X75748769Y-88900867D01*
X75748770Y-88900868D01*
X75807247Y-88912499D01*
X75807250Y-88912500D01*
X75807252Y-88912500D01*
X77546750Y-88912500D01*
X77546751Y-88912499D01*
X77561568Y-88909552D01*
X77605229Y-88900868D01*
X77605229Y-88900867D01*
X77605231Y-88900867D01*
X77671552Y-88856552D01*
X77715867Y-88790231D01*
X77715867Y-88790229D01*
X77715868Y-88790229D01*
X77727499Y-88731752D01*
X77727500Y-88731750D01*
X77727500Y-86992249D01*
X77727499Y-86992247D01*
X77715868Y-86933770D01*
X77715867Y-86933769D01*
X77671552Y-86867447D01*
X77605230Y-86823132D01*
X77605229Y-86823131D01*
X77546752Y-86811500D01*
X77546748Y-86811500D01*
X75807252Y-86811500D01*
X75807247Y-86811500D01*
X75748770Y-86823131D01*
X75748769Y-86823132D01*
X75682447Y-86867447D01*
X75638132Y-86933769D01*
X75638131Y-86933770D01*
X75626500Y-86992247D01*
X75626500Y-88731752D01*
X73660000Y-88731752D01*
X73660000Y-86487000D01*
X82552353Y-86487000D01*
X82572834Y-86629456D01*
X82623990Y-86741469D01*
X82632623Y-86760373D01*
X82726872Y-86869143D01*
X82804539Y-86919056D01*
X82850294Y-86971860D01*
X82861500Y-87023372D01*
X82861500Y-96782663D01*
X82850294Y-96834174D01*
X82826835Y-96885541D01*
X82826834Y-96885542D01*
X82806353Y-97028000D01*
X82826834Y-97170453D01*
X82826834Y-97170454D01*
X82826834Y-97170455D01*
X82826835Y-97170457D01*
X82850294Y-97221825D01*
X82861500Y-97273335D01*
X82861500Y-98433663D01*
X82850294Y-98485174D01*
X82826835Y-98536541D01*
X82826834Y-98536542D01*
X82806353Y-98679000D01*
X82826834Y-98821456D01*
X82886622Y-98952371D01*
X82886623Y-98952373D01*
X82980872Y-99061143D01*
X83101947Y-99138953D01*
X83101950Y-99138954D01*
X83101949Y-99138954D01*
X83240036Y-99179499D01*
X83240038Y-99179500D01*
X83240039Y-99179500D01*
X83383962Y-99179500D01*
X83383962Y-99179499D01*
X83522053Y-99138953D01*
X83643128Y-99061143D01*
X83737377Y-98952373D01*
X83797165Y-98821457D01*
X83817647Y-98679000D01*
X83797165Y-98536543D01*
X83794484Y-98530673D01*
X83773706Y-98485174D01*
X83762500Y-98433663D01*
X83762500Y-97409000D01*
X88013353Y-97409000D01*
X88033834Y-97551456D01*
X88091549Y-97677832D01*
X88093623Y-97682373D01*
X88187872Y-97791143D01*
X88308947Y-97868953D01*
X88325158Y-97873712D01*
X88377905Y-97905009D01*
X88812630Y-98339733D01*
X88821895Y-98350100D01*
X88844121Y-98377970D01*
X88844123Y-98377972D01*
X88891363Y-98410180D01*
X88895145Y-98412863D01*
X88941118Y-98446793D01*
X88948654Y-98450776D01*
X88956319Y-98454467D01*
X88956327Y-98454472D01*
X88976470Y-98460685D01*
X89010980Y-98471330D01*
X89015371Y-98472774D01*
X89069301Y-98491646D01*
X89069305Y-98491646D01*
X89077698Y-98493234D01*
X89086095Y-98494500D01*
X89086098Y-98494500D01*
X89143245Y-98494500D01*
X89147883Y-98494587D01*
X89205009Y-98496725D01*
X89205009Y-98496724D01*
X89205010Y-98496725D01*
X89205010Y-98496724D01*
X89214242Y-98495685D01*
X89214335Y-98496513D01*
X89229639Y-98494500D01*
X93869034Y-98494500D01*
X93936073Y-98514185D01*
X93956715Y-98530819D01*
X94636181Y-99210284D01*
X94669666Y-99271607D01*
X94672500Y-99297965D01*
X94672500Y-101608663D01*
X94661294Y-101660174D01*
X94637835Y-101711541D01*
X94637834Y-101711542D01*
X94617353Y-101854000D01*
X94637834Y-101996456D01*
X94697622Y-102127371D01*
X94697623Y-102127373D01*
X94791872Y-102236143D01*
X94912947Y-102313953D01*
X94912950Y-102313954D01*
X94912949Y-102313954D01*
X95051036Y-102354499D01*
X95051038Y-102354500D01*
X95051039Y-102354500D01*
X95194962Y-102354500D01*
X95194962Y-102354499D01*
X95333053Y-102313953D01*
X95454128Y-102236143D01*
X95548377Y-102127373D01*
X95608165Y-101996457D01*
X95628647Y-101854000D01*
X95608165Y-101711543D01*
X95597307Y-101687768D01*
X95584706Y-101660174D01*
X95573500Y-101608663D01*
X95573500Y-99092261D01*
X95574280Y-99078376D01*
X95578270Y-99042966D01*
X95578270Y-99042965D01*
X95567633Y-98986753D01*
X95566864Y-98982219D01*
X95562366Y-98952373D01*
X95558348Y-98925713D01*
X95558346Y-98925709D01*
X95555833Y-98917561D01*
X95553021Y-98909523D01*
X95526312Y-98858989D01*
X95524221Y-98854847D01*
X95499425Y-98803358D01*
X95494624Y-98796316D01*
X95489567Y-98789465D01*
X95489566Y-98789462D01*
X95449152Y-98749048D01*
X95445935Y-98745708D01*
X95407057Y-98703807D01*
X95399790Y-98698012D01*
X95400310Y-98697359D01*
X95388070Y-98687966D01*
X94448368Y-97748265D01*
X94439102Y-97737897D01*
X94416877Y-97710028D01*
X94376311Y-97682371D01*
X94369633Y-97677818D01*
X94365869Y-97675147D01*
X94349411Y-97663000D01*
X97284353Y-97663000D01*
X97304834Y-97805456D01*
X97350299Y-97905009D01*
X97364623Y-97936373D01*
X97458872Y-98045143D01*
X97579947Y-98122953D01*
X97579950Y-98122954D01*
X97579949Y-98122954D01*
X97718037Y-98163500D01*
X97725564Y-98164582D01*
X97789120Y-98193604D01*
X97795602Y-98199639D01*
X98394181Y-98798218D01*
X98427666Y-98859541D01*
X98430500Y-98885899D01*
X98430500Y-101095815D01*
X98410815Y-101162854D01*
X98400215Y-101177016D01*
X98380623Y-101199627D01*
X98380622Y-101199628D01*
X98320834Y-101330543D01*
X98300353Y-101473000D01*
X98320834Y-101615456D01*
X98375324Y-101734770D01*
X98380623Y-101746373D01*
X98474872Y-101855143D01*
X98595947Y-101932953D01*
X98595950Y-101932954D01*
X98595949Y-101932954D01*
X98734036Y-101973499D01*
X98734038Y-101973500D01*
X98734039Y-101973500D01*
X98877962Y-101973500D01*
X98877962Y-101973499D01*
X99016053Y-101932953D01*
X99137128Y-101855143D01*
X99231377Y-101746373D01*
X99291165Y-101615457D01*
X99311647Y-101473000D01*
X99291165Y-101330543D01*
X99231377Y-101199627D01*
X99211785Y-101177016D01*
X99182762Y-101113460D01*
X99181500Y-101095815D01*
X99181500Y-100298000D01*
X101801155Y-100298000D01*
X101804191Y-100328834D01*
X101864233Y-100526766D01*
X101961728Y-100709166D01*
X101961732Y-100709173D01*
X102092944Y-100869055D01*
X102252826Y-101000267D01*
X102252833Y-101000271D01*
X102435233Y-101097766D01*
X102633165Y-101157808D01*
X102664000Y-101160844D01*
X102664000Y-100592753D01*
X102696685Y-100607680D01*
X102803237Y-100623000D01*
X102874763Y-100623000D01*
X102981315Y-100607680D01*
X103014000Y-100592753D01*
X103014000Y-101160843D01*
X103044834Y-101157808D01*
X103242766Y-101097766D01*
X103425166Y-101000271D01*
X103425173Y-101000267D01*
X103585055Y-100869055D01*
X103716267Y-100709173D01*
X103716271Y-100709166D01*
X103813766Y-100526766D01*
X103873808Y-100328834D01*
X103876845Y-100298000D01*
X103308724Y-100298000D01*
X103339000Y-100194889D01*
X103339000Y-100051111D01*
X103308724Y-99948000D01*
X103876844Y-99948000D01*
X103873808Y-99917165D01*
X103813766Y-99719233D01*
X103716271Y-99536833D01*
X103716267Y-99536826D01*
X103585055Y-99376944D01*
X103425173Y-99245732D01*
X103425166Y-99245728D01*
X103242768Y-99148234D01*
X103044837Y-99088192D01*
X103044831Y-99088191D01*
X103014000Y-99085153D01*
X103014000Y-99653246D01*
X102981315Y-99638320D01*
X102874763Y-99623000D01*
X102803237Y-99623000D01*
X102696685Y-99638320D01*
X102664000Y-99653246D01*
X102664000Y-99085153D01*
X102633168Y-99088191D01*
X102633162Y-99088192D01*
X102435231Y-99148234D01*
X102252833Y-99245728D01*
X102252826Y-99245732D01*
X102092944Y-99376944D01*
X101961732Y-99536826D01*
X101961728Y-99536833D01*
X101864233Y-99719233D01*
X101804191Y-99917165D01*
X101801155Y-99948000D01*
X102369276Y-99948000D01*
X102339000Y-100051111D01*
X102339000Y-100194889D01*
X102369276Y-100298000D01*
X101801155Y-100298000D01*
X99181500Y-100298000D01*
X99181500Y-98730804D01*
X99184139Y-98705359D01*
X99185816Y-98697359D01*
X99186367Y-98694732D01*
X99182452Y-98663322D01*
X99181500Y-98647985D01*
X99181500Y-98647889D01*
X99181500Y-98647886D01*
X99178075Y-98627369D01*
X99177341Y-98622325D01*
X99176839Y-98618300D01*
X99170866Y-98570374D01*
X99170864Y-98570370D01*
X99168622Y-98562840D01*
X99166065Y-98555395D01*
X99166065Y-98555390D01*
X99141148Y-98509348D01*
X99138828Y-98504840D01*
X99115826Y-98457789D01*
X99115825Y-98457788D01*
X99115825Y-98457787D01*
X99111276Y-98451416D01*
X99106420Y-98445176D01*
X99106419Y-98445174D01*
X99067892Y-98409707D01*
X99064218Y-98406181D01*
X98320566Y-97662528D01*
X98287081Y-97601205D01*
X98285509Y-97592492D01*
X98285364Y-97591486D01*
X98284144Y-97583000D01*
X101783417Y-97583000D01*
X101803699Y-97788932D01*
X101803700Y-97788934D01*
X101863768Y-97986954D01*
X101961315Y-98169450D01*
X101961317Y-98169452D01*
X102092589Y-98329410D01*
X102151763Y-98377972D01*
X102252550Y-98460685D01*
X102435046Y-98558232D01*
X102633066Y-98618300D01*
X102633065Y-98618300D01*
X102651529Y-98620118D01*
X102839000Y-98638583D01*
X103044934Y-98618300D01*
X103242954Y-98558232D01*
X103425450Y-98460685D01*
X103585410Y-98329410D01*
X103716685Y-98169450D01*
X103814232Y-97986954D01*
X103874300Y-97788934D01*
X103894583Y-97583000D01*
X103874300Y-97377066D01*
X103814232Y-97179046D01*
X103716685Y-96996550D01*
X103629174Y-96889917D01*
X103585410Y-96836589D01*
X103435121Y-96713252D01*
X103425450Y-96705315D01*
X103242954Y-96607768D01*
X103044934Y-96547700D01*
X103044932Y-96547699D01*
X103044934Y-96547699D01*
X102839000Y-96527417D01*
X102633067Y-96547699D01*
X102435043Y-96607769D01*
X102349608Y-96653436D01*
X102252550Y-96705315D01*
X102252548Y-96705316D01*
X102252547Y-96705317D01*
X102092589Y-96836589D01*
X102000299Y-96949047D01*
X101961315Y-96996550D01*
X101925323Y-97063886D01*
X101863769Y-97179043D01*
X101803699Y-97377067D01*
X101783417Y-97583000D01*
X98284144Y-97583000D01*
X98275165Y-97520543D01*
X98215377Y-97389627D01*
X98121128Y-97280857D01*
X98000053Y-97203047D01*
X98000051Y-97203046D01*
X98000049Y-97203045D01*
X98000050Y-97203045D01*
X97861963Y-97162500D01*
X97861961Y-97162500D01*
X97718039Y-97162500D01*
X97718036Y-97162500D01*
X97579949Y-97203045D01*
X97458873Y-97280856D01*
X97364623Y-97389626D01*
X97364622Y-97389628D01*
X97304834Y-97520543D01*
X97284353Y-97663000D01*
X94349411Y-97663000D01*
X94319886Y-97641209D01*
X94312297Y-97637198D01*
X94304675Y-97633528D01*
X94250049Y-97616679D01*
X94245644Y-97615230D01*
X94191695Y-97596352D01*
X94183326Y-97594768D01*
X94174904Y-97593500D01*
X94174902Y-97593500D01*
X94117738Y-97593500D01*
X94113101Y-97593413D01*
X94111085Y-97593337D01*
X94055989Y-97591275D01*
X94046756Y-97592316D01*
X94046662Y-97591486D01*
X94031364Y-97593500D01*
X89391965Y-97593500D01*
X89324926Y-97573815D01*
X89304284Y-97557181D01*
X89012014Y-97264911D01*
X88986901Y-97228741D01*
X88944379Y-97135630D01*
X88944376Y-97135626D01*
X88850128Y-97026857D01*
X88729053Y-96949047D01*
X88729051Y-96949046D01*
X88729049Y-96949045D01*
X88729050Y-96949045D01*
X88590963Y-96908500D01*
X88590961Y-96908500D01*
X88447039Y-96908500D01*
X88447036Y-96908500D01*
X88308949Y-96949045D01*
X88187873Y-97026856D01*
X88093623Y-97135626D01*
X88093622Y-97135628D01*
X88033834Y-97266543D01*
X88013353Y-97409000D01*
X83762500Y-97409000D01*
X83762500Y-97273335D01*
X83773705Y-97221825D01*
X83797165Y-97170457D01*
X83817647Y-97028000D01*
X83797165Y-96885543D01*
X83774809Y-96836590D01*
X83773706Y-96834174D01*
X83762500Y-96782663D01*
X83762500Y-95043000D01*
X101783417Y-95043000D01*
X101803699Y-95248932D01*
X101803700Y-95248934D01*
X101863768Y-95446954D01*
X101961315Y-95629450D01*
X101961317Y-95629452D01*
X102092589Y-95789410D01*
X102189209Y-95868702D01*
X102252550Y-95920685D01*
X102435046Y-96018232D01*
X102633066Y-96078300D01*
X102633065Y-96078300D01*
X102651529Y-96080118D01*
X102839000Y-96098583D01*
X103044934Y-96078300D01*
X103242954Y-96018232D01*
X103425450Y-95920685D01*
X103585410Y-95789410D01*
X103716685Y-95629450D01*
X103814232Y-95446954D01*
X103874300Y-95248934D01*
X103894583Y-95043000D01*
X103874300Y-94837066D01*
X103814232Y-94639046D01*
X103716685Y-94456550D01*
X103638270Y-94361000D01*
X103585410Y-94296589D01*
X103425452Y-94165317D01*
X103425453Y-94165317D01*
X103425450Y-94165315D01*
X103242954Y-94067768D01*
X103044934Y-94007700D01*
X103044932Y-94007699D01*
X103044934Y-94007699D01*
X102839000Y-93987417D01*
X102633067Y-94007699D01*
X102435043Y-94067769D01*
X102324898Y-94126643D01*
X102252550Y-94165315D01*
X102252548Y-94165316D01*
X102252547Y-94165317D01*
X102092589Y-94296589D01*
X101961317Y-94456547D01*
X101961315Y-94456550D01*
X101922643Y-94528898D01*
X101863769Y-94639043D01*
X101803699Y-94837067D01*
X101783417Y-95043000D01*
X83762500Y-95043000D01*
X83762500Y-92075000D01*
X96522353Y-92075000D01*
X96542834Y-92217456D01*
X96602622Y-92348371D01*
X96602623Y-92348373D01*
X96696872Y-92457143D01*
X96817947Y-92534953D01*
X96817950Y-92534954D01*
X96817949Y-92534954D01*
X96956037Y-92575500D01*
X96963564Y-92576582D01*
X97027120Y-92605604D01*
X97033602Y-92611639D01*
X98447360Y-94025398D01*
X98480845Y-94086721D01*
X98475861Y-94156413D01*
X98472474Y-94164589D01*
X98447834Y-94218543D01*
X98427353Y-94361000D01*
X98447834Y-94503456D01*
X98507622Y-94634371D01*
X98507623Y-94634373D01*
X98601872Y-94743143D01*
X98722947Y-94820953D01*
X98722950Y-94820954D01*
X98722949Y-94820954D01*
X98861036Y-94861499D01*
X98861038Y-94861500D01*
X98861039Y-94861500D01*
X99004962Y-94861500D01*
X99004962Y-94861499D01*
X99143053Y-94820953D01*
X99264128Y-94743143D01*
X99358377Y-94634373D01*
X99418165Y-94503457D01*
X99438647Y-94361000D01*
X99418165Y-94218543D01*
X99358377Y-94087627D01*
X99343856Y-94070869D01*
X99314833Y-94007314D01*
X99314523Y-94005005D01*
X99309452Y-93964322D01*
X99308500Y-93948985D01*
X99308500Y-93948889D01*
X99308500Y-93948886D01*
X99305075Y-93928369D01*
X99304341Y-93923325D01*
X99301554Y-93900962D01*
X99297866Y-93871374D01*
X99297864Y-93871370D01*
X99295622Y-93863840D01*
X99293065Y-93856395D01*
X99293065Y-93856390D01*
X99268148Y-93810348D01*
X99265828Y-93805840D01*
X99242826Y-93758789D01*
X99242825Y-93758788D01*
X99242825Y-93758787D01*
X99238276Y-93752416D01*
X99233420Y-93746176D01*
X99233419Y-93746174D01*
X99194892Y-93710707D01*
X99191218Y-93707181D01*
X97558566Y-92074528D01*
X97525081Y-92013205D01*
X97523509Y-92004492D01*
X97513165Y-91932544D01*
X97453377Y-91801628D01*
X97453376Y-91801626D01*
X97359128Y-91692857D01*
X97238053Y-91615047D01*
X97238051Y-91615046D01*
X97238049Y-91615045D01*
X97238050Y-91615045D01*
X97099963Y-91574500D01*
X97099961Y-91574500D01*
X96956039Y-91574500D01*
X96956036Y-91574500D01*
X96817949Y-91615045D01*
X96696873Y-91692856D01*
X96602623Y-91801626D01*
X96602622Y-91801628D01*
X96542834Y-91932543D01*
X96522353Y-92075000D01*
X83762500Y-92075000D01*
X83762500Y-86773261D01*
X83763280Y-86759376D01*
X83765351Y-86741000D01*
X99697353Y-86741000D01*
X99717834Y-86883456D01*
X99777621Y-87014369D01*
X99777623Y-87014373D01*
X99871872Y-87123143D01*
X99992947Y-87200953D01*
X99992950Y-87200954D01*
X99992949Y-87200954D01*
X100131036Y-87241499D01*
X100131038Y-87241500D01*
X100131039Y-87241500D01*
X100274962Y-87241500D01*
X100274962Y-87241499D01*
X100413053Y-87200953D01*
X100534128Y-87123143D01*
X100628377Y-87014373D01*
X100688165Y-86883457D01*
X100698509Y-86811502D01*
X100727533Y-86747949D01*
X100733552Y-86741483D01*
X102610400Y-84864637D01*
X102671721Y-84831154D01*
X102680436Y-84829582D01*
X102687962Y-84828500D01*
X102826050Y-84787954D01*
X102826050Y-84787953D01*
X102826053Y-84787953D01*
X102947128Y-84710143D01*
X103041377Y-84601373D01*
X103101165Y-84470457D01*
X103121647Y-84328000D01*
X103101165Y-84185543D01*
X103041377Y-84054627D01*
X102947128Y-83945857D01*
X102826053Y-83868047D01*
X102826051Y-83868046D01*
X102826049Y-83868045D01*
X102826050Y-83868045D01*
X102687963Y-83827500D01*
X102687961Y-83827500D01*
X102544039Y-83827500D01*
X102544036Y-83827500D01*
X102405949Y-83868045D01*
X102284873Y-83945856D01*
X102190623Y-84054626D01*
X102190622Y-84054628D01*
X102130835Y-84185541D01*
X102130834Y-84185546D01*
X102120489Y-84257496D01*
X102091463Y-84321051D01*
X102085432Y-84327529D01*
X100208601Y-86204360D01*
X100147278Y-86237845D01*
X100138571Y-86239416D01*
X100131040Y-86240498D01*
X99992949Y-86281045D01*
X99871873Y-86358856D01*
X99777623Y-86467626D01*
X99777622Y-86467628D01*
X99717834Y-86598543D01*
X99697353Y-86741000D01*
X83765351Y-86741000D01*
X83767270Y-86723966D01*
X83767270Y-86723965D01*
X83756633Y-86667753D01*
X83755864Y-86663219D01*
X83750776Y-86629457D01*
X83747348Y-86606713D01*
X83747346Y-86606709D01*
X83744836Y-86598571D01*
X83742024Y-86590534D01*
X83742023Y-86590528D01*
X83715285Y-86539941D01*
X83713223Y-86535854D01*
X83689697Y-86487000D01*
X83688425Y-86484358D01*
X83688423Y-86484356D01*
X83688423Y-86484355D01*
X83683642Y-86477342D01*
X83678566Y-86470465D01*
X83678565Y-86470462D01*
X83638165Y-86430062D01*
X83634947Y-86426721D01*
X83596060Y-86384809D01*
X83588792Y-86379014D01*
X83589312Y-86378361D01*
X83577067Y-86368964D01*
X83551014Y-86342911D01*
X83525901Y-86306741D01*
X83483379Y-86213630D01*
X83483376Y-86213626D01*
X83475347Y-86204360D01*
X83389128Y-86104857D01*
X83268053Y-86027047D01*
X83268051Y-86027046D01*
X83268049Y-86027045D01*
X83268050Y-86027045D01*
X83129963Y-85986500D01*
X83129961Y-85986500D01*
X82986039Y-85986500D01*
X82986036Y-85986500D01*
X82847949Y-86027045D01*
X82726873Y-86104856D01*
X82632623Y-86213626D01*
X82632622Y-86213628D01*
X82572834Y-86344543D01*
X82552353Y-86487000D01*
X73660000Y-86487000D01*
X73660000Y-81654418D01*
X73660600Y-81642239D01*
X73668485Y-81562347D01*
X73678094Y-81464993D01*
X73682853Y-81441119D01*
X73732880Y-81276571D01*
X73742213Y-81254090D01*
X73823444Y-81102494D01*
X73836993Y-81082270D01*
X73946294Y-80949480D01*
X73963531Y-80932300D01*
X74096686Y-80823437D01*
X74116950Y-80809958D01*
X74268812Y-80729231D01*
X74291325Y-80719971D01*
X74456034Y-80670490D01*
X74479932Y-80665808D01*
X74657236Y-80648900D01*
X74669413Y-80648342D01*
X81293871Y-80670277D01*
G37*
%TD.AperFunction*%
%TD*%
%TA.AperFunction,Conductor*%
%TO.N,GNDA*%
G36*
X142201945Y-91459685D02*
G01*
X142247700Y-91512489D01*
X142257644Y-91546353D01*
X142262834Y-91582456D01*
X142272114Y-91602775D01*
X142322623Y-91713373D01*
X142416872Y-91822143D01*
X142537947Y-91899953D01*
X142537950Y-91899954D01*
X142537949Y-91899954D01*
X142645107Y-91931417D01*
X142675538Y-91940353D01*
X142676036Y-91940499D01*
X142676038Y-91940500D01*
X142676039Y-91940500D01*
X142819961Y-91940500D01*
X142949110Y-91902579D01*
X143018976Y-91902579D01*
X143077755Y-91940353D01*
X143106780Y-92003909D01*
X143096837Y-92073067D01*
X143071724Y-92109237D01*
X143007602Y-92173360D01*
X142946279Y-92206845D01*
X142937571Y-92208416D01*
X142930040Y-92209498D01*
X142791949Y-92250045D01*
X142670873Y-92327856D01*
X142576623Y-92436626D01*
X142576622Y-92436628D01*
X142516834Y-92567543D01*
X142496353Y-92710000D01*
X142516834Y-92852456D01*
X142566023Y-92960163D01*
X142576623Y-92983373D01*
X142670872Y-93092143D01*
X142791947Y-93169953D01*
X142791950Y-93169954D01*
X142791949Y-93169954D01*
X142930036Y-93210499D01*
X142930038Y-93210500D01*
X142930039Y-93210500D01*
X143073962Y-93210500D01*
X143073962Y-93210499D01*
X143212053Y-93169953D01*
X143333128Y-93092143D01*
X143427377Y-92983373D01*
X143487165Y-92852457D01*
X143497509Y-92780502D01*
X143526533Y-92716949D01*
X143532552Y-92710483D01*
X144766717Y-91476319D01*
X144828040Y-91442834D01*
X144854398Y-91440000D01*
X145092600Y-91440000D01*
X145159639Y-91459685D01*
X145205394Y-91512489D01*
X145215338Y-91581647D01*
X145186313Y-91645203D01*
X145180281Y-91651681D01*
X144150601Y-92681360D01*
X144089278Y-92714845D01*
X144080571Y-92716416D01*
X144073040Y-92717498D01*
X143934949Y-92758045D01*
X143813873Y-92835856D01*
X143719623Y-92944626D01*
X143719622Y-92944628D01*
X143659834Y-93075543D01*
X143639353Y-93218000D01*
X143659834Y-93360456D01*
X143703013Y-93455003D01*
X143719623Y-93491373D01*
X143813872Y-93600143D01*
X143934947Y-93677953D01*
X143934950Y-93677954D01*
X143934949Y-93677954D01*
X144073036Y-93718499D01*
X144073038Y-93718500D01*
X144073039Y-93718500D01*
X144216962Y-93718500D01*
X144216962Y-93718499D01*
X144355053Y-93677953D01*
X144476128Y-93600143D01*
X144570377Y-93491373D01*
X144630165Y-93360457D01*
X144640509Y-93288502D01*
X144669533Y-93224949D01*
X144675552Y-93218483D01*
X146417717Y-91476319D01*
X146479040Y-91442834D01*
X146505398Y-91440000D01*
X153933907Y-91440000D01*
X153946061Y-91440597D01*
X154122941Y-91458018D01*
X154146769Y-91462757D01*
X154311001Y-91512576D01*
X154333453Y-91521877D01*
X154446789Y-91582456D01*
X154484798Y-91602772D01*
X154505010Y-91616277D01*
X154637666Y-91725145D01*
X154654854Y-91742333D01*
X154763722Y-91874989D01*
X154777227Y-91895201D01*
X154858121Y-92046543D01*
X154867424Y-92069001D01*
X154917240Y-92233224D01*
X154921982Y-92257065D01*
X154939403Y-92433938D01*
X154940000Y-92446092D01*
X154940000Y-93559693D01*
X154939403Y-93571847D01*
X154921982Y-93748721D01*
X154917240Y-93772562D01*
X154867424Y-93936785D01*
X154858121Y-93959243D01*
X154777227Y-94110585D01*
X154763722Y-94130797D01*
X154650969Y-94268186D01*
X154642797Y-94277202D01*
X153962897Y-94957101D01*
X153962887Y-94957112D01*
X153670000Y-95250000D01*
X153670000Y-95664214D01*
X153670000Y-95664217D01*
X153670000Y-101806535D01*
X153650315Y-101873574D01*
X153597511Y-101919329D01*
X153528353Y-101929273D01*
X153464797Y-101900248D01*
X153458319Y-101894216D01*
X152004014Y-100439911D01*
X151978901Y-100403741D01*
X151936379Y-100310630D01*
X151936376Y-100310626D01*
X151923396Y-100295646D01*
X151842128Y-100201857D01*
X151721053Y-100124047D01*
X151721051Y-100124046D01*
X151721049Y-100124045D01*
X151721050Y-100124045D01*
X151582963Y-100083500D01*
X151582961Y-100083500D01*
X151439039Y-100083500D01*
X151439036Y-100083500D01*
X151300949Y-100124045D01*
X151179873Y-100201856D01*
X151085623Y-100310626D01*
X151085622Y-100310628D01*
X151025834Y-100441543D01*
X151005353Y-100584000D01*
X151025834Y-100726456D01*
X151078518Y-100841815D01*
X151085623Y-100857373D01*
X151179872Y-100966143D01*
X151300947Y-101043953D01*
X151317155Y-101048712D01*
X151369902Y-101080006D01*
X152631891Y-102341994D01*
X153629775Y-103339878D01*
X153663260Y-103401201D01*
X153665497Y-103439713D01*
X153651982Y-103576934D01*
X153647240Y-103600775D01*
X153597424Y-103764998D01*
X153588121Y-103787456D01*
X153507227Y-103938798D01*
X153493722Y-103959010D01*
X153384854Y-104091666D01*
X153367666Y-104108854D01*
X153235010Y-104217722D01*
X153214798Y-104231227D01*
X153063456Y-104312121D01*
X153040998Y-104321424D01*
X152876775Y-104371240D01*
X152852934Y-104375982D01*
X152676061Y-104393403D01*
X152663907Y-104394000D01*
X148492466Y-104394000D01*
X148425427Y-104374315D01*
X148379672Y-104321511D01*
X148369728Y-104252353D01*
X148398753Y-104188797D01*
X148404785Y-104182319D01*
X148594418Y-103992685D01*
X149187102Y-103400000D01*
X149674001Y-103400000D01*
X149674001Y-103679196D01*
X149676851Y-103709606D01*
X149721653Y-103837645D01*
X149802207Y-103946792D01*
X149911354Y-104027346D01*
X150039397Y-104072149D01*
X150069792Y-104074999D01*
X150573999Y-104074999D01*
X150574000Y-104074998D01*
X150574000Y-103400000D01*
X150924000Y-103400000D01*
X150924000Y-104074999D01*
X151428196Y-104074999D01*
X151458606Y-104072148D01*
X151586645Y-104027346D01*
X151695792Y-103946792D01*
X151776346Y-103837645D01*
X151821149Y-103709604D01*
X151821149Y-103709600D01*
X151824000Y-103679206D01*
X151824000Y-103400000D01*
X150924000Y-103400000D01*
X150574000Y-103400000D01*
X149674001Y-103400000D01*
X149187102Y-103400000D01*
X149191095Y-103396007D01*
X149243844Y-103364712D01*
X149260053Y-103359953D01*
X149269245Y-103354046D01*
X149381123Y-103282146D01*
X149381122Y-103282146D01*
X149381128Y-103282143D01*
X149475377Y-103173373D01*
X149502136Y-103114777D01*
X149547888Y-103061976D01*
X149614927Y-103042291D01*
X149641182Y-103050000D01*
X150574000Y-103050000D01*
X150574000Y-102375000D01*
X150924000Y-102375000D01*
X150924000Y-103050000D01*
X151823999Y-103050000D01*
X151823999Y-102770803D01*
X151821148Y-102740393D01*
X151776346Y-102612354D01*
X151695792Y-102503207D01*
X151586645Y-102422653D01*
X151458602Y-102377850D01*
X151428207Y-102375000D01*
X150924000Y-102375000D01*
X150574000Y-102375000D01*
X150069803Y-102375000D01*
X150039393Y-102377851D01*
X149911354Y-102422653D01*
X149802207Y-102503207D01*
X149721653Y-102612354D01*
X149721653Y-102612355D01*
X149713784Y-102634843D01*
X149673061Y-102691618D01*
X149608108Y-102717364D01*
X149539546Y-102703907D01*
X149489144Y-102655518D01*
X149483953Y-102645406D01*
X149475377Y-102626627D01*
X149381128Y-102517857D01*
X149260053Y-102440047D01*
X149260051Y-102440046D01*
X149260049Y-102440045D01*
X149260050Y-102440045D01*
X149121963Y-102399500D01*
X149121961Y-102399500D01*
X148978039Y-102399500D01*
X148978036Y-102399500D01*
X148839949Y-102440045D01*
X148718873Y-102517856D01*
X148718872Y-102517856D01*
X148718872Y-102517857D01*
X148706442Y-102532202D01*
X148624623Y-102626626D01*
X148624621Y-102626629D01*
X148582095Y-102719745D01*
X148556983Y-102755912D01*
X147024716Y-104288181D01*
X146963393Y-104321666D01*
X146937035Y-104324500D01*
X135583975Y-104324500D01*
X135525522Y-104309858D01*
X135378414Y-104231227D01*
X135358202Y-104217722D01*
X135220813Y-104104969D01*
X135211797Y-104096797D01*
X133647202Y-102532202D01*
X133639030Y-102523186D01*
X133595074Y-102469626D01*
X133526275Y-102385795D01*
X133512772Y-102365585D01*
X133431877Y-102214240D01*
X133422575Y-102191785D01*
X133372757Y-102027556D01*
X133368018Y-102003728D01*
X133350597Y-101826847D01*
X133350000Y-101814693D01*
X133350000Y-101796165D01*
X133369685Y-101729126D01*
X133422489Y-101683371D01*
X133427352Y-101681556D01*
X133433047Y-101678955D01*
X133433047Y-101678954D01*
X133433053Y-101678953D01*
X133554128Y-101601143D01*
X133648377Y-101492373D01*
X133708165Y-101361457D01*
X133728647Y-101219000D01*
X133708165Y-101076543D01*
X133648377Y-100945627D01*
X133628785Y-100923016D01*
X133599762Y-100859460D01*
X133598500Y-100841815D01*
X133598500Y-100326183D01*
X133607467Y-100295646D01*
X135490840Y-100295646D01*
X135492155Y-100296492D01*
X135630110Y-100337000D01*
X135773889Y-100337000D01*
X135911843Y-100296492D01*
X135913158Y-100295647D01*
X135702000Y-100084487D01*
X135490840Y-100295646D01*
X133607467Y-100295646D01*
X133618185Y-100259144D01*
X133628783Y-100244985D01*
X133648377Y-100222373D01*
X133708165Y-100091457D01*
X133728647Y-99949000D01*
X133712544Y-99837000D01*
X135196858Y-99837000D01*
X135217319Y-99979311D01*
X135217320Y-99979316D01*
X135247064Y-100044446D01*
X135247065Y-100044446D01*
X135454512Y-99837000D01*
X135546709Y-99837000D01*
X135567514Y-99914645D01*
X135624355Y-99971486D01*
X135682254Y-99987000D01*
X135721746Y-99987000D01*
X135779645Y-99971486D01*
X135836486Y-99914646D01*
X135857291Y-99837000D01*
X135949487Y-99837000D01*
X136156933Y-100044447D01*
X136186680Y-99979313D01*
X136191038Y-99949000D01*
X138686353Y-99949000D01*
X138706834Y-100091456D01*
X138766622Y-100222371D01*
X138766623Y-100222373D01*
X138860872Y-100331143D01*
X138981947Y-100408953D01*
X138998155Y-100413712D01*
X139050902Y-100445006D01*
X140402062Y-101796165D01*
X141644630Y-103038733D01*
X141653895Y-103049100D01*
X141676121Y-103076970D01*
X141676123Y-103076972D01*
X141723363Y-103109180D01*
X141727141Y-103111860D01*
X141773118Y-103145793D01*
X141780654Y-103149776D01*
X141788319Y-103153467D01*
X141788327Y-103153472D01*
X141813188Y-103161140D01*
X141842980Y-103170330D01*
X141847371Y-103171774D01*
X141901301Y-103190646D01*
X141901305Y-103190646D01*
X141909698Y-103192234D01*
X141918095Y-103193500D01*
X141918098Y-103193500D01*
X141975245Y-103193500D01*
X141979883Y-103193587D01*
X142037009Y-103195725D01*
X142037009Y-103195724D01*
X142037010Y-103195725D01*
X142037010Y-103195724D01*
X142046242Y-103194685D01*
X142046335Y-103195513D01*
X142061639Y-103193500D01*
X145665273Y-103193500D01*
X145704004Y-103201926D01*
X145704437Y-103200455D01*
X145851036Y-103243499D01*
X145851038Y-103243500D01*
X145851039Y-103243500D01*
X145994962Y-103243500D01*
X145994962Y-103243499D01*
X146133053Y-103202953D01*
X146254128Y-103125143D01*
X146348377Y-103016373D01*
X146408165Y-102885457D01*
X146428647Y-102743000D01*
X146408165Y-102600543D01*
X146348377Y-102469627D01*
X146254128Y-102360857D01*
X146133053Y-102283047D01*
X146133051Y-102283046D01*
X146133049Y-102283045D01*
X146133050Y-102283045D01*
X145994963Y-102242500D01*
X145994961Y-102242500D01*
X145851039Y-102242500D01*
X145851036Y-102242500D01*
X145704437Y-102285545D01*
X145704004Y-102284073D01*
X145665273Y-102292500D01*
X142223965Y-102292500D01*
X142156926Y-102272815D01*
X142136284Y-102256181D01*
X139685014Y-99804911D01*
X139659901Y-99768741D01*
X139617379Y-99675630D01*
X139617376Y-99675626D01*
X139577453Y-99629552D01*
X139523128Y-99566857D01*
X139402053Y-99489047D01*
X139402051Y-99489046D01*
X139402049Y-99489045D01*
X139402050Y-99489045D01*
X139263963Y-99448500D01*
X139263961Y-99448500D01*
X139120039Y-99448500D01*
X139120036Y-99448500D01*
X138981949Y-99489045D01*
X138860873Y-99566856D01*
X138766623Y-99675626D01*
X138766622Y-99675628D01*
X138706834Y-99806543D01*
X138686353Y-99949000D01*
X136191038Y-99949000D01*
X136207141Y-99837000D01*
X136186680Y-99694688D01*
X136186679Y-99694684D01*
X136156934Y-99629552D01*
X135949487Y-99837000D01*
X135857291Y-99837000D01*
X135836486Y-99759355D01*
X135779645Y-99702514D01*
X135721746Y-99687000D01*
X135682254Y-99687000D01*
X135624355Y-99702514D01*
X135567514Y-99759354D01*
X135546709Y-99837000D01*
X135454512Y-99837000D01*
X135247064Y-99629552D01*
X135217320Y-99694681D01*
X135217319Y-99694685D01*
X135196858Y-99837000D01*
X133712544Y-99837000D01*
X133708165Y-99806543D01*
X133648377Y-99675627D01*
X133554128Y-99566857D01*
X133433053Y-99489047D01*
X133433049Y-99489046D01*
X133424987Y-99485364D01*
X133426256Y-99482584D01*
X133380271Y-99453020D01*
X133351259Y-99389458D01*
X133350466Y-99378352D01*
X135490839Y-99378352D01*
X135702000Y-99589512D01*
X135702001Y-99589512D01*
X135913159Y-99378352D01*
X135911842Y-99377506D01*
X135773890Y-99337000D01*
X135630110Y-99337000D01*
X135492155Y-99377507D01*
X135492151Y-99377509D01*
X135490840Y-99378351D01*
X135490839Y-99378352D01*
X133350466Y-99378352D01*
X133350000Y-99371835D01*
X133350000Y-93218000D01*
X135384353Y-93218000D01*
X135404834Y-93360456D01*
X135448013Y-93455003D01*
X135464623Y-93491373D01*
X135558872Y-93600143D01*
X135679947Y-93677953D01*
X135679950Y-93677954D01*
X135679949Y-93677954D01*
X135818036Y-93718499D01*
X135818038Y-93718500D01*
X135818039Y-93718500D01*
X135961962Y-93718500D01*
X136008482Y-93704840D01*
X136078352Y-93704840D01*
X136131099Y-93736136D01*
X136240181Y-93845218D01*
X136273666Y-93906541D01*
X136276500Y-93932899D01*
X136276500Y-94944196D01*
X136273862Y-94969634D01*
X136271633Y-94980268D01*
X136271633Y-94980270D01*
X136275548Y-95011675D01*
X136276500Y-95027013D01*
X136276500Y-95027116D01*
X136279918Y-95047603D01*
X136280657Y-95052669D01*
X136287134Y-95104627D01*
X136289373Y-95112147D01*
X136291935Y-95119611D01*
X136316827Y-95165608D01*
X136319171Y-95170161D01*
X136342172Y-95217208D01*
X136346742Y-95223609D01*
X136351581Y-95229826D01*
X136390108Y-95265293D01*
X136393780Y-95268817D01*
X136883432Y-95758469D01*
X136916917Y-95819792D01*
X136918489Y-95828502D01*
X136928834Y-95900454D01*
X136928835Y-95900458D01*
X136978110Y-96008354D01*
X136988623Y-96031373D01*
X137082872Y-96140143D01*
X137203947Y-96217953D01*
X137203950Y-96217954D01*
X137203949Y-96217954D01*
X137270791Y-96237580D01*
X137337407Y-96257140D01*
X137342036Y-96258499D01*
X137342038Y-96258500D01*
X137342039Y-96258500D01*
X137485962Y-96258500D01*
X137485962Y-96258499D01*
X137624053Y-96217953D01*
X137745128Y-96140143D01*
X137839377Y-96031373D01*
X137899165Y-95900457D01*
X137919647Y-95758000D01*
X137899165Y-95615543D01*
X137839377Y-95484627D01*
X137745128Y-95375857D01*
X137624053Y-95298047D01*
X137624051Y-95298046D01*
X137624049Y-95298045D01*
X137624050Y-95298045D01*
X137485965Y-95257500D01*
X137478429Y-95256417D01*
X137414874Y-95227391D01*
X137408397Y-95221360D01*
X137063819Y-94876781D01*
X137030334Y-94815458D01*
X137027500Y-94789100D01*
X137027500Y-93777803D01*
X137030139Y-93752358D01*
X137031191Y-93747339D01*
X137032367Y-93741731D01*
X137028452Y-93710324D01*
X137027500Y-93694986D01*
X137027500Y-93694889D01*
X137027499Y-93694877D01*
X137024610Y-93677570D01*
X137024076Y-93674369D01*
X137023339Y-93669315D01*
X137022463Y-93662289D01*
X137016865Y-93617374D01*
X137014617Y-93609827D01*
X137012065Y-93602390D01*
X136987160Y-93556369D01*
X136984814Y-93551812D01*
X136961826Y-93504788D01*
X136961823Y-93504785D01*
X136961823Y-93504784D01*
X136957267Y-93498402D01*
X136952423Y-93492178D01*
X136951549Y-93491373D01*
X136913904Y-93456718D01*
X136910231Y-93453193D01*
X136446149Y-92989111D01*
X136430022Y-92969252D01*
X136424086Y-92960167D01*
X136424085Y-92960166D01*
X136424084Y-92960164D01*
X136399109Y-92940725D01*
X136387591Y-92930553D01*
X136387515Y-92930477D01*
X136370595Y-92918398D01*
X136366479Y-92915329D01*
X136325189Y-92883190D01*
X136318274Y-92879448D01*
X136311201Y-92875990D01*
X136270158Y-92863771D01*
X136224336Y-92838637D01*
X136221131Y-92835860D01*
X136221128Y-92835857D01*
X136100053Y-92758047D01*
X136100051Y-92758046D01*
X136100049Y-92758045D01*
X136100050Y-92758045D01*
X135961963Y-92717500D01*
X135961961Y-92717500D01*
X135818039Y-92717500D01*
X135818036Y-92717500D01*
X135679949Y-92758045D01*
X135558873Y-92835856D01*
X135464623Y-92944626D01*
X135464622Y-92944628D01*
X135404834Y-93075543D01*
X135384353Y-93218000D01*
X133350000Y-93218000D01*
X133350000Y-92446092D01*
X133350597Y-92433938D01*
X133361045Y-92327856D01*
X133368018Y-92257056D01*
X133372757Y-92233232D01*
X133422577Y-92068994D01*
X133431875Y-92046549D01*
X133512775Y-91895195D01*
X133526272Y-91874995D01*
X133635149Y-91742328D01*
X133652328Y-91725149D01*
X133784995Y-91616272D01*
X133805195Y-91602775D01*
X133956549Y-91521875D01*
X133978994Y-91512577D01*
X134143232Y-91462757D01*
X134167056Y-91458018D01*
X134343939Y-91440597D01*
X134356093Y-91440000D01*
X142134906Y-91440000D01*
X142201945Y-91459685D01*
G37*
%TD.AperFunction*%
%TD*%
M02*
